<svg width="21" height="20" viewBox="0 0 21 20" fill="none" xmlns="http://www.w3.org/2000/svg">
<path d="M20 11.0171C19.8993 11.0977 19.8187 11.1984 19.6979 11.2588C19.2951 11.4199 18.8923 11.5811 18.4894 11.7221C18.3887 11.7623 18.3283 11.8228 18.288 11.9436C18.0866 12.8298 17.7241 13.6757 17.2407 14.4612C17.1803 14.5619 17.1803 14.6425 17.2407 14.7231C17.422 15.1259 17.6032 15.5488 17.7845 15.9517C17.8651 16.1329 17.8449 16.2739 17.7039 16.4149C17.281 16.8379 16.8379 17.2608 16.4149 17.7039C16.2739 17.8449 16.1531 17.8651 15.9718 17.7845C15.569 17.6032 15.146 17.422 14.7432 17.2407C14.6425 17.2004 14.5619 17.2004 14.4612 17.2608C13.6959 17.7442 12.8701 18.0866 11.9839 18.288C11.8429 18.3283 11.7825 18.3887 11.7422 18.5096C11.6012 18.9124 11.4401 19.3152 11.279 19.718C11.1984 19.9194 11.0775 20 10.8761 20C10.292 20 9.68782 20 9.10373 20C8.90232 20 8.78147 19.9194 8.70091 19.718C8.53978 19.2951 8.37865 18.8721 8.21752 18.4693C8.19738 18.4089 8.09668 18.3283 8.03625 18.3082C7.12991 18.0866 6.28399 17.7442 5.47835 17.2407C5.41793 17.2004 5.31722 17.2004 5.2568 17.2407C4.83384 17.422 4.43102 17.6032 4.0282 17.7845C3.82679 17.8852 3.6858 17.8449 3.54481 17.6838C3.14199 17.2608 2.71903 16.858 2.29607 16.435C2.13495 16.2739 2.1148 16.1329 2.21551 15.9315C2.39678 15.5287 2.55791 15.1259 2.75932 14.7432C2.7996 14.6425 2.7996 14.5619 2.73918 14.4612C2.25579 13.6959 1.91339 12.8499 1.71198 11.9637C1.69184 11.8429 1.63142 11.7825 1.53072 11.7422C1.10775 11.5811 0.704935 11.4199 0.281974 11.279C0.0805643 11.1984 0 11.0775 0 10.8761C0 10.292 0 9.70795 0 9.12387C0 8.90232 0.080564 8.78147 0.302115 8.7009C0.704935 8.55992 1.10775 8.37865 1.53072 8.23766C1.63142 8.19738 1.69184 8.13696 1.71198 8.01611C1.91339 7.12991 2.27593 6.28399 2.73918 5.49849C2.77946 5.43806 2.77946 5.31722 2.75932 5.2568C2.57805 4.83384 2.39678 4.43102 2.21551 4.0282C2.1148 3.82679 2.15509 3.6858 2.31621 3.54482C2.73917 3.142 3.14199 2.71903 3.56496 2.29607C3.72608 2.13494 3.86707 2.1148 4.06848 2.21551C4.4713 2.39678 4.87412 2.5579 5.2568 2.75931C5.37765 2.81973 5.45821 2.7996 5.55891 2.73918C6.32427 2.25579 7.15005 1.91339 8.01611 1.71198C8.13696 1.69184 8.21752 1.63142 8.25781 1.49043C8.39879 1.10775 8.53978 0.725073 8.70091 0.362535C8.76133 0.221548 8.8419 0.120846 8.92246 0C9.64753 0 10.3726 0 11.1178 0C11.1984 0.120846 11.2991 0.241689 11.3394 0.362535C11.5005 0.725073 11.6415 1.10775 11.7825 1.49043C11.8228 1.61128 11.8832 1.6717 12.004 1.69184C12.8902 1.89325 13.7362 2.25579 14.5217 2.73918C14.5821 2.77946 14.7029 2.77945 14.7633 2.75931C15.1863 2.57804 15.5891 2.39678 15.9919 2.21551C16.1732 2.13494 16.3142 2.15508 16.4753 2.29607C16.8983 2.71903 17.3213 3.14199 17.7442 3.56495C17.8852 3.70594 17.9053 3.84693 17.8248 4.04834C17.6435 4.45116 17.4622 4.87412 17.281 5.27694C17.2608 5.33736 17.2608 5.45821 17.3011 5.51863C17.7845 6.30413 18.1269 7.12991 18.3484 8.03625C18.3686 8.1571 18.429 8.21752 18.5297 8.25781C18.9124 8.39879 19.2951 8.53978 19.6777 8.7009C19.8187 8.76133 19.9194 8.84189 20.0403 8.92246C20 9.58711 20 10.292 20 11.0171ZM17.14 3.86707C17.1198 3.84693 17.0997 3.80664 17.0796 3.7865C16.7774 3.48439 16.4753 3.18227 16.1732 2.88016C16.1329 2.83988 16.0322 2.83988 15.9718 2.86002C15.5891 3.02114 15.2064 3.18227 14.8238 3.36354C14.6224 3.46425 14.4612 3.44411 14.28 3.32326C13.4542 2.77946 12.568 2.41692 11.6012 2.21551C11.4199 2.17523 11.3192 2.09466 11.2588 1.91339C11.1178 1.51057 10.9567 1.1279 10.8157 0.725077C10.7754 0.604231 10.715 0.563945 10.5942 0.563945C10.1913 0.563945 9.80866 0.563945 9.40584 0.563945C9.285 0.563945 9.22457 0.604231 9.18429 0.725077C9.04331 1.10776 8.88218 1.51057 8.74119 1.89325C8.68077 2.07452 8.55992 2.17523 8.37865 2.21551C7.41188 2.41692 6.50554 2.77946 5.67976 3.34341C5.51863 3.44411 5.37764 3.46425 5.19638 3.38368C4.8137 3.20241 4.43102 3.04129 4.04834 2.86002C3.94763 2.81973 3.88721 2.81974 3.78651 2.9003C3.50453 3.18228 3.22256 3.48439 2.92044 3.76636C2.83988 3.84693 2.83988 3.90735 2.88016 4.0282C3.06143 4.41088 3.22256 4.79355 3.38369 5.17623C3.46425 5.3575 3.46425 5.51863 3.34341 5.67976C2.7996 6.50554 2.43706 7.39174 2.23565 8.37865C2.19537 8.55992 2.1148 8.66062 1.93354 8.72105C1.53072 8.86203 1.14804 9.02316 0.745217 9.16415C0.624371 9.20443 0.584089 9.26486 0.584089 9.3857C0.584089 9.78852 0.584089 10.1712 0.584089 10.574C0.584089 10.6949 0.624371 10.7553 0.745217 10.7956C1.14804 10.9366 1.53072 11.0977 1.93354 11.2387C2.09466 11.2991 2.19537 11.3998 2.23565 11.5609C2.43706 12.5478 2.81974 13.4542 3.36355 14.3001C3.46425 14.4411 3.46425 14.5821 3.40383 14.7432C3.22256 15.1259 3.06143 15.5086 2.88016 15.8912C2.81974 16.0121 2.81974 16.0725 2.92044 16.1732C3.20242 16.435 3.48439 16.717 3.74622 16.999C3.84693 17.0997 3.90735 17.0997 4.0282 17.0393C4.39074 16.858 4.77342 16.717 5.15609 16.5358C5.33736 16.4552 5.49849 16.4552 5.65962 16.576C6.4854 17.1198 7.3716 17.4824 8.35851 17.6838C8.53978 17.7241 8.64048 17.8046 8.70091 17.9859C8.8419 18.3887 9.00302 18.7714 9.14401 19.1742C9.18429 19.2951 9.24472 19.3354 9.36556 19.3354C9.76838 19.3354 10.1511 19.3354 10.5539 19.3354C10.6747 19.3354 10.7351 19.2951 10.7754 19.1742C10.9164 18.7714 11.0775 18.3887 11.2185 17.9859C11.279 17.8248 11.3797 17.7241 11.5408 17.6838C12.5277 17.4824 13.4542 17.0997 14.3001 16.5358C14.4411 16.4552 14.5619 16.435 14.7029 16.4955C15.1057 16.6767 15.5086 16.8379 15.8912 17.0393C15.9919 17.0796 16.0524 17.0796 16.1531 16.999C16.435 16.6969 16.717 16.4149 17.0191 16.1329C17.0997 16.0524 17.0997 15.9919 17.0594 15.8711C16.8781 15.4884 16.717 15.1057 16.5559 14.7231C16.4753 14.5418 16.4753 14.3807 16.5962 14.2195C17.14 13.3938 17.5025 12.5076 17.7039 11.5206C17.7442 11.3394 17.8248 11.2387 18.006 11.1782C18.4089 11.0373 18.7915 10.8761 19.1944 10.7351C19.3152 10.6949 19.3555 10.6344 19.3555 10.5136C19.3555 10.1108 19.3555 9.7281 19.3555 9.32528C19.3555 9.20443 19.3152 9.14401 19.1944 9.10372C18.7915 8.96274 18.4089 8.80161 18.006 8.66063C17.8449 8.6002 17.7442 8.4995 17.7039 8.33837C17.5025 7.35146 17.1198 6.44511 16.576 5.59919C16.4753 5.43806 16.4753 5.29708 16.5559 5.13595C16.7372 4.75327 16.8983 4.37059 17.0594 3.98791C17.0997 3.96777 17.1198 3.92749 17.14 3.86707Z" fill="#2E4489"/>
<path d="M9.99004 4.02746C13.2529 4.02746 15.9316 6.70621 15.9115 9.96905C15.9115 13.2319 13.2327 15.9106 9.9699 15.8905C6.70706 15.8905 4.02831 13.2117 4.04845 9.94891C4.06859 6.68607 6.7272 4.00732 9.99004 4.02746ZM15.2871 9.94891C15.2871 7.02846 12.8903 4.63169 9.9699 4.65183C7.04946 4.65183 4.67282 7.02846 4.67282 9.94891C4.67282 12.8693 7.04946 15.2661 9.9699 15.2661C12.8903 15.2661 15.2871 12.8693 15.2871 9.94891Z" fill="#2E4489"/>
<path d="M12.9509 10.211C12.9509 10.2714 12.9509 10.3319 12.9509 10.4124C12.9509 11.1778 12.9509 11.923 12.9509 12.6884C12.9509 13.3732 12.4675 13.8565 11.7827 13.8565C10.5743 13.8565 9.38595 13.8565 8.17749 13.8565C7.47255 13.8565 7.00931 13.3732 7.00931 12.6682C7.00931 11.923 7.00931 11.1778 7.00931 10.4124C7.00931 10.3319 7.00931 10.2714 7.00931 10.1909C6.86832 10.211 6.72734 10.2312 6.60649 10.2312C6.22381 10.211 5.9217 9.96933 5.80085 9.62693C5.68 9.2644 5.80085 8.88172 6.12311 8.64003C6.88846 8.07608 7.65382 7.53227 8.41918 6.96833C8.76158 6.72663 9.08383 6.48494 9.42623 6.24325C9.78877 5.98142 10.1513 5.98142 10.5138 6.24325C11.6216 7.04889 12.7294 7.85453 13.8371 8.66017C14.1191 8.86158 14.2399 9.16369 14.1795 9.52623C14.1191 9.86863 13.9177 10.1305 13.5753 10.211C13.394 10.2513 13.1725 10.211 12.9509 10.211ZM8.88242 13.212C8.88242 13.1315 8.88242 13.071 8.88242 12.9905C8.88242 12.2654 8.88242 11.5403 8.88242 10.8153C8.88242 10.3721 9.1644 10.0902 9.6075 10.0902C9.84919 10.0902 10.0707 10.0902 10.3124 10.0902C10.816 10.0902 11.0778 10.352 11.0778 10.8555C11.0778 11.5605 11.0778 12.2855 11.0778 12.9905C11.0778 13.0509 11.0778 13.1315 11.0778 13.212C11.3195 13.212 11.541 13.212 11.7424 13.212C12.1251 13.212 12.3064 13.0106 12.3064 12.6279C12.3064 11.7015 12.3064 10.7951 12.3064 9.86863C12.3064 9.78806 12.246 9.68736 12.1855 9.62693C11.5008 9.12341 10.7958 8.61988 10.111 8.11636C10.0707 8.07608 10.0103 8.05594 9.97004 8.01565C9.22482 8.55946 8.4796 9.10327 7.73438 9.64708C7.6941 9.68736 7.63368 9.76792 7.63368 9.8082C7.63368 10.775 7.63368 11.7417 7.63368 12.7085C7.63368 12.9502 7.79481 13.1717 8.0365 13.1919C8.31847 13.2322 8.58031 13.212 8.88242 13.212ZM13.5753 9.30468C13.535 9.26439 13.4947 9.16369 13.4141 9.12341C12.3467 8.33791 11.2792 7.57255 10.2117 6.78705C10.0506 6.66621 9.90961 6.68635 9.74848 6.78705C8.70115 7.55241 7.65382 8.31777 6.60649 9.06299C6.54607 9.10327 6.48564 9.14355 6.4655 9.18384C6.42522 9.28454 6.40508 9.42553 6.44536 9.48595C6.50579 9.56651 6.64677 9.58666 6.74748 9.58666C6.8079 9.58666 6.86832 9.52623 6.9086 9.48595C7.83509 8.8213 8.76158 8.15664 9.66792 7.47185C9.97004 7.2503 10.0103 7.2503 10.3124 7.47185C11.2389 8.1365 12.1453 8.8213 13.0717 9.48595C13.1322 9.52623 13.1725 9.56651 13.2329 9.58666C13.4141 9.66722 13.5954 9.54637 13.5753 9.30468ZM9.50679 13.212C9.84919 13.212 10.1513 13.212 10.4534 13.212C10.4534 13.1315 10.4534 13.0509 10.4534 12.9905C10.4534 12.3661 10.4534 11.7417 10.4534 11.1174C10.4534 10.7347 10.4534 10.7347 10.0707 10.7347C9.88947 10.7347 9.62764 10.6743 9.54707 10.775C9.44637 10.8757 9.50679 11.1375 9.48665 11.3188C9.50679 11.9431 9.50679 12.5675 9.50679 13.212Z" fill="#FAB21E"/>
</svg>
