<svg width="20" height="20" viewBox="0 0 20 20" fill="none" xmlns="http://www.w3.org/2000/svg">
<path d="M1.2982 8.65306C0.953457 8.65306 0.677657 8.65306 0.367388 8.65306C0.195016 8.65306 0.0571183 8.61859 0.0226439 8.48069C-0.0118305 8.37727 -0.0118284 8.2049 0.0571204 8.10148C1.0224 6.58461 2.02216 5.06773 2.98744 3.55086C3.09087 3.41296 3.19428 3.34402 3.40113 3.34402C3.74587 3.34402 4.12509 3.34402 4.46984 3.34402C4.60774 3.34402 4.71116 3.30955 4.78011 3.17165C5.40064 2.20637 6.02119 1.24107 6.64173 0.275791C6.77963 0.0689446 6.91753 0 7.15885 0C10.296 0 13.3987 0 16.5359 0C16.7772 0 16.9151 0.0689446 17.053 0.275791C17.9838 1.75819 18.9491 3.24058 19.8799 4.68851C19.9833 4.82641 20.0523 4.96432 19.9488 5.13669C19.8454 5.30906 19.673 5.30906 19.5007 5.30906C19.1215 5.30906 18.7422 5.30906 18.3285 5.30906C18.3285 5.41249 18.3285 5.48142 18.3285 5.55037C18.3285 6.65355 18.3285 7.79121 18.3285 8.89439C18.3285 8.96334 18.3285 9.0323 18.3285 9.10125C18.2941 9.27362 18.1562 9.37704 17.9838 9.37704C17.8114 9.37704 17.708 9.27362 17.6735 9.10125C17.6735 9.0323 17.6735 8.96334 17.6735 8.89439C17.6735 7.79121 17.6735 6.65355 17.6735 5.55037C17.6735 5.48142 17.6735 5.41249 17.6735 5.30906C16.6048 5.30906 15.5706 5.30906 14.5019 5.30906C14.5364 5.37801 14.5708 5.44696 14.6053 5.48144C15.0535 6.17092 15.5016 6.86041 15.9153 7.5499C15.9843 7.65332 16.0188 7.82568 15.9843 7.96358C15.9153 8.17042 15.6395 8.2049 15.4672 8.03253C15.3982 7.96358 15.3637 7.89463 15.3293 7.86016C14.5364 6.61908 13.7434 5.378 12.9161 4.13693C12.8471 4.0335 12.7782 3.99902 12.6403 3.99902C9.641 3.99902 6.6762 3.99902 3.67693 3.99902C3.57351 3.99902 3.47008 3.99904 3.40113 4.10246C2.60822 5.37801 1.78084 6.61909 0.953457 7.89464C0.953457 7.92912 0.918978 7.92911 0.884504 7.99806C0.987927 7.99806 1.05688 7.99806 1.12583 7.99806C4.53879 7.99806 7.98623 7.99806 11.3992 7.99806C11.4681 7.99806 11.5371 7.99806 11.5716 7.99806C11.8129 7.99806 11.9508 8.13596 11.9508 8.34281C11.9508 8.51518 11.8129 8.65306 11.606 8.65306C11.5371 8.65306 11.4681 8.65306 11.4337 8.65306C8.36545 8.65306 5.29722 8.65306 2.229 8.65306C2.16005 8.65306 2.05664 8.65306 1.95321 8.65306C1.95321 11.1007 1.95321 13.5484 1.95321 15.9961C2.02216 15.9961 2.0911 15.9961 2.19453 15.9961C4.67668 15.9961 7.15884 15.9961 9.60652 15.9961C9.67547 15.9961 9.74442 15.9961 9.81337 15.9961C9.98574 16.0306 10.0892 16.134 10.0892 16.3409C10.0892 16.5132 9.98574 16.6511 9.81337 16.6856C9.74442 16.6856 9.67547 16.6856 9.641 16.6856C7.02094 16.6856 4.40089 16.6856 1.74636 16.6856C1.36715 16.6856 1.26372 16.5822 1.26372 16.203C1.26372 13.7898 1.26372 11.3766 1.26372 8.92887C1.2982 8.85993 1.2982 8.79096 1.2982 8.65306ZM19.018 4.65404C18.9836 4.58509 18.9836 4.55062 18.9491 4.55062C18.1562 3.30955 17.3288 2.03398 16.5359 0.792907C16.4669 0.689484 16.398 0.689488 16.2946 0.689488C13.2953 0.689488 10.3305 0.689488 7.33122 0.689488C7.19332 0.689488 7.12437 0.723971 7.05542 0.827394C6.57278 1.6203 6.05566 2.37874 5.53855 3.17165C5.50407 3.20612 5.4696 3.27507 5.43513 3.34402C6.74515 3.34402 7.98623 3.34402 9.29625 3.34402C9.29625 3.03375 9.29625 2.72347 9.29625 2.44767C9.29625 2.1374 9.39968 2.034 9.70995 2.034C10.3305 2.034 10.9165 2.034 11.5371 2.034C11.8474 2.034 11.9853 2.13742 11.9853 2.48216C11.9853 2.79243 11.9853 3.06822 11.9853 3.37849C12.2955 3.37849 12.6058 3.37849 12.8816 3.37849C13.0884 3.37849 13.2263 3.44744 13.2953 3.61981C13.5021 3.96455 13.709 4.27482 13.9158 4.58509C13.9503 4.65404 14.0537 4.68851 14.1227 4.68851C15.743 4.65403 17.3633 4.65404 19.018 4.65404ZM11.2958 2.65453C10.8476 2.65453 10.3994 2.65453 9.98574 2.65453C9.98574 2.86138 9.98574 3.06821 9.98574 3.30953C10.4339 3.30953 10.8476 3.30953 11.2958 3.30953C11.2958 3.10269 11.2958 2.89585 11.2958 2.65453Z" fill="#2E4489"/>
<path d="M18.2249 15.9962C18.7075 16.4788 19.1557 16.927 19.6383 17.4096C19.8796 17.651 20.0175 17.9612 19.9486 18.306C19.8796 18.7197 19.6728 18.9955 19.2591 19.0989C18.8799 19.2368 18.5351 19.1334 18.2593 18.8576C17.8112 18.4094 17.3285 17.9612 16.8804 17.4786C16.8114 17.4096 16.7769 17.3407 16.7425 17.3062C14.2258 18.7886 11.2955 17.6165 10.0889 15.617C8.88231 13.6174 9.33047 10.9629 11.1576 9.41157C12.9848 7.8947 15.6738 7.92919 17.3975 9.44606C19.2246 11.0664 19.8107 13.8588 18.2249 15.9962ZM18.4662 13.1693C18.4662 11.0319 16.9838 9.06683 14.2948 8.99788C12.0195 8.9634 10.1579 10.8595 10.1579 13.1693C10.1579 15.4446 12.0195 17.3752 14.2948 17.3407C16.9493 17.3062 18.4317 15.3067 18.4662 13.1693ZM17.2941 16.9959C17.7767 17.4786 18.2249 17.9267 18.673 18.3749C18.8454 18.5473 19.0523 18.5818 19.1902 18.4094C19.3281 18.2715 19.2936 18.0647 19.1212 17.8923C18.7075 17.4786 18.2938 17.0649 17.8801 16.6512C17.8456 16.6167 17.8112 16.5823 17.7422 16.5478C17.6388 16.6857 17.4664 16.8236 17.2941 16.9959Z" fill="#FAB21E"/>
<path d="M4.29733 11.6861C3.98706 11.6861 3.67679 11.6861 3.36653 11.6861C3.09073 11.6861 2.9873 11.5482 2.9873 11.3068C2.9873 10.7897 2.9873 10.2381 2.9873 9.72103C2.9873 9.47971 3.1252 9.3418 3.33205 9.3418C3.98706 9.3418 4.64208 9.3418 5.26262 9.3418C5.50394 9.3418 5.64183 9.47969 5.64183 9.68654C5.64183 10.2381 5.64183 10.7553 5.64183 11.3068C5.64183 11.5482 5.50394 11.6861 5.26262 11.6861C4.91787 11.6861 4.6076 11.6861 4.29733 11.6861ZM4.95234 10.9966C4.95234 10.6518 4.95234 10.3416 4.95234 10.0313C4.50417 10.0313 4.05601 10.0313 3.64232 10.0313C3.64232 10.376 3.64232 10.6863 3.64232 10.9966C4.09048 10.9966 4.50417 10.9966 4.95234 10.9966Z" fill="#2E4489"/>
<path d="M7.95162 11.6867C7.64135 11.6867 7.33108 11.6867 7.02081 11.6867C6.74502 11.6867 6.6416 11.5488 6.6416 11.3075C6.6416 10.7904 6.6416 10.2733 6.6416 9.75616C6.6416 9.48037 6.77949 9.37695 7.02081 9.37695C7.64135 9.37695 8.29636 9.37695 8.9169 9.37695C9.1927 9.37695 9.29612 9.51484 9.29612 9.75616C9.29612 10.2733 9.29612 10.7904 9.29612 11.3075C9.29612 11.5833 9.15822 11.6867 8.9169 11.6867C8.60663 11.6867 8.26189 11.6867 7.95162 11.6867ZM7.29661 9.99749C7.29661 10.3422 7.29661 10.6525 7.29661 10.9628C7.74478 10.9628 8.19294 10.9628 8.60664 10.9628C8.60664 10.618 8.60664 10.3078 8.60664 9.99749C8.19294 9.99749 7.74478 9.99749 7.29661 9.99749Z" fill="#2E4489"/>
<path d="M4.29733 12.3418C4.6076 12.3418 4.91787 12.3418 5.22814 12.3418C5.50394 12.3418 5.60736 12.4797 5.60736 12.721C5.60736 13.2381 5.60736 13.7553 5.60736 14.2724C5.60736 14.5482 5.46946 14.6516 5.22814 14.6516C4.6076 14.6516 3.98706 14.6516 3.36653 14.6516C3.09073 14.6516 2.9873 14.5137 2.9873 14.2724C2.9873 13.7553 2.9873 13.2381 2.9873 12.721C2.9873 12.4452 3.1252 12.3418 3.36653 12.3418C3.67679 12.3418 3.98706 12.3418 4.29733 12.3418ZM3.64232 12.9968C3.64232 13.3416 3.64232 13.6518 3.64232 13.9966C4.09048 13.9966 4.50417 13.9966 4.95234 13.9966C4.95234 13.6518 4.95234 13.3416 4.95234 12.9968C4.50417 12.9968 4.09048 12.9968 3.64232 12.9968Z" fill="#2E4489"/>
<path d="M7.95162 12.3418C8.26189 12.3418 8.57217 12.3418 8.88244 12.3418C9.15823 12.3418 9.26165 12.4797 9.26165 12.721C9.26165 13.2381 9.26165 13.7553 9.26165 14.2724C9.26165 14.5482 9.12376 14.6516 8.88244 14.6516C8.2619 14.6516 7.64135 14.6516 7.02081 14.6516C6.74502 14.6516 6.6416 14.5137 6.6416 14.2724C6.6416 13.7553 6.6416 13.2381 6.6416 12.721C6.6416 12.4452 6.77949 12.3418 7.02081 12.3418C7.33108 12.3418 7.64135 12.3418 7.95162 12.3418ZM8.60664 13.9966C8.60664 13.6518 8.60664 13.3416 8.60664 13.0313C8.15847 13.0313 7.71031 13.0313 7.29661 13.0313C7.29661 13.376 7.29661 13.6863 7.29661 13.9966C7.74478 13.9966 8.15847 13.9966 8.60664 13.9966Z" fill="#2E4489"/>
<path d="M14.2949 16.6519C12.2954 16.6519 10.813 15.135 10.813 13.1355C10.813 11.2394 12.3988 9.65358 14.3294 9.68805C16.2255 9.68805 17.8113 11.2739 17.8113 13.17C17.8113 15.135 16.2944 16.6519 14.2949 16.6519ZM14.3294 10.3431C12.7436 10.3086 11.5025 11.5497 11.468 13.1355C11.4335 14.6524 12.7091 15.9624 14.226 15.9969C15.8118 16.0314 17.1218 14.7903 17.1218 13.2389C17.1563 11.6186 15.9497 10.3775 14.3294 10.3431Z" fill="#FAB21E"/>
</svg>
