<svg width="17" height="21" viewBox="0 0 17 21" fill="none" xmlns="http://www.w3.org/2000/svg">
<path d="M16.4354 10.9116C16.4354 13.7585 16.4354 16.5815 16.4354 19.4284C16.4354 20.3375 15.933 20.8398 15.0239 20.8398C10.8852 20.8398 6.77033 20.8398 2.63158 20.8398C1.07655 20.8398 0 19.7633 0 18.2083C0 13.9738 0 9.76329 0 5.52884C0 4.2609 0.239234 3.06473 1.07655 2.08387C1.74641 1.31832 2.55981 0.839844 3.63637 0.839844C7.36842 0.863767 11.1244 0.839844 14.8565 0.839844C15.8373 0.839844 16.4354 1.41401 16.4354 2.39487C16.4354 5.24176 16.4354 8.06473 16.4354 10.9116ZM3.56459 15.8398C3.63636 15.8398 3.68421 15.8398 3.73206 15.8398C6.55502 15.8398 9.37799 15.8398 12.201 15.8398C12.2966 15.8398 12.4163 15.792 12.488 15.7202C13.5407 14.6915 14.5694 13.6628 15.5981 12.6102C15.6699 12.5384 15.7177 12.3949 15.7177 12.2752C15.7177 9.8829 15.7177 7.49056 15.7177 5.09821C15.7177 4.9786 15.6699 4.85898 15.5742 4.76329C14.5455 3.73458 13.5167 2.70587 12.512 1.67716C12.3923 1.55755 12.2967 1.53362 12.1531 1.53362C9.40192 1.53362 6.6268 1.53362 3.8756 1.53362C3.58852 1.53362 3.58852 1.53363 3.58852 1.82071C3.58852 6.39008 3.58852 10.9834 3.58852 15.5528C3.56459 15.6485 3.56459 15.7202 3.56459 15.8398ZM15.6938 19.4044C15.5981 19.4044 15.5024 19.4044 15.4067 19.4044C11.1483 19.4044 6.88995 19.4044 2.60765 19.4044C2.29665 19.4044 2.12918 19.2848 2.12918 19.0456C2.12918 18.8064 2.29665 18.6867 2.60765 18.6867C2.6555 18.6867 2.70335 18.6867 2.77512 18.6867C6.98565 18.6867 11.2201 18.6867 15.4306 18.6867C15.5263 18.6867 15.5981 18.6867 15.6938 18.6867C15.6938 18.4236 15.6938 18.2083 15.6938 17.969C15.5742 17.969 15.4785 17.969 15.3828 17.969C11.1483 17.969 6.91388 17.969 2.67943 17.969C2.29665 17.969 2.15311 17.8733 2.12918 17.6341C2.12918 17.3949 2.29665 17.2753 2.67943 17.2753C6.9378 17.2753 11.1722 17.2753 15.4306 17.2753C15.5263 17.2753 15.5981 17.2753 15.6938 17.2753C15.6938 17.036 15.6938 16.7968 15.6938 16.5575C15.622 16.5575 15.5742 16.5575 15.5024 16.5575C11.1723 16.5575 6.86603 16.5575 2.53589 16.5575C1.50718 16.5575 0.693778 17.347 0.693778 18.3518C0.693778 19.3566 1.48325 20.1221 2.53589 20.1221C6.69857 20.1221 10.8852 20.1221 15.0478 20.1221C15.5263 20.1221 15.7416 19.8829 15.6938 19.4044ZM2.84689 1.62931C2.32057 1.86855 1.88995 2.15563 1.55502 2.58625C0.885167 3.4475 0.693778 4.45228 0.693778 5.50492C0.693778 9.11736 0.693778 12.7059 0.693778 16.3183C0.693778 16.3901 0.693778 16.4618 0.693778 16.5815C1.31579 15.9834 2.0335 15.792 2.82297 15.8398C2.84689 11.103 2.84689 6.39008 2.84689 1.62931ZM15.6938 13.5671C14.9522 14.3087 14.1866 15.0743 13.445 15.8159C14.1627 15.8159 14.9282 15.8159 15.6938 15.8159C15.6938 15.0504 15.6938 14.2848 15.6938 13.5671ZM13.3971 1.53362C14.1627 2.3231 14.9043 3.08865 15.6459 3.87812C15.6699 3.8542 15.6938 3.8542 15.6938 3.83027C15.6938 3.28004 15.7177 2.7298 15.6938 2.17956C15.6938 1.84463 15.3828 1.55755 15.0478 1.53362C14.5215 1.53362 13.9713 1.53362 13.3971 1.53362Z" fill="#2E4489"/>
<path d="M5.52637 9.04475C5.52637 6.7481 7.36847 4.90599 9.68904 4.92992C11.9139 4.92992 13.756 6.79594 13.756 9.06867C13.756 11.3175 11.89 13.1596 9.6412 13.1596C7.36848 13.1357 5.52637 11.2935 5.52637 9.04475ZM13.0383 9.04475C13.0623 7.17872 11.5311 5.64762 9.68904 5.6237C7.79909 5.6237 6.268 7.10695 6.268 8.97298C6.268 10.8629 7.75125 12.394 9.61728 12.394C11.5072 12.4419 13.0144 10.9347 13.0383 9.04475Z" fill="#FAB21E"/>
<path d="M10.1676 10.7912C10.335 10.7912 10.4547 10.7912 10.5982 10.7912C10.8135 10.8152 10.9571 10.9587 10.9571 11.174C10.9571 11.3654 10.7896 11.5089 10.5743 11.5089C10.0719 11.5089 9.54557 11.5089 9.04318 11.5089C8.82787 11.5089 8.68433 11.3654 8.68433 11.174C8.68433 10.9826 8.82787 10.8152 9.01925 10.8152C9.16279 10.8152 9.30633 10.8152 9.44987 10.8152C9.44987 10.0975 9.44987 9.40367 9.44987 8.70989C9.35418 8.70989 9.25848 8.70989 9.18671 8.68597C8.9714 8.66204 8.82786 8.5185 8.85179 8.32711C8.85179 8.13573 8.99533 7.99219 9.21064 7.99219C9.35418 7.99219 9.49772 7.99219 9.64126 7.99219C10.0001 7.99219 10.1915 8.2075 10.1915 8.54243C10.1915 9.23621 10.1915 9.92999 10.1915 10.6238C10.1676 10.6477 10.1676 10.6955 10.1676 10.7912Z" fill="#FAB21E"/>
<path d="M9.66535 6.5332C9.92851 6.5332 10.1438 6.74851 10.1199 7.01167C10.1199 7.25091 9.90458 7.46622 9.66535 7.46622C9.40219 7.46622 9.18688 7.25091 9.2108 6.98775C9.2108 6.7246 9.40219 6.5332 9.66535 6.5332Z" fill="#FAB21E"/>
</svg>
