<svg width="20" height="21" viewBox="0 0 20 21" fill="none" xmlns="http://www.w3.org/2000/svg">
<path d="M0 8.84944C0.0281009 8.76514 0.0702521 8.68084 0.098353 8.59654C0.309109 8.14692 0.66037 7.89402 1.15214 7.83781C1.60175 7.78161 2.03731 7.72541 2.48693 7.66921C2.61338 7.65516 2.66958 7.59896 2.72578 7.48655C2.83819 7.20554 2.95059 6.92454 3.07704 6.64353C3.11919 6.54517 3.11919 6.47492 3.04894 6.37657C2.76793 6.02531 2.48693 5.66 2.20592 5.29469C1.7563 4.71862 1.79845 4.0723 2.31832 3.55243C2.72578 3.14497 3.13325 2.73751 3.54071 2.33004C4.04652 1.82423 4.69284 1.78208 5.26891 2.21764C5.63422 2.49865 5.99953 2.77966 6.36484 3.07472C6.44915 3.14497 6.5194 3.14497 6.6037 3.10282C6.88471 2.97636 7.17977 2.84991 7.46078 2.75156C7.58723 2.70941 7.62938 2.63915 7.64343 2.5127C7.69963 2.02094 7.75584 1.52917 7.84014 1.03741C7.93849 0.447288 8.44431 0.0398263 9.03442 0.0257759C9.63859 0.0117255 10.2428 0.0257759 10.8469 0.0257759C11.5776 0.0257759 12.0834 0.47539 12.1677 1.19196C12.2239 1.64158 12.2801 2.07714 12.3363 2.52675C12.3503 2.65321 12.4065 2.69536 12.5189 2.73751C12.814 2.84991 13.095 2.96232 13.376 3.08877C13.4744 3.13092 13.5306 3.13092 13.6149 3.06067C13.9802 2.76561 14.3455 2.4846 14.7108 2.20359C15.2728 1.76803 15.9191 1.81018 16.4249 2.30194C16.8465 2.72346 17.268 3.14497 17.6895 3.56648C18.1672 4.05825 18.2094 4.70457 17.8019 5.25253C17.5209 5.6319 17.2258 5.99721 16.9448 6.36252C16.8746 6.44682 16.8746 6.51707 16.9167 6.62948C17.0432 6.91048 17.1696 7.20554 17.282 7.48655C17.3242 7.59896 17.3804 7.6411 17.4928 7.65516C17.9424 7.71136 18.378 7.76756 18.8276 7.82376C19.5441 7.90806 19.9938 8.41388 19.9938 9.1445C19.9938 9.73462 19.9938 10.3107 19.9938 10.9008C19.9938 11.5612 19.5863 12.067 18.9259 12.1653C18.4623 12.2496 17.9845 12.2918 17.5209 12.348C17.3804 12.3621 17.3242 12.4042 17.268 12.5447C17.1696 12.8257 17.0572 13.1067 16.9308 13.3737C16.8746 13.5001 16.8886 13.5704 16.9729 13.6687C17.2539 14.02 17.5349 14.3713 17.8019 14.7366C18.2375 15.3126 18.1953 15.959 17.7035 16.4648C17.2961 16.8863 16.8746 17.2937 16.4671 17.7012C15.9613 18.207 15.315 18.2492 14.7389 17.8136C14.3876 17.5467 14.0223 17.2656 13.6711 16.9846C13.5727 16.9003 13.5025 16.8863 13.376 16.9425C13.095 17.0689 12.814 17.1813 12.533 17.2937C12.4206 17.3359 12.3784 17.3921 12.3644 17.5186C12.3222 17.912 12.252 18.3054 12.2239 18.6988C12.1677 19.3873 11.8305 19.8369 11.156 20.0195C10.3973 20.0195 9.65264 20.0195 8.89392 20.0195C8.86582 20.0055 8.85177 19.9914 8.82367 19.9914C8.26165 19.8509 7.93849 19.4856 7.85419 18.9236C7.78394 18.474 7.72774 18.0103 7.68558 17.5467C7.67153 17.4062 7.61533 17.3499 7.48888 17.2937C7.20787 17.1954 6.94091 17.083 6.67395 16.9565C6.5475 16.9003 6.47725 16.9003 6.36484 16.9846C5.99953 17.2797 5.64827 17.5607 5.26891 17.8417C4.72094 18.2492 4.07462 18.207 3.58286 17.7293C3.16135 17.3078 2.73983 16.9003 2.33237 16.4788C1.82656 15.973 1.7844 15.3267 2.23402 14.7506C2.50098 14.3994 2.78198 14.0341 3.06299 13.6828C3.1473 13.5844 3.16135 13.5142 3.10514 13.3877C2.97869 13.1208 2.86629 12.8398 2.76793 12.5588C2.72578 12.4323 2.65553 12.3761 2.51503 12.362C2.06541 12.3199 1.62985 12.2496 1.18024 12.1934C0.857076 12.1513 0.562017 12.0389 0.365311 11.7719C0.224807 11.5893 0.140504 11.3504 0.0421513 11.1397C0 10.3809 0 9.60816 0 8.84944ZM17.282 4.47976C17.2118 4.36736 17.1556 4.2409 17.0713 4.1566C16.6779 3.74914 16.2844 3.36978 15.891 2.96231C15.6381 2.70941 15.4695 2.69536 15.1745 2.92016C14.7389 3.25737 14.3033 3.59458 13.8678 3.94584C13.6851 4.08635 13.5025 4.1004 13.2917 4.00205C12.8561 3.80534 12.4065 3.60863 11.9429 3.44003C11.69 3.35573 11.5776 3.20117 11.5495 2.94826C11.4932 2.4003 11.423 1.85233 11.3387 1.30437C11.2965 0.995256 11.142 0.868801 10.8329 0.85475C10.2709 0.85475 9.70885 0.85475 9.16088 0.85475C8.82367 0.85475 8.68316 0.981206 8.64101 1.30437C8.57076 1.85233 8.50051 2.4003 8.43026 2.94826C8.40215 3.20117 8.28975 3.34168 8.05089 3.42598C7.60128 3.59458 7.15167 3.77724 6.7161 3.97395C6.47725 4.08635 6.29459 4.0723 6.08383 3.91774C5.64827 3.56648 5.21271 3.24332 4.77715 2.90611C4.51019 2.70941 4.34158 2.70941 4.11678 2.94826C3.72336 3.34168 3.32995 3.73509 2.93654 4.1285C2.68363 4.38141 2.66958 4.55001 2.89439 4.83102C3.2316 5.26658 3.55476 5.70215 3.90602 6.12366C4.07462 6.32037 4.08867 6.51707 3.97627 6.75593C3.77956 7.17744 3.59691 7.62706 3.4283 8.06262C3.32995 8.31553 3.18945 8.44198 2.92249 8.47008C2.37452 8.52628 1.84061 8.59654 1.29264 8.66679C0.969479 8.70894 0.843026 8.86349 0.843026 9.18666C0.843026 9.73462 0.843026 10.2966 0.843026 10.8446C0.843026 11.1959 0.969479 11.3364 1.32074 11.3785C1.86871 11.4488 2.41667 11.519 2.96464 11.5893C3.2035 11.6174 3.32995 11.7298 3.41425 11.9546C3.58286 12.4042 3.76551 12.8538 3.96222 13.2894C4.07462 13.5282 4.06057 13.7249 3.89197 13.9357C3.54071 14.3713 3.2035 14.8068 2.86629 15.2424C2.66958 15.4953 2.68363 15.6639 2.90844 15.8887C3.30185 16.2821 3.69526 16.6755 4.08867 17.0689C4.34158 17.3218 4.51019 17.3359 4.80525 17.1111C5.25486 16.7739 5.69042 16.4226 6.12599 16.0854C6.29459 15.9449 6.4632 15.9449 6.67395 16.0292C7.12357 16.2259 7.58723 16.4226 8.05089 16.6053C8.28975 16.6896 8.40216 16.8301 8.41621 17.0689C8.47241 17.6169 8.54266 18.1649 8.62696 18.7128C8.66911 19.0501 8.82367 19.1765 9.16088 19.1765C9.70885 19.1765 10.2568 19.1765 10.8048 19.1765C11.1701 19.1765 11.3106 19.0501 11.3527 18.6847C11.423 18.1368 11.4932 17.5888 11.5635 17.0408C11.5916 16.816 11.704 16.6896 11.9288 16.6053C12.3925 16.4367 12.8421 16.24 13.2917 16.0433C13.5165 15.9449 13.6992 15.959 13.8818 16.0995C14.3174 16.4507 14.767 16.802 15.2166 17.1392C15.4555 17.3218 15.6381 17.3078 15.8489 17.097C16.2563 16.6896 16.6638 16.2821 17.0572 15.8887C17.282 15.6498 17.2961 15.4812 17.0994 15.2143C16.7481 14.7647 16.4109 14.3151 16.0596 13.8795C15.9191 13.6968 15.9051 13.5282 16.0034 13.3175C16.2001 12.8679 16.3968 12.4323 16.5655 11.9686C16.6638 11.7157 16.8043 11.5893 17.0713 11.5612C17.6192 11.505 18.1672 11.4347 18.7152 11.3504C19.0102 11.3083 19.1507 11.1537 19.1507 10.8446C19.1507 10.2826 19.1507 9.70652 19.1507 9.1445C19.1507 8.82134 19.0243 8.68084 18.7011 8.63869C18.1532 8.56843 17.5911 8.49818 17.0432 8.42793C16.8043 8.39983 16.6638 8.28743 16.5795 8.04857C16.4109 7.59896 16.2282 7.14934 16.0315 6.71378C15.9191 6.47492 15.9332 6.27822 16.1018 6.06746C16.4531 5.6319 16.7903 5.19633 17.1134 4.76077C17.1837 4.70457 17.2258 4.60621 17.282 4.47976Z" fill="#2E4489"/>
<path d="M14.1488 9.88919C14.2471 12.1513 12.4206 14.0762 10.1023 14.1746C7.8542 14.2729 5.91524 12.4464 5.83094 10.128C5.73259 7.86593 7.55914 5.94102 9.87746 5.84267C12.1396 5.75837 14.0504 7.57087 14.1488 9.88919ZM9.98987 13.3456C11.8305 13.3456 13.3058 11.8563 13.3058 10.0156C13.3058 8.17504 11.8305 6.68569 9.98987 6.68569C8.13521 6.68569 6.65992 8.17504 6.65992 10.0156C6.67397 11.8703 8.16331 13.3456 9.98987 13.3456Z" fill="#FAB21E"/>
</svg>
