<svg width="20" height="20" viewBox="0 0 20 20" fill="none" xmlns="http://www.w3.org/2000/svg">
<path d="M7.67237 16.8415C7.67237 17.6842 7.67237 18.4824 7.67237 19.2807C8.44848 19.2807 9.20242 19.2807 9.97853 19.2807C10.0894 19.059 9.86765 19.0146 9.73461 18.9038C9.84548 18.7264 9.95635 18.549 10.0894 18.3716C10.4442 18.549 10.7768 18.7264 11.1094 18.9038C11.0429 19.0812 10.9542 19.2807 10.8877 19.4803C10.8212 19.4581 10.7546 19.4581 10.6659 19.436C10.6659 19.5025 10.6659 19.569 10.6659 19.6355C10.6438 19.8351 10.5329 19.946 10.3333 19.9681C10.289 19.9681 10.2224 19.9681 10.1559 19.9681C6.94062 19.9681 3.70314 19.9681 0.487835 19.9681C0.088694 19.9681 0 19.8794 0 19.4581C0 16.3537 0 13.2271 0 10.1227C0 9.87874 0.0886967 9.70135 0.310442 9.59048C0.820455 9.30221 1.33047 8.96959 1.84048 8.68132C1.97353 8.6148 1.99571 8.52609 1.99571 8.39305C1.99571 6.72996 1.99571 5.08905 1.99571 3.42596C1.99571 3.11552 2.04005 3.04899 2.32832 2.93812C4.81187 1.96244 7.29541 0.986766 9.80113 0.0332618C9.93417 -0.0110873 10.1116 -0.0110873 10.2446 0.0332618C12.7282 1.00894 15.2339 1.98462 17.7174 2.93812C18.0057 3.04899 18.05 3.11552 18.05 3.42596C18.05 4.8673 18.05 6.30865 18.05 7.77216C18.05 7.83869 18.05 7.90521 18.05 7.97173C17.8283 7.97173 17.6066 7.97173 17.3848 7.97173C17.3848 7.88303 17.3848 7.81651 17.3848 7.74999C17.3848 6.41952 17.3848 5.08905 17.3848 3.7364C17.3848 3.58118 17.3405 3.51466 17.2074 3.47031C14.8569 2.56116 12.5286 1.652 10.1781 0.720669C10.0894 0.67632 9.97852 0.698495 9.88982 0.720669C7.53933 1.62982 5.21101 2.53898 2.86051 3.47031C2.77181 3.51466 2.68311 3.53683 2.68311 3.66988C2.68311 5.1334 2.68311 6.59691 2.68311 8.06043C2.68311 8.0826 2.68311 8.10478 2.70529 8.14913C2.77181 8.10478 2.83833 8.08261 2.90485 8.03826C3.63661 7.59477 4.36838 7.17345 5.10014 6.70779C5.29971 6.59692 5.45493 6.59692 5.63232 6.70779C6.58583 7.28433 7.51715 7.83869 8.47066 8.41522C8.53718 8.45957 8.6037 8.48175 8.67023 8.5261C10.3998 6.92953 12.4177 6.30864 14.7682 6.72996C14.7239 6.9517 14.6795 7.17345 14.6352 7.35085C11.6638 6.95171 9.33547 7.92738 7.98282 10.6548C6.7854 13.0497 7.25106 15.3337 8.9585 17.3959C8.80328 17.5289 8.64805 17.6842 8.49283 17.8394C8.35979 17.662 8.20457 17.5068 8.09369 17.3516C7.93847 17.1963 7.8276 17.0411 7.67237 16.8415ZM8.18239 9.03611C7.27324 8.48175 6.38625 7.97173 5.49927 7.41737C5.36623 7.32867 5.27753 7.35085 5.14448 7.41737C3.70314 8.28218 2.2618 9.14698 0.820453 10.0118C0.687406 10.1005 0.643059 10.167 0.643059 10.3222C0.643059 13.2271 0.643059 16.1319 0.643059 19.0368C0.643059 19.1033 0.643059 19.192 0.643059 19.2586C1.44134 19.2586 2.19527 19.2586 2.97138 19.2586C2.97138 19.1477 2.97138 19.0812 2.97138 18.9925C2.97138 16.7972 2.97138 14.5797 2.97138 12.3845C2.97138 12.0518 3.08225 11.941 3.41487 11.941C4.45707 11.941 5.49928 11.941 6.54148 11.941C6.608 11.941 6.6967 11.941 6.76322 11.941C7.02932 10.8544 7.49498 9.90092 8.18239 9.03611ZM3.68096 12.6284C3.68096 14.868 3.68096 17.0633 3.68096 19.2807C4.78969 19.2807 5.89841 19.2807 7.00714 19.2807C7.00714 19.192 7.00714 19.1255 7.00714 19.0368C7.00714 17.9724 7.00714 16.8859 7.00714 15.8215C7.00714 15.5554 6.94061 15.2671 6.89627 15.0011C6.82974 14.6463 6.74105 14.2915 6.71887 13.9367C6.6967 13.4932 6.71887 13.0719 6.71887 12.6284C5.67667 12.6284 4.67882 12.6284 3.68096 12.6284Z" fill="#2E4489"/>
<path d="M11.5087 11.2748C12.1295 11.8957 12.7282 12.4944 13.3491 13.1153C13.5487 12.9601 13.7039 12.8049 13.6818 12.4944C13.6596 12.0731 13.6818 11.6518 13.6818 11.2527C13.6818 10.9644 13.7926 10.7205 13.9922 10.4987C14.347 10.1439 14.7018 9.78915 15.0566 9.41218C15.2118 9.25696 15.367 9.23479 15.5666 9.34566C15.9657 9.54523 16.3649 9.7448 16.764 9.94437C17.0744 10.0996 17.1188 10.3213 16.8749 10.5653C16.5866 10.8757 16.2983 11.1861 15.9657 11.4522C15.6996 11.674 15.6331 11.9179 15.7218 12.2505C15.9879 12.2727 16.254 12.2949 16.4757 12.0288C16.764 11.6962 17.0966 11.4079 17.4071 11.0974C17.6732 10.8314 17.8949 10.8757 18.0501 11.1861C18.2497 11.5853 18.4493 11.9623 18.6488 12.3614C18.7597 12.561 18.7154 12.7162 18.5601 12.8714C18.2053 13.2262 17.8506 13.581 17.5179 13.9358C17.2962 14.1575 17.0301 14.2684 16.7197 14.2684C16.3205 14.2684 15.9214 14.2684 15.5222 14.2684C15.1231 14.2684 15.1231 14.2684 14.857 14.6232C15.2561 15.0223 15.6331 15.3993 16.0322 15.7984C16.2983 16.0645 16.4314 16.375 16.3649 16.7519C16.2983 17.1511 16.0544 17.4394 15.6775 17.5724C15.2783 17.7055 14.9235 17.6168 14.6353 17.3285C14.2805 16.9737 13.9257 16.6189 13.5709 16.2641C13.5265 16.2198 13.4822 16.1311 13.4157 16.0645C13.327 16.1311 13.2826 16.1754 13.2383 16.2198C12.8835 16.5746 12.5287 16.9293 12.1517 17.2841C11.7082 17.7054 11.0873 17.7276 10.666 17.3063C10.2447 16.885 10.2447 16.2641 10.6882 15.8206C11.0652 15.4215 11.4643 15.0223 11.8634 14.6454C11.8634 14.6454 11.8634 14.6232 11.8634 14.6454C11.3534 14.1354 10.8656 13.6475 10.3334 13.1153C10.1338 13.3149 9.91208 13.5366 9.69034 13.7584C9.42425 14.0245 9.2912 14.0245 9.00293 13.7584C8.71466 13.4701 8.44857 13.204 8.1603 12.9158C7.93855 12.694 7.96073 12.5388 8.1603 12.317C8.40422 12.0731 8.62597 11.8514 8.86989 11.6075C8.95858 11.5188 9.0251 11.4079 9.00293 11.2748C8.9364 10.92 9.1138 10.6761 9.35772 10.4322C9.95643 9.8335 10.6217 9.34566 11.4643 9.16826C12.1295 9.03522 12.7726 9.05739 13.4157 9.27914C13.5709 9.32348 13.6818 9.43436 13.6818 9.61175C13.6818 9.78915 13.5709 9.90002 13.4157 9.94437C12.6174 10.1661 12.0408 10.6761 11.5087 11.2748ZM15.4114 10.0109C15.1009 10.3213 14.8127 10.6096 14.5244 10.8979C14.3913 11.0088 14.347 11.1418 14.347 11.3192C14.347 11.807 14.347 12.2949 14.347 12.8049C14.347 13.0045 14.2805 13.1375 14.1474 13.2927C13.1717 14.2684 12.1961 15.2441 11.2204 16.2198C11.176 16.2641 11.1095 16.3306 11.0652 16.3972C10.9543 16.5524 10.9765 16.7076 11.1095 16.8628C11.2426 16.9959 11.3978 17.018 11.553 16.9293C11.6195 16.885 11.686 16.8185 11.7304 16.7741C12.7061 15.7984 13.6817 14.8228 14.6574 13.8471C14.7905 13.714 14.9235 13.6697 15.1009 13.6697C15.6109 13.6697 16.121 13.6697 16.631 13.6697C16.7418 13.6697 16.8749 13.6253 16.9636 13.5366C17.274 13.2484 17.5401 12.9601 17.8284 12.6718C17.8506 12.6275 17.8949 12.561 17.8949 12.5388C17.8062 12.3392 17.6953 12.1175 17.5623 11.8957C17.2297 12.2283 16.9192 12.561 16.6088 12.8492C16.5201 12.9379 16.3649 12.9823 16.254 13.0045C15.9657 13.0266 15.6775 13.0045 15.3892 13.0045C15.1231 13.0045 15.0122 12.8714 15.0122 12.6275C15.0122 12.3614 15.0122 12.0953 15.0122 11.8292C15.0122 11.6296 15.0566 11.4744 15.2118 11.3414C15.5222 11.0531 15.8105 10.7648 16.1209 10.4322C15.877 10.2548 15.6553 10.1439 15.4114 10.0109ZM8.82554 12.5831C9.00293 12.7605 9.18033 12.9379 9.3799 13.1375C9.60164 12.9158 9.84556 12.6718 10.0673 12.4279C10.2447 12.2505 10.4221 12.2505 10.5995 12.4279C10.666 12.4944 10.7104 12.6053 10.7547 12.6497C10.9765 12.4279 11.1317 12.2727 11.3091 12.0953C11.3091 12.0953 11.3091 12.0731 11.2869 12.0731C11.1317 11.9179 10.9765 11.7627 10.8212 11.6075C10.5773 11.3635 10.5773 11.2083 10.8212 10.9644C11.2204 10.5653 11.6417 10.1661 12.063 9.76698C11.9521 9.76698 11.8191 9.78915 11.7082 9.78915C10.9765 9.90003 10.3999 10.277 9.88991 10.8092C9.71251 10.9866 9.57947 11.1861 9.62382 11.4301C9.66817 11.6518 9.5573 11.807 9.40207 11.9623C9.22468 12.1618 9.02511 12.3836 8.82554 12.5831ZM13.837 15.621C14.2361 16.0202 14.6353 16.4415 15.0566 16.8406C15.2118 16.9959 15.4114 16.9959 15.5666 16.8628C15.7218 16.7298 15.744 16.508 15.6109 16.3528C15.2118 15.9315 14.7683 15.5324 14.3692 15.1332C14.1918 15.2884 14.0144 15.4436 13.837 15.621ZM11.8634 12.6275C11.686 12.8049 11.5087 12.9601 11.3756 13.0932C11.7082 13.4258 12.0187 13.7584 12.3291 14.0467C12.4843 13.8914 12.6617 13.7362 12.8391 13.581C12.5065 13.2706 12.1739 12.9379 11.8634 12.6275Z" fill="#FAB21E"/>
<path d="M10.0006 2.60547C11.1759 2.60547 12.3733 2.60547 13.5486 2.60547C13.9034 2.60547 14.0142 2.71634 14.0142 3.07113C14.0142 3.89159 14.0142 4.68987 14.0142 5.51033C14.0142 5.84295 13.9034 5.95382 13.5707 5.95382C11.1981 5.95382 8.8254 5.95382 6.43055 5.95382C6.09793 5.95382 5.98706 5.84295 5.98706 5.51033C5.98706 4.68987 5.98706 3.86942 5.98706 3.04896C5.98706 2.71634 6.09793 2.60547 6.43055 2.60547C7.62797 2.60547 8.82539 2.60547 10.0006 2.60547ZM10.9985 5.26641C10.9985 4.60117 10.9985 3.93594 10.9985 3.29288C10.3333 3.29288 9.66802 3.29288 9.02496 3.29288C9.02496 3.95811 9.02496 4.60117 9.02496 5.26641C9.66802 5.26641 10.3333 5.26641 10.9985 5.26641ZM8.31538 5.26641C8.31538 4.60117 8.31538 3.93594 8.31538 3.29288C7.76102 3.29288 7.20665 3.29288 6.67446 3.29288C6.67446 3.95811 6.67446 4.62335 6.67446 5.26641C7.22883 5.26641 7.76102 5.26641 8.31538 5.26641ZM11.6859 5.26641C12.2403 5.26641 12.7946 5.26641 13.3268 5.26641C13.3268 4.60117 13.3268 3.93594 13.3268 3.29288C12.7725 3.29288 12.2181 3.29288 11.6859 3.29288C11.6859 3.95811 11.6859 4.60117 11.6859 5.26641Z" fill="#2E4489"/>
<path d="M11.5972 19.7021C11.6637 19.4804 11.708 19.2808 11.7746 19.0813C13.3268 19.4582 14.8125 19.303 16.2095 18.5491C17.296 17.9504 18.1386 17.0856 18.693 15.999C19.8239 13.8259 19.5356 10.8767 17.4512 8.90317C17.5843 8.74794 17.7395 8.59272 17.8726 8.4375C19.713 10.0562 20.7774 13.2715 19.3139 16.2208C17.7839 19.3474 14.369 20.5004 11.5972 19.7021Z" fill="#2E4489"/>
<path d="M16.1875 7.9712C15.877 7.83815 15.5888 7.70511 15.2783 7.57206C15.3448 7.37249 15.4114 7.17292 15.4779 6.95117C15.8327 7.10639 16.1431 7.23944 16.4979 7.39466C16.387 7.59423 16.2983 7.77163 16.1875 7.9712Z" fill="#2E4489"/>
</svg>
