<svg width="20" height="21" viewBox="0 0 20 21" fill="none" xmlns="http://www.w3.org/2000/svg">
<path d="M19.2407 0C19.2905 0.016594 19.3237 0.0497821 19.3735 0.0663762C19.7551 0.232317 19.9875 0.514415 19.9875 0.912673C20.004 1.80875 20.004 2.70483 19.9875 3.60091C19.9875 4.09873 19.6224 4.44721 19.1412 4.51358C19.0914 4.51358 19.025 4.53017 18.9586 4.53017C18.3778 4.4472 17.8966 4.64633 17.4154 4.97821C16.7018 5.47604 15.9551 5.90748 15.2084 6.37211C15.1586 6.4053 15.1088 6.4219 15.0258 6.47168C15.142 5.80792 15.2416 5.19394 15.3577 4.53017C15.1088 4.53017 14.8765 4.53017 14.6442 4.53017C13.8974 4.53017 13.5158 4.14851 13.5158 3.41837C13.5158 2.68824 13.5324 1.9581 13.5158 1.22796C13.4992 0.630574 13.7149 0.199129 14.2957 0.016594C15.9551 0 17.5979 0 19.2407 0ZM16.1376 3.88301C16.1044 4.11532 16.0713 4.31445 16.0381 4.51358C16.0049 4.71271 15.9717 4.92843 15.9219 5.16075C16.0049 5.11097 16.0547 5.09437 16.121 5.06118C16.4695 4.84546 16.8346 4.64633 17.1665 4.39742C17.6975 3.99917 18.2783 3.81663 18.942 3.88301C19.2573 3.9162 19.3735 3.78344 19.3735 3.46816C19.3735 2.67164 19.3735 1.87513 19.3735 1.07861C19.3735 0.763326 19.2739 0.647168 18.9586 0.647168C17.5149 0.647168 16.0713 0.647168 14.6276 0.647168C14.2957 0.647168 14.1961 0.746732 14.1961 1.06202C14.1961 1.85853 14.1961 2.65505 14.1961 3.45156C14.1961 3.78344 14.2957 3.88301 14.6276 3.88301C15.1088 3.88301 15.6066 3.88301 16.1376 3.88301Z" fill="#FAB21E"/>
<path d="M16.2373 17.4572C13.9307 17.4572 11.6573 17.4572 9.31756 17.4572C9.51669 17.6232 9.66603 17.7559 9.84857 17.9053C9.25118 18.4529 8.70358 18.9507 8.15598 19.4485C7.70794 19.8468 7.19352 20.0459 6.59613 20.0293C6.04853 20.0127 5.53412 19.8468 5.13586 19.4485C4.10703 18.4363 3.09479 17.4241 2.08256 16.4118C1.63452 15.9638 1.16988 15.5157 0.721841 15.0511C-0.240614 14.0886 -0.240614 12.7113 0.721841 11.7323C1.18647 11.2677 1.63452 10.803 2.09915 10.355C2.89566 11.1515 3.69218 11.948 4.48869 12.7445C4.4555 12.7777 4.40572 12.8275 4.37253 12.8773C4.00746 13.2423 3.65899 13.5908 3.29392 13.9559C3.09479 14.155 3.09479 14.321 3.29392 14.5201C3.6258 14.8686 3.97428 15.2004 4.33935 15.5655C4.40572 15.3996 4.43891 15.2668 4.48869 15.1341C4.80398 14.321 5.38477 13.8231 6.24766 13.6572C6.94461 13.5244 7.65815 13.3917 8.42148 13.2589C8.3551 13.1594 8.32191 13.0764 8.25554 13.0266C7.5254 12.5454 7.06077 11.8982 6.84504 11.0519C6.82845 10.9856 6.76207 10.9026 6.6957 10.886C6.11491 10.6703 5.79962 10.2222 5.79962 9.60825C5.79962 8.86152 5.79962 8.11479 5.79962 7.35146C5.81621 5.21083 7.45903 3.41867 9.54988 3.20295C11.7237 2.98723 13.6984 4.43091 14.1132 6.55495C14.163 6.85364 14.1962 7.15233 14.1962 7.45103C14.2128 8.67899 14.1962 9.92354 14.1962 11.1515C14.1962 11.8319 13.798 12.2467 13.1176 12.2301C12.7691 12.2135 12.487 12.2633 12.2547 12.5786C12.1385 12.7445 11.9228 12.8607 11.7569 13.01C11.7071 13.0598 11.6573 13.1262 11.6241 13.1926C11.6905 13.2258 11.7569 13.2755 11.8233 13.2921C12.4704 13.4083 13.1176 13.5244 13.7648 13.6572C14.6277 13.8231 15.225 14.3376 15.5071 15.1673C15.756 15.8808 15.9884 16.5943 16.2207 17.2913C16.2207 17.3743 16.2207 17.3909 16.2373 17.4572ZM7.40925 15.5489C7.79091 15.9306 8.15597 16.2957 8.52104 16.6773C8.62061 16.7769 8.72017 16.8101 8.85292 16.8101C10.9438 16.8101 13.0346 16.8101 15.1089 16.8101C15.1753 16.8101 15.2416 16.8101 15.3412 16.8101C15.1753 16.3122 15.0259 15.8476 14.86 15.3996C14.6442 14.8188 14.2128 14.4537 13.5988 14.3376C12.9019 14.2048 12.2049 14.0721 11.508 13.9559C11.425 13.9393 11.3088 13.9891 11.2591 14.0389C10.8608 14.4205 10.4791 14.8022 10.0975 15.2004C10.0643 15.2336 10.0145 15.2834 9.96473 15.3166C9.53328 14.8852 9.11843 14.4537 8.68698 14.0389C8.62061 13.9891 8.52104 13.9393 8.43807 13.9559C7.74112 14.0721 7.04417 14.2048 6.34722 14.3376C5.73324 14.4537 5.3018 14.8188 5.08608 15.4162C5.0197 15.5987 4.96992 15.7978 4.88695 15.997C4.85376 16.0965 4.87035 16.1629 4.95332 16.2293C5.13586 16.3952 5.3018 16.5612 5.46774 16.7437C5.71665 16.9926 5.8494 16.9926 6.09831 16.7603C6.52976 16.3454 6.96121 15.9638 7.40925 15.5489ZM13.4993 8.56283C13.4993 8.01522 13.5656 7.46762 13.4827 6.92002C13.2835 5.55931 12.5202 4.61344 11.2425 4.11562C9.94813 3.6178 8.73676 3.85012 7.67475 4.7296C6.46338 5.74184 6.33063 7.10255 6.44679 8.54623C6.54635 8.51305 6.64592 8.46326 6.74548 8.43008C6.74548 8.3637 6.74548 8.31392 6.74548 8.24754C6.74548 8.19776 6.74548 8.13138 6.76207 8.06501C8.073 8.14798 9.13503 7.63356 9.98132 6.62132C10.8276 7.63356 11.8896 8.14798 13.2172 8.06501C13.2172 8.21435 13.2172 8.31392 13.2172 8.43008C13.3167 8.47986 13.4163 8.52964 13.4993 8.56283ZM10.0145 7.61697C9.59966 7.86588 9.21799 8.16457 8.78655 8.34711C8.3551 8.54623 7.87388 8.6292 7.39265 8.77855C7.39265 9.25978 7.39265 9.77419 7.39265 10.2886C7.39265 11.8816 8.6372 13.0266 10.2136 12.9105C10.7446 12.8773 11.2093 12.6616 11.6075 12.2799C11.0599 12.2799 10.5289 12.2799 9.98132 12.2799C9.98132 12.0476 9.98132 11.8484 9.98132 11.6327C10.6783 11.6327 11.342 11.6327 12.0058 11.6327C12.1717 11.6327 12.2381 11.5829 12.3045 11.4502C12.4704 11.1017 12.5534 10.7366 12.5534 10.355C12.5534 9.87376 12.5534 9.37594 12.5534 8.89471C12.5534 8.76196 12.5036 8.71217 12.3709 8.71217C11.6905 8.6458 11.0765 8.41348 10.5123 8.03182C10.3464 7.88247 10.1639 7.73313 10.0145 7.61697ZM1.28604 12.114C0.472929 12.8275 0.423151 13.8563 1.18648 14.6197C1.93321 15.3664 2.69653 16.1297 3.44326 16.8764C4.12362 17.5568 4.78738 18.2372 5.48433 18.9009C6.19788 19.6145 7.35946 19.5315 7.92366 18.7516C7.44243 18.2538 6.94461 17.7725 6.46338 17.2747C5.93237 17.6398 5.46774 17.6398 5.08608 17.2415C4.32275 16.4782 3.55942 15.7149 2.7961 14.9515C2.4974 14.6528 2.41444 14.2878 2.58038 13.8895C2.63016 13.7734 2.71313 13.6738 2.76291 13.5742C2.26509 13.093 1.78386 12.6118 1.28604 12.114ZM8.83633 17.9551C8.33851 17.4572 7.85728 16.9594 7.35946 16.4616C7.2433 16.5778 7.11055 16.6939 6.9778 16.8101C7.47562 17.3079 7.95685 17.7891 8.47126 18.2869C8.58742 18.1874 8.72017 18.0546 8.83633 17.9551ZM3.55942 12.7943C3.0616 12.2965 2.58038 11.8153 2.09915 11.334C1.99959 11.4336 1.88342 11.5332 1.78386 11.6327C2.28168 12.1305 2.76291 12.6118 3.24414 13.093C3.3603 12.9934 3.45986 12.8773 3.55942 12.7943ZM9.05205 13.4415C9.38394 13.7734 9.69922 14.0721 9.96473 14.3542C10.2634 14.0555 10.5621 13.7402 10.8442 13.4581C10.2966 13.624 9.68263 13.624 9.05205 13.4415ZM12.9683 11.6161C13.5159 11.6991 13.5988 11.4668 13.4993 10.8196C13.3665 10.886 13.2006 10.9358 13.1508 11.0353C13.0512 11.2013 13.018 11.417 12.9683 11.6161ZM6.74548 10.2388C6.74548 10.0397 6.74548 9.87376 6.74548 9.69122C6.74548 9.52528 6.74548 9.34275 6.74548 9.16021C6.38041 9.30956 6.29744 9.98992 6.74548 10.2388ZM13.2172 10.2554C13.4495 10.0895 13.549 9.90695 13.5324 9.65804C13.5159 9.44231 13.4329 9.27637 13.2172 9.16021C13.2172 9.52528 13.2172 9.87376 13.2172 10.2554Z" fill="#2E4489"/>
<path d="M1.13669 9.17615C0.755031 8.54558 0.389964 7.915 0.00830078 7.28443C0.190835 7.16827 0.373368 7.06871 0.555902 6.95255C0.755031 7.28443 0.954161 7.59972 1.15329 7.94819C1.9664 4.96126 3.72537 2.83723 6.56295 1.64245C8.53764 0.812751 10.5787 0.762969 12.653 1.36036C12.5866 1.57608 12.5368 1.75861 12.4704 1.97433C9.51669 1.17782 6.82845 1.69224 4.4721 3.66693C3.04501 4.8617 2.09915 6.62067 1.85024 7.98138C2.13234 7.81544 2.41443 7.6495 2.69653 7.48356C2.81269 7.66609 2.91226 7.84863 3.02841 8.03116C2.39784 8.41283 1.78386 8.79449 1.13669 9.17615Z" fill="#2E4489"/>
<path d="M17.9466 7.30118C17.7475 7.64965 17.565 7.93175 17.3658 8.24704C17.1833 8.13088 17.0008 8.03132 16.8182 7.91516C17.1999 7.28459 17.565 6.65401 17.9466 6.02344C18.5772 6.4051 19.2078 6.78676 19.8383 7.15183C19.7222 7.35096 19.6226 7.5169 19.5065 7.69944C19.1912 7.5169 18.8925 7.33437 18.5772 7.15183C19.5065 10.2715 18.9755 13.1257 17.0174 15.731C16.8348 15.5816 16.6855 15.4489 16.5195 15.3161C18.3449 12.8934 18.8427 10.2383 17.9466 7.30118Z" fill="#2E4489"/>
<path d="M18.6931 1.92354C17.4153 1.92354 16.121 1.92354 14.8433 1.92354C14.8433 1.70782 14.8433 1.50869 14.8433 1.29297C16.121 1.29297 17.3987 1.29297 18.6931 1.29297C18.6931 1.50869 18.6931 1.70782 18.6931 1.92354Z" fill="#FAB21E"/>
<path d="M17.399 2.60547C17.399 2.82119 17.399 3.02032 17.399 3.23604C16.5361 3.23604 15.6898 3.23604 14.8269 3.23604C14.8269 3.02032 14.8269 2.82119 14.8269 2.60547C15.6898 2.60547 16.5361 2.60547 17.399 2.60547Z" fill="#FAB21E"/>
<path d="M18.6931 2.58984C18.6931 2.80557 18.6931 3.00469 18.6931 3.22042C18.4774 3.22042 18.2782 3.22042 18.0791 3.22042C18.0791 3.00469 18.0791 2.80557 18.0791 2.58984C18.2782 2.58984 18.4774 2.58984 18.6931 2.58984Z" fill="#FAB21E"/>
</svg>
