<svg width="20" height="21" viewBox="0 0 20 21" fill="none" xmlns="http://www.w3.org/2000/svg">
<path d="M0.0181812 11.8301C0.0909016 11.6665 0.145441 11.5029 0.236342 11.3574C0.472683 11.0302 0.818103 10.9029 1.21807 10.9029C1.98163 10.9029 2.76338 10.9029 3.52694 10.9029C3.87236 10.9029 4.16324 10.9938 4.41776 11.2302C4.45412 11.2665 4.52684 11.2847 4.54502 11.2665C5.12678 10.9393 5.78127 10.6848 6.18123 10.1212C6.39939 9.81213 6.58119 9.48489 6.72663 9.13947C7.01751 8.43045 7.25386 7.68507 7.52656 6.95786C7.672 6.5579 7.81744 6.48518 8.2174 6.61244C8.38102 6.66698 8.56282 6.70334 8.72645 6.77606C9.30821 6.97604 9.74453 7.37601 9.99905 7.93959C10.0536 8.04867 10.1081 8.08503 10.2354 8.08503C11.1444 8.08503 12.0534 8.08503 12.9624 8.08503C13.1806 8.08503 13.3442 8.15775 13.4896 8.30319C13.8714 8.70315 14.2532 9.08493 14.6713 9.50307C14.7804 9.37581 14.8895 9.26673 14.9986 9.15765C15.2713 8.86677 15.5622 8.59407 15.8349 8.32137C15.9803 8.15775 16.1439 8.08503 16.3621 8.10321C17.1438 8.10321 17.9256 8.10321 18.7073 8.10321C19.0891 8.10321 19.2164 7.95777 19.2164 7.59417C19.2164 5.50346 19.2164 3.41274 19.2164 1.32203C19.2164 0.976613 19.0709 0.831173 18.7073 0.831173C13.5987 0.831173 8.4901 0.831173 3.36332 0.831173C2.99971 0.831173 2.87245 0.976613 2.87245 1.32203C2.87245 3.41274 2.87245 5.50346 2.87245 7.59417C2.87245 7.95777 3.01789 8.08503 3.36332 8.08503C3.54512 8.08503 3.7451 8.08503 3.9269 8.08503C4.16324 8.08503 4.34504 8.24865 4.34504 8.46681C4.34504 8.68497 4.18142 8.84859 3.9269 8.86677C3.69056 8.86677 3.4724 8.86677 3.23606 8.86677C2.58157 8.84859 2.10889 8.35773 2.07253 7.70325C2.07253 7.52145 2.07253 7.33964 2.07253 7.15784C2.07253 5.26712 2.07253 3.39456 2.07253 1.50384C2.07253 0.613011 2.25433 0.358492 3.05426 0.03125C8.36284 0.03125 13.6896 0.03125 18.9982 0.03125C19.7981 0.358492 19.9799 0.631191 19.9799 1.50384C19.9799 3.52183 19.9799 5.558 19.9799 7.57599C19.9799 8.37591 19.4891 8.84859 18.7073 8.84859C17.9801 8.84859 17.2529 8.84859 16.5257 8.84859C16.4348 8.84859 16.3257 8.90313 16.253 8.95767C15.8349 9.35763 15.4349 9.7576 15.0349 10.1757C14.7259 10.4848 14.5441 10.4848 14.2532 10.1757C13.8532 9.77578 13.4533 9.35763 13.0351 8.95767C12.9624 8.88495 12.8533 8.84859 12.7442 8.84859C11.9807 8.83041 11.2171 8.84859 10.4536 8.84859C10.3627 8.84859 10.2718 8.84859 10.1809 8.84859C10.199 8.86677 10.2172 8.86677 10.2354 8.88495C10.0354 9.53944 9.83543 10.2121 9.63545 10.8848C9.70817 10.8848 9.78089 10.8848 9.85361 10.8848C10.7808 10.8848 11.708 10.8848 12.6533 10.8848C13.3987 10.8848 13.9441 11.2847 14.1441 11.9756C14.2532 12.3392 14.1805 12.7028 14.0168 13.03C15.3076 13.5027 15.3985 15.2298 14.0896 15.7934C14.3077 16.1933 14.3441 16.6115 14.1805 17.0296C14.0169 17.4478 13.6896 17.7205 13.3442 17.8659C13.3805 18.175 13.4714 18.4477 13.4533 18.7022C13.3987 19.5021 12.7806 20.0293 11.9625 20.0293C10.399 20.0293 8.81734 20.0112 7.25386 20.0293C6.36303 20.0475 5.49039 19.9384 4.67228 19.5748C4.58138 19.5385 4.52684 19.5385 4.45412 19.6294C4.23596 19.9021 3.9269 20.0293 3.58148 20.0293C2.76337 20.0293 1.94527 20.0293 1.12716 20.0293C0.727203 20.0293 0.399962 19.8475 0.181801 19.5021C0.109081 19.3749 0.0727204 19.2294 0 19.084C0.0181801 16.6842 0.0181812 14.2663 0.0181812 11.8301ZM8.18104 7.44873C7.92652 8.13957 7.69018 8.79405 7.45384 9.48489C7.18114 10.2485 6.72663 10.8848 6.03579 11.3393C5.67219 11.5756 5.29041 11.7756 4.90862 11.9756C4.78136 12.0483 4.745 12.121 4.745 12.2664C4.745 14.2481 4.745 16.2115 4.745 18.1932C4.745 18.3568 4.745 18.5204 4.745 18.684C4.745 18.7386 4.79954 18.8113 4.8359 18.8295C5.47221 19.1203 6.14487 19.3021 6.85389 19.284C7.61746 19.284 8.3992 19.284 9.16277 19.284C10.1081 19.284 11.0353 19.284 11.9807 19.284C12.1079 19.284 12.2534 19.2476 12.3806 19.1931C12.6352 19.0658 12.7624 18.7749 12.7079 18.5022C12.6533 18.2113 12.417 17.9932 12.1261 17.975C11.6534 17.9568 11.1808 17.975 10.7263 17.9568C10.4536 17.9568 10.2899 17.7932 10.2899 17.5569C10.2899 17.3387 10.4536 17.1933 10.7263 17.1751C10.8717 17.1751 11.0171 17.1751 11.1626 17.1751C11.708 17.1751 12.2352 17.1933 12.7806 17.1751C12.9442 17.1751 13.126 17.1205 13.2715 17.0296C13.5078 16.8842 13.5805 16.5751 13.4896 16.3206C13.3987 16.0479 13.1624 15.8661 12.8533 15.8661C12.1807 15.8661 11.508 15.8661 10.8353 15.8661C10.7626 15.8661 10.6899 15.8661 10.6172 15.8661C10.4354 15.8297 10.2899 15.7025 10.2899 15.5207C10.2717 15.3207 10.3808 15.1753 10.5808 15.1207C10.6535 15.1025 10.7444 15.1025 10.8353 15.1025C11.7625 15.1025 12.6715 15.1025 13.5987 15.1025C13.9078 15.1025 14.1441 14.9389 14.235 14.6844C14.3986 14.2481 14.0896 13.8118 13.5987 13.8118C12.6715 13.8118 11.7625 13.8118 10.8353 13.8118C10.7444 13.8118 10.6535 13.8118 10.5626 13.7936C10.3808 13.7572 10.2718 13.5936 10.2718 13.4118C10.2718 13.23 10.4172 13.0846 10.599 13.0482C10.6717 13.03 10.7444 13.0482 10.8172 13.0482C11.4353 13.0482 12.0352 13.0482 12.6533 13.0482C12.7442 13.0482 12.8533 13.0482 12.9442 13.0118C13.2715 12.9391 13.4714 12.6119 13.4169 12.2846C13.3624 11.9392 13.0897 11.7392 12.6715 11.7392C11.5262 11.7392 10.3808 11.7392 9.23549 11.7392C8.7628 11.7392 8.61736 11.5392 8.7628 11.1029C8.9446 10.5575 9.1264 10.0121 9.3082 9.46672C9.63545 8.50317 9.1264 7.63053 8.18104 7.44873ZM1.98163 11.6847C1.69075 11.6847 1.45441 11.6847 1.19989 11.6847C0.909006 11.6847 0.781744 11.8119 0.781744 12.1028C0.781744 14.3572 0.781744 16.5933 0.781744 18.8476C0.781744 19.1385 0.909004 19.2476 1.18171 19.2658C1.96345 19.2658 2.76337 19.2658 3.54512 19.2658C3.81782 19.2658 3.94508 19.1385 3.94508 18.8658C3.94508 16.6115 3.94508 14.339 3.94508 12.0846C3.94508 11.8301 3.81782 11.7029 3.5633 11.6847C3.36332 11.6847 3.16334 11.7029 2.98154 11.6847C2.79974 11.6665 2.76337 11.7392 2.76337 11.921C2.76337 13.3936 2.76337 14.848 2.76337 16.3206C2.76337 16.4115 2.76337 16.5024 2.74519 16.5933C2.70883 16.7751 2.56339 16.9024 2.36341 16.9024C2.18161 16.9024 2.01799 16.7751 1.99981 16.5933C1.98163 16.5024 1.98163 16.4115 1.98163 16.3206C1.98163 14.8662 1.98163 13.43 1.98163 11.9756C1.98163 11.8847 1.98163 11.7938 1.98163 11.6847Z" fill="#2E4489"/>
<path d="M16.162 2.32227C16.3983 2.32227 16.5801 2.43135 16.6892 2.63133C16.7801 2.81313 16.871 2.99493 16.9619 3.15855C16.9982 3.23127 17.0891 3.28581 17.1619 3.30399C17.3255 3.34035 17.4891 3.35853 17.6709 3.37671C17.9254 3.41307 18.1254 3.54033 18.2163 3.79485C18.3072 4.04938 18.2345 4.28572 18.0345 4.46752C17.9254 4.5766 17.8345 4.68568 17.7073 4.77658C17.58 4.88566 17.5618 4.99474 17.5982 5.15836C17.6345 5.32198 17.6709 5.50378 17.6709 5.68558C17.7073 6.15826 17.2528 6.48551 16.8164 6.30371C16.6165 6.23099 16.4528 6.10373 16.2529 6.03101C16.1801 5.99465 16.0892 6.01283 16.0347 6.03101C15.8529 6.10373 15.7075 6.19463 15.5257 6.28553C15.2893 6.39461 15.0712 6.37643 14.8712 6.23098C14.6712 6.08554 14.5985 5.86738 14.6348 5.61286C14.6348 5.5765 14.6348 5.54014 14.653 5.50378C14.8166 5.08564 14.653 4.79476 14.3258 4.54024C14.0349 4.3039 13.9803 4.04937 14.1076 3.77667C14.1985 3.55851 14.3803 3.39489 14.6167 3.41307C15.1257 3.41307 15.4166 3.19491 15.5802 2.72223C15.7075 2.43135 15.9256 2.32227 16.162 2.32227ZM15.4711 5.41288C15.7256 5.32198 15.9438 5.19472 16.1801 5.19472C16.3983 5.19472 16.6346 5.34016 16.8346 5.3947C16.8346 5.17654 16.7801 4.92202 16.8528 4.70386C16.9255 4.4857 17.1255 4.32208 17.2891 4.10391C16.6892 4.15846 16.3619 3.86757 16.1801 3.32217C16.0165 3.88575 15.6529 4.15845 15.053 4.14027C15.5438 4.46752 15.6529 4.90384 15.4711 5.41288Z" fill="#FAB21E"/>
<path d="M4.70845 5.6493C4.72663 5.50385 4.78117 5.2857 4.79935 5.08571C4.79935 5.01299 4.78117 4.92209 4.72663 4.86755C4.59937 4.72211 4.47211 4.61303 4.34485 4.48577C4.16304 4.30397 4.09032 4.06763 4.18122 3.83129C4.27212 3.57677 4.45392 3.4495 4.72663 3.41314C4.87207 3.39496 5.01751 3.35861 5.14477 3.35861C5.34475 3.35861 5.41747 3.24952 5.49019 3.10408C5.56291 2.94046 5.63563 2.79502 5.72653 2.64958C5.98105 2.24962 6.52646 2.24962 6.78098 2.64958C6.89006 2.83138 6.96278 3.03136 7.07186 3.19498C7.10822 3.24952 7.18094 3.30406 7.25366 3.32224C7.41728 3.3586 7.59908 3.37679 7.78088 3.39497C8.0354 3.43133 8.23538 3.57677 8.3081 3.81311C8.399 4.06763 8.32628 4.28579 8.14448 4.46759C8.10812 4.50395 8.08994 4.52213 8.05358 4.54031C7.6718 4.77665 7.61726 5.10389 7.74452 5.50385C7.83542 5.77656 7.7627 6.03108 7.52636 6.21288C7.29002 6.39468 7.01732 6.39468 6.78098 6.21288C6.39919 5.922 6.07195 5.99472 5.67199 6.23106C5.19931 6.54012 4.69027 6.23106 4.70845 5.6493ZM6.19921 3.32224C6.05377 3.86765 5.70835 4.12217 5.14477 4.10399C5.30839 4.32215 5.50837 4.48577 5.58109 4.70393C5.65381 4.92209 5.59927 5.17661 5.59927 5.43113C6.01741 5.08571 6.47191 5.08571 6.9446 5.43113C6.74462 4.86755 6.90824 4.46759 7.36274 4.15853C7.10822 4.08581 6.8537 4.06763 6.6719 3.94037C6.47191 3.81311 6.36284 3.55858 6.19921 3.32224Z" fill="#FAB21E"/>
<path d="M9.67171 5.66748C9.68989 5.52204 9.74443 5.30387 9.76261 5.10389C9.76261 5.03117 9.72625 4.92209 9.68989 4.84937C9.58081 4.72211 9.43537 4.59485 9.32629 4.48577C9.14449 4.30397 9.07177 4.06763 9.16267 3.83129C9.25357 3.57676 9.43537 3.4495 9.70807 3.41314C9.85351 3.39496 9.99895 3.35861 10.1262 3.35861C10.308 3.35861 10.3989 3.28588 10.4535 3.12226C10.508 2.97682 10.5807 2.83138 10.6534 2.70412C10.9261 2.23144 11.5079 2.23144 11.7624 2.70412C11.8533 2.86774 11.926 3.04954 12.0169 3.21316C12.0533 3.2677 12.126 3.32224 12.1987 3.34042C12.3805 3.37678 12.5623 3.39496 12.7441 3.43132C12.9805 3.46768 13.1623 3.59494 13.2532 3.83129C13.3441 4.06763 13.2895 4.28579 13.1259 4.48577C13.0714 4.54031 13.035 4.59485 12.9805 4.63121C12.6169 4.99481 12.6169 4.99481 12.7078 5.50385C12.726 5.66747 12.7441 5.86746 12.6896 6.0129C12.5987 6.32196 12.2351 6.4674 11.926 6.35832C11.7261 6.2856 11.5443 6.17652 11.3443 6.06744C11.2534 6.0129 11.1807 6.0129 11.0716 6.06744C10.8898 6.15834 10.7262 6.26742 10.5262 6.34014C10.108 6.48558 9.65353 6.17652 9.67171 5.66748ZM10.0899 4.14035C10.5807 4.46759 10.6898 4.90391 10.508 5.41295C10.7625 5.32205 10.9807 5.19479 11.217 5.19479C11.4352 5.19479 11.6715 5.34023 11.8533 5.39478C11.8533 5.17661 11.7988 4.92209 11.8715 4.72211C11.9442 4.50395 12.1442 4.32215 12.3078 4.10399C11.7079 4.15853 11.3806 3.86765 11.1988 3.32224C11.017 3.86765 10.6716 4.14035 10.0899 4.14035Z" fill="#FAB21E"/>
</svg>
