<svg width="20" height="20" viewBox="0 0 20 20" fill="none" xmlns="http://www.w3.org/2000/svg">
<path d="M8.66584 19.0621C9.84087 19.0621 10.9914 19.0621 12.142 19.0621C12.093 18.8907 12.0196 18.6949 11.9951 18.5235C11.9461 18.1319 12.093 17.8136 12.3868 17.5444C12.5581 17.373 12.6561 17.1772 12.6561 16.9324C12.6561 16.5896 12.7785 16.2714 12.9743 15.9776C13.4884 15.2433 14.492 15.2433 15.0061 15.9776C15.202 16.2714 15.3243 16.6141 15.3243 16.9813C15.3243 17.2016 15.4223 17.3485 15.5447 17.5199C15.6916 17.7157 15.8629 17.936 15.9363 18.1563C16.0587 18.4501 15.9608 18.7683 15.8139 19.0866C16.5483 19.0866 17.2583 19.0866 17.9682 19.0866C17.9682 13.7745 17.9682 8.43787 17.9682 3.12575C15.104 3.12575 12.2154 3.12575 9.3268 3.12575C9.3268 4.8883 9.3268 6.65084 9.3268 8.43786C9.082 8.43786 8.88616 8.43786 8.66584 8.43786C8.66584 6.67532 8.66584 4.91278 8.66584 3.12575C8.44552 3.12575 8.24968 3.12575 8.05385 3.12575C7.78457 3.12575 7.66217 3.00335 7.66217 2.73407C7.66217 2.31792 7.66217 1.92624 7.66217 1.51008C7.66217 1.26528 7.78458 1.14289 8.0049 1.14289C10.0857 0.971527 12.1665 0.775685 14.2472 0.604327C15.8874 0.457448 17.5275 0.310572 19.1677 0.163693C19.5349 0.139213 19.6573 0.23713 19.6573 0.604327C19.6573 1.31424 19.6573 2.02416 19.6573 2.73407C19.6573 3.05231 19.5349 3.15023 19.2411 3.17471C19.0698 3.17471 18.8984 3.17471 18.7515 3.17471C18.727 3.17471 18.727 3.17471 18.7026 3.17471C18.7026 8.48682 18.7026 13.8234 18.7026 19.16C19.1187 19.16 19.5594 19.16 20 19.16C20 19.3803 20 19.6007 20 19.821C13.3415 19.821 6.68298 19.821 0.0244738 19.821C0.0244738 19.6251 0.0244738 19.4048 0.0244738 19.1845C0.46511 19.1845 0.881264 19.1845 1.3219 19.1845C1.3219 17.2995 1.3219 15.4146 1.3219 13.5052C1.02814 13.5052 0.758872 13.5052 0.465115 13.5052C0.122398 13.5052 0 13.4073 0 13.0645C0 10.4697 0 7.87483 0 5.27997C0 4.96173 0.122396 4.83934 0.440633 4.83934C0.734391 4.83934 1.02814 4.83934 1.3219 4.83934C1.3219 4.5211 1.3219 4.22734 1.3219 3.93358C1.3219 3.61534 1.4443 3.51742 1.73806 3.51742C2.57037 3.51742 3.4027 3.51742 4.21053 3.51742C4.35741 3.51742 4.50428 3.59086 4.6022 3.68878C4.9694 4.00702 5.28764 4.37422 5.63035 4.71694C5.72827 4.81486 5.82619 4.83934 5.94859 4.83934C6.60954 4.83934 7.27049 4.83934 7.93145 4.83934C7.93145 5.05965 7.93145 5.25549 7.93145 5.50029C5.50795 5.50029 3.05997 5.50029 0.636469 5.50029C0.636469 7.94827 0.636469 10.3962 0.636469 12.8442C1.29742 12.8442 1.9339 12.8442 2.59485 12.8442C2.59485 13.0645 2.59485 13.2849 2.59485 13.5052C2.39901 13.5052 2.1787 13.5052 1.95838 13.5052C1.95838 15.3901 1.95838 17.2751 1.95838 19.16C2.71726 19.16 3.47612 19.16 4.25948 19.16C4.25948 17.324 4.25948 15.4636 4.25948 13.6031C4.08812 13.6765 3.94124 13.75 3.76988 13.7989C3.47612 13.9213 3.25581 13.7745 3.25581 13.4562C3.25581 12.9421 3.25581 12.4036 3.25581 11.8895C3.25581 11.7182 3.32925 11.5958 3.50061 11.5223C5.26315 10.7634 7.00122 9.98009 8.76377 9.22122C8.86168 9.17226 9.00857 9.17226 9.10649 9.22122C10.869 9.98009 12.6071 10.739 14.3696 11.5223C14.541 11.5958 14.6144 11.7182 14.6144 11.8895C14.6144 12.4036 14.6144 12.9421 14.6144 13.4562C14.6144 13.7745 14.3941 13.9213 14.1004 13.7989C13.9535 13.7255 13.7821 13.6521 13.6108 13.5786C13.6108 14.1172 13.6108 14.6313 13.6108 15.1453C13.3904 15.1453 13.1701 15.1453 12.9498 15.1453C12.9498 14.7047 12.9008 14.2641 12.9498 13.8479C12.9988 13.4073 12.8274 13.2114 12.4113 13.0401C11.3097 12.5994 10.2081 12.0854 9.10649 11.6202C8.98409 11.5713 8.86169 11.5713 8.73929 11.6202C7.5153 12.1588 6.29131 12.6973 5.0918 13.2114C4.99388 13.2604 4.94492 13.2849 4.94492 13.4073C4.94492 15.2922 4.94492 17.1772 4.94492 19.0621C4.94492 19.0866 4.94492 19.1111 4.94492 19.16C5.26316 19.16 5.5814 19.16 5.92411 19.16C5.92411 19.0866 5.92411 19.0131 5.92411 18.9397C5.92411 17.6178 5.92411 16.2959 5.92411 14.9495C5.92411 14.5823 6.02203 14.4844 6.38922 14.4844C6.97674 14.4844 7.56426 14.4844 8.1273 14.4844C8.49449 14.4844 8.5924 14.5823 8.5924 14.9495C8.5924 16.2714 8.5924 17.5688 8.5924 18.8907C8.66584 18.8907 8.66584 18.9642 8.66584 19.0621ZM8.34761 2.39136C11.9217 2.39136 15.4467 2.39136 18.9963 2.39136C18.9963 1.8528 18.9963 1.31424 18.9963 0.775688C15.4467 1.09393 11.8972 1.41216 8.34761 1.70592C8.34761 1.95072 8.34761 2.14656 8.34761 2.39136ZM14.0024 12.8932C14.0024 12.5994 14.0024 12.3302 14.0024 12.0609C14.0024 12.0119 13.929 11.914 13.88 11.8895C12.3133 11.2041 10.7221 10.4942 9.15544 9.83321C9.082 9.80873 8.9596 9.80873 8.88616 9.83321C8.64137 9.93113 8.39657 10.029 8.15177 10.1514C6.82986 10.739 5.50796 11.302 4.16157 11.8895C4.08813 11.914 4.01468 11.9874 4.01468 12.0364C3.9902 12.3057 4.01468 12.575 4.01468 12.8687C4.08812 12.8442 4.16157 12.8198 4.21053 12.7953C5.7038 12.1343 7.22154 11.4734 8.7148 10.8124C8.91064 10.7145 9.082 10.7145 9.27784 10.8124C10.0857 11.1796 10.8935 11.5223 11.7013 11.865C12.4602 12.2078 13.2191 12.5505 14.0024 12.8932ZM6.68298 15.0719C6.68298 16.4183 6.68298 17.7402 6.68298 19.0376C7.12362 19.0376 7.56425 19.0376 7.98041 19.0376C7.98041 17.7157 7.98041 16.3938 7.98041 15.0719C7.56425 15.0719 7.12362 15.0719 6.68298 15.0719ZM14.0024 19.0621C14.1983 19.0621 14.3696 19.0621 14.5655 19.0621C14.8837 19.0621 15.153 18.9397 15.2999 18.6215C15.4468 18.3277 15.2999 18.1074 15.0796 17.936C14.8103 17.6912 14.6879 17.373 14.6634 16.9813C14.6634 16.7855 14.59 16.5652 14.5165 16.3938C14.2962 15.9776 13.7821 15.9287 13.5373 16.3448C13.4149 16.5407 13.366 16.7855 13.3415 17.0303C13.317 17.3485 13.2191 17.6423 12.9988 17.8626C12.9498 17.9115 12.8764 17.985 12.8274 18.0339C12.6316 18.2543 12.6316 18.5235 12.8029 18.7439C12.9498 18.9152 13.1457 19.0376 13.3905 19.0376C13.5863 19.0621 13.8066 19.0621 14.0024 19.0621ZM2.03182 4.05598C2.03182 4.30078 2.03182 4.49662 2.03182 4.71694C2.96205 4.71694 3.89229 4.71694 4.89596 4.71694C4.65116 4.49662 4.45531 4.30078 4.25948 4.10494C4.235 4.08046 4.16156 4.05598 4.13708 4.05598C3.42716 4.05598 2.74173 4.05598 2.03182 4.05598Z" fill="#2E4489"/>
<path d="M8.00494 6.0625C8.00494 6.3073 8.00494 6.50313 8.00494 6.72345C7.00127 6.72345 6.02208 6.72345 5.01841 6.72345C5.01841 7.84952 5.01841 8.92663 5.01841 10.0527C4.77361 10.0527 4.57777 10.0527 4.35745 10.0527C4.35745 8.95111 4.35745 7.84952 4.35745 6.74793C3.57409 6.74793 2.81522 6.74793 2.03187 6.74793C2.03187 8.29016 2.03187 9.83239 2.03187 11.3991C2.25219 11.3991 2.44802 11.3991 2.66834 11.3991C2.66834 11.6194 2.66834 11.8397 2.66834 12.0601C2.32562 12.0601 1.98291 12.0601 1.6402 12.0601C1.46884 12.0601 1.34644 11.9132 1.34644 11.6929C1.34644 11.3012 1.34644 10.9095 1.34644 10.5178C1.34644 9.19591 1.34644 7.87401 1.34644 6.5521C1.34644 6.20938 1.44435 6.08697 1.81154 6.08697C3.81889 6.08697 5.80175 6.08697 7.80909 6.08697C7.85805 6.06249 7.9315 6.0625 8.00494 6.0625Z" fill="#FAB21E"/>
<path d="M13.0233 5.40303C13.0233 5.72127 13.0233 6.0395 13.0233 6.33326C13.0233 6.60254 12.9009 6.72494 12.6316 6.72494C11.9951 6.72494 11.3586 6.72494 10.7467 6.72494C10.4774 6.72494 10.355 6.60254 10.355 6.33326C10.355 5.69678 10.355 5.06031 10.355 4.44832C10.355 4.17904 10.4774 4.05664 10.7467 4.05664C11.3831 4.05664 12.0196 4.05664 12.6316 4.05664C12.9009 4.05664 13.0233 4.17904 13.0233 4.44832C13.0233 4.76656 13.0233 5.08479 13.0233 5.40303ZM11.0159 4.74207C11.0159 5.18271 11.0159 5.62335 11.0159 6.03951C11.4566 6.03951 11.8972 6.03951 12.3134 6.03951C12.3134 5.59887 12.3134 5.15823 12.3134 4.74207C11.8972 4.74207 11.4566 4.74207 11.0159 4.74207Z" fill="#FAB21E"/>
<path d="M15.6669 6.72494C15.3486 6.72494 15.0304 6.72494 14.7367 6.72494C14.4674 6.72494 14.345 6.60254 14.345 6.33326C14.345 5.69678 14.345 5.08479 14.345 4.44832C14.345 4.17904 14.4674 4.05664 14.7367 4.05664C15.3731 4.05664 15.9851 4.05664 16.6216 4.05664C16.8909 4.05664 17.0133 4.17904 17.0133 4.44832C17.0133 5.08479 17.0133 5.69678 17.0133 6.33326C17.0133 6.60254 16.8909 6.72494 16.6216 6.72494C16.3034 6.72494 15.9851 6.72494 15.6669 6.72494ZM16.3278 6.06399C16.3278 5.62335 16.3278 5.18271 16.3278 4.76655C15.8872 4.76655 15.4466 4.76655 15.0059 4.76655C15.0059 5.20719 15.0059 5.64783 15.0059 6.06399C15.4466 6.06399 15.8872 6.06399 16.3278 6.06399Z" fill="#FAB21E"/>
<path d="M17.0135 9.07295C17.0135 9.39119 17.0135 9.70942 17.0135 10.0032C17.0135 10.2725 16.8911 10.3949 16.6218 10.3949C15.9854 10.3949 15.3489 10.3949 14.7369 10.3949C14.4676 10.3949 14.3452 10.2725 14.3452 10.0032C14.3452 9.36671 14.3452 8.73024 14.3452 8.11824C14.3452 7.84896 14.4676 7.72656 14.7369 7.72656C15.3734 7.72656 16.0098 7.72656 16.6218 7.72656C16.8911 7.72656 16.989 7.84896 17.0135 8.11824C17.0135 8.43648 17.0135 8.75471 17.0135 9.07295ZM15.0306 9.70943C15.4713 9.70943 15.9119 9.70943 16.3526 9.70943C16.3526 9.26879 16.3526 8.82815 16.3526 8.41199C15.9119 8.41199 15.4713 8.41199 15.0306 8.41199C15.0306 8.85263 15.0306 9.26879 15.0306 9.70943Z" fill="#FAB21E"/>
<path d="M10.673 15.0723C10.9913 15.0723 11.3095 15.0723 11.6033 15.0723C11.8726 15.0723 11.995 15.1947 11.995 15.4639C11.995 15.978 11.995 16.4921 11.995 17.0062C11.995 17.2754 11.8726 17.3978 11.6033 17.3978C10.9668 17.3978 10.3548 17.3978 9.71835 17.3978C9.44907 17.3978 9.32666 17.2754 9.32666 17.0062C9.32666 16.4921 9.32666 15.978 9.32666 15.4639C9.32666 15.1947 9.44907 15.0723 9.71835 15.0723C10.0611 15.0723 10.3548 15.0723 10.673 15.0723ZM11.334 15.7577C10.8689 15.7577 10.4527 15.7577 10.0121 15.7577C10.0121 16.1004 10.0121 16.4187 10.0121 16.7369C10.4527 16.7369 10.8934 16.7369 11.334 16.7369C11.334 16.3942 11.334 16.0759 11.334 15.7577Z" fill="#FAB21E"/>
<path d="M12.9985 10.0521C12.7537 10.0521 12.5579 10.0521 12.3375 10.0521C12.3375 9.51359 12.3375 8.97503 12.3375 8.41199C11.8969 8.41199 11.4563 8.41199 10.9912 8.41199C10.9912 8.63231 10.9912 8.82815 10.9912 9.04847C10.7708 9.04847 10.5505 9.04847 10.3302 9.04847C10.3302 8.70575 10.3057 8.33856 10.3302 7.99584C10.3302 7.82448 10.4771 7.72656 10.6485 7.72656C11.3094 7.72656 11.9704 7.72656 12.6558 7.72656C12.8516 7.72656 12.974 7.84896 12.974 8.0448C13.023 8.70575 12.9985 9.36671 12.9985 10.0521Z" fill="#FAB21E"/>
<path d="M15.3486 14.0678C15.3486 13.8475 15.3486 13.6271 15.3486 13.4068C15.6669 13.4068 15.9851 13.4068 16.3278 13.4068C16.3278 12.9662 16.3278 12.5256 16.3278 12.0604C16.0096 12.0604 15.6914 12.0604 15.3486 12.0604C15.3486 11.8401 15.3486 11.6198 15.3486 11.375C15.3976 11.375 15.471 11.375 15.5445 11.375C15.9117 11.375 16.2544 11.375 16.6216 11.375C16.8664 11.375 16.9888 11.4974 16.9888 11.7422C16.9888 12.3787 16.9888 13.0396 16.9888 13.6761C16.9888 13.8964 16.8664 14.0433 16.6461 14.0433C16.2299 14.0678 15.8137 14.0678 15.3486 14.0678Z" fill="#FAB21E"/>
<path d="M7.6621 13.0898C7.6621 13.3102 7.6621 13.506 7.6621 13.7263C7.44179 13.7263 7.24595 13.7263 7.02563 13.7263C7.02563 13.5305 7.02563 13.3102 7.02563 13.0898C7.24595 13.0898 7.44179 13.0898 7.6621 13.0898Z" fill="#2E4489"/>
<path d="M2.69287 14.4102C2.91319 14.4102 3.10902 14.4102 3.32934 14.4102C3.32934 14.6305 3.32934 14.8263 3.32934 15.0466C3.10902 15.0466 2.91319 15.0466 2.69287 15.0466C2.69287 14.8508 2.69287 14.6305 2.69287 14.4102Z" fill="#2E4489"/>
</svg>
