<svg width="20" height="20" viewBox="0 0 20 20" fill="none" xmlns="http://www.w3.org/2000/svg">
<path d="M10.3521 13.6924C10.3521 14.2409 10.3521 14.7436 10.3521 15.2692C10.1236 15.2692 9.91792 15.2692 9.68939 15.2692C9.68939 14.7665 9.66654 14.2866 9.68939 13.8067C9.71225 13.5096 9.62084 13.3725 9.32376 13.2354C8.15829 12.7555 7.01567 12.2299 5.8502 11.7271C5.73594 11.6814 5.62168 11.6586 5.50742 11.7271C4.29624 12.2756 3.06221 12.8012 1.82819 13.3268C1.73678 13.3725 1.66822 13.4182 1.66822 13.5325C1.66822 15.4064 1.66822 17.3031 1.66822 19.177C1.66822 19.1999 1.66822 19.2227 1.66822 19.2684C1.98815 19.2684 2.30809 19.2684 2.65087 19.2684C2.65087 19.1998 2.65087 19.1313 2.65087 19.0627C2.65087 17.7373 2.65087 16.4119 2.65087 15.0864C2.65087 14.7208 2.74228 14.6294 3.13077 14.6294C3.72493 14.6294 4.31909 14.6294 4.8904 14.6294C5.21034 14.6294 5.30174 14.7436 5.30174 15.0636C5.30174 16.389 5.30174 17.7144 5.30174 19.0399C5.30174 19.1084 5.30174 19.1999 5.30174 19.2913C6.46721 19.2913 7.60983 19.2913 8.79815 19.2913C8.7753 19.2456 8.75245 19.1998 8.75245 19.1541C8.56963 18.6742 8.61533 18.2172 8.98097 17.8516C9.18664 17.6459 9.3009 17.4174 9.32376 17.1203C9.34661 16.8004 9.46087 16.4804 9.64369 16.2062C10.1236 15.4521 11.1519 15.4749 11.6547 16.2062C11.8604 16.5033 11.9518 16.8232 11.9746 17.166C11.9746 17.4402 12.0889 17.623 12.2717 17.8059C12.5916 18.1029 12.7288 18.4686 12.6373 18.9256C12.5002 19.5198 11.9518 19.9768 11.3348 19.9997C11.0377 19.9997 10.7406 19.9997 10.4435 19.9997C7.06137 19.9997 3.67923 19.9997 0.297081 19.9997C0.205672 19.9997 0.137115 19.9997 0.0228537 19.9997C0.0228537 19.794 0.0228537 19.5655 0.0228537 19.337C0.342787 19.337 0.662719 19.337 0.982651 19.337C0.982651 17.4631 0.982651 15.612 0.982651 13.761C0.822685 13.8295 0.662717 13.8981 0.502751 13.9667C0.228523 14.0809 0 13.9438 0 13.6467C0 13.1211 0 12.5727 0 12.0471C0 11.8414 0.114261 11.75 0.274227 11.6814C1.66822 11.0644 3.06221 10.4703 4.45621 9.85324C4.77614 9.71612 5.11893 9.55616 5.43886 9.41904C5.55312 9.37334 5.71309 9.37334 5.82735 9.41904C7.56413 10.1732 9.3009 10.9273 11.0377 11.7043C11.2205 11.7728 11.2891 11.91 11.2891 12.0928C11.2891 12.5955 11.2891 13.1211 11.2891 13.6239C11.2891 13.9667 11.0834 14.1038 10.7635 13.9667C10.672 13.8524 10.5121 13.7838 10.3521 13.6924ZM0.68557 13.0983C0.77698 13.0754 0.822686 13.0526 0.891243 13.0297C2.3995 12.367 3.90775 11.7043 5.39315 11.0416C5.59882 10.9502 5.75879 10.9502 5.96446 11.0416C7.3356 11.6586 8.70674 12.2527 10.0779 12.8469C10.2836 12.9383 10.4664 13.0069 10.6949 13.0983C10.6949 12.824 10.6949 12.5727 10.6949 12.3441C10.6949 12.207 10.6492 12.1385 10.5121 12.0928C9.07238 11.4758 7.63268 10.8587 6.21584 10.196C5.8502 10.0361 5.55312 10.0132 5.16463 10.196C3.72493 10.8587 2.28524 11.4758 0.822686 12.1156C0.754129 12.1385 0.68557 12.207 0.68557 12.2527C0.68557 12.527 0.68557 12.8012 0.68557 13.0983ZM3.35929 19.2684C3.81634 19.2684 4.22769 19.2684 4.66188 19.2684C4.66188 17.943 4.66188 16.6175 4.66188 15.2921C4.22769 15.2921 3.79349 15.2921 3.35929 15.2921C3.35929 16.6404 3.35929 17.943 3.35929 19.2684ZM10.672 19.2913C10.8549 19.2913 11.0605 19.2913 11.2434 19.2913C11.5633 19.2913 11.8147 19.1541 11.9518 18.8571C12.0889 18.56 11.9518 18.3543 11.7461 18.1715C11.4719 17.9201 11.3576 17.6002 11.3348 17.2345C11.3348 17.0289 11.2662 16.8004 11.1748 16.6175C10.9691 16.2062 10.4664 16.1833 10.2379 16.5718C10.1236 16.7547 10.0779 17.0289 10.0322 17.2574C9.98648 17.4174 10.0093 17.623 9.91792 17.7601C9.80366 17.9658 9.66654 18.1258 9.50658 18.3086C9.34661 18.4914 9.3009 18.6971 9.41516 18.9028C9.55228 19.177 9.7808 19.3141 10.055 19.3141C10.2607 19.2913 10.4664 19.2913 10.672 19.2913Z" fill="#2E4489"/>
<path d="M3.03943 9.62507C2.78805 9.62507 2.58238 9.62507 2.37671 9.62507C2.37671 9.53366 2.37671 9.46511 2.37671 9.39655C2.37671 6.85994 2.37671 4.32333 2.37671 1.80957C2.37671 1.42109 2.46812 1.32967 2.87946 1.32967C3.26795 1.32967 3.63358 1.32967 4.04493 1.32967C4.09063 0.872627 4.2506 0.506993 4.63909 0.232765C4.89047 0.0499459 5.18755 -0.0186111 5.50748 0.0042412C6.1702 0.0499459 6.65009 0.552695 6.7415 1.32967C6.81006 1.32967 6.90147 1.32967 6.97003 1.32967C9.16385 1.32967 11.3577 1.32967 13.5744 1.32967C13.78 1.32967 13.9171 1.39823 14.0771 1.53534C14.7855 2.24377 15.494 2.95219 16.2024 3.66062C16.3395 3.79773 16.408 3.93484 16.408 4.14051C16.408 5.5345 16.408 6.90565 16.408 8.32249C16.1795 8.32249 15.9739 8.32249 15.7453 8.32249C15.7453 6.99706 15.7453 5.69447 15.7453 4.34619C15.2654 4.34619 14.8084 4.34619 14.3513 4.34619C14.1685 4.34619 13.9857 4.34619 13.78 4.34619C13.5287 4.34619 13.3915 4.23192 13.3915 3.95769C13.3915 3.31783 13.3915 2.67796 13.3915 2.01524C10.7407 2.01524 8.08979 2.01524 5.41607 2.01524C5.41607 1.78672 5.41607 1.58105 5.41607 1.35253C5.62174 1.35253 5.85026 1.35253 6.05593 1.35253C6.03308 0.964038 5.75885 0.689811 5.41607 0.689811C5.07328 0.689811 4.75335 0.941183 4.75335 1.30682C4.7305 1.99239 4.75335 2.67796 4.75335 3.36353C4.75335 3.5692 4.91332 3.68346 5.09614 3.68346C5.27895 3.68346 5.41607 3.54635 5.41607 3.34068C5.41607 3.13501 5.41607 2.92934 5.41607 2.70081C5.62174 2.70081 5.85026 2.70081 6.10164 2.70081C6.07879 2.9979 6.10164 3.29497 6.05593 3.59205C5.96452 4.07195 5.48463 4.39189 5.00473 4.34619C4.50198 4.30048 4.11348 3.88914 4.11348 3.38638C4.11348 2.9979 4.11348 2.63226 4.11348 2.24377C4.11348 2.17521 4.11348 2.10666 4.11348 2.0381C3.7707 2.0381 3.45077 2.0381 3.13083 2.0381C3.03942 4.529 3.03943 7.06561 3.03943 9.62507ZM15.1055 3.63776C14.7398 3.27212 14.3742 2.90648 14.0085 2.54085C14.0085 2.88363 14.0085 3.24927 14.0085 3.63776C14.4199 3.63776 14.7855 3.63776 15.1055 3.63776Z" fill="#FAB21E"/>
<path d="M18.8532 8.89438C19.0817 9.14575 19.3102 9.39713 19.5159 9.6485C19.7215 9.87702 19.7215 9.99129 19.5616 10.2198C19.0817 10.9282 18.6246 11.6138 18.1219 12.3451C17.9391 12.2308 17.7562 12.1166 17.5734 11.9794C18.0305 11.3167 18.4647 10.654 18.9217 9.99129C18.7846 9.83132 18.6246 9.67136 18.4647 9.48854C18.419 9.5571 18.3504 9.62565 18.3276 9.69421C17.0021 11.6595 15.6538 13.6477 14.3055 15.613C14.2141 15.7272 14.0999 15.8415 13.9856 15.91C13.62 16.1386 13.2543 16.3214 12.8887 16.5271C12.7516 16.5956 12.6145 16.6413 12.4774 16.5499C12.3402 16.4585 12.3174 16.3214 12.3402 16.1843C12.4088 15.7272 12.4545 15.2473 12.5231 14.7903C12.5459 14.6989 12.5916 14.6075 12.6373 14.5389C14.397 11.9109 16.1794 9.30572 17.9391 6.6777C18.1904 6.31206 18.5104 6.12924 18.9446 6.1978C19.3559 6.26635 19.6301 6.49488 19.7444 6.88337C19.8358 7.2033 19.7901 7.50038 19.6073 7.77461C19.3788 8.14025 19.1274 8.52874 18.8532 8.89438ZM14.9911 13.442C16.0195 11.9337 17.0021 10.4483 18.0076 8.96293C17.8477 8.78011 17.7105 8.62015 17.5506 8.46018C16.4994 10.0141 15.471 11.5224 14.4427 13.0764C14.6255 13.1906 14.8083 13.3049 14.9911 13.442ZM14.0542 13.6248C13.8028 13.9904 13.5743 14.3789 13.3 14.7217C13.0944 14.996 13.1401 15.3159 13.0715 15.6815C13.3914 15.4758 13.7114 15.3616 13.9171 15.0417C14.1227 14.676 14.3741 14.3332 14.6255 13.9904C14.4198 13.8533 14.2598 13.7391 14.0542 13.6248ZM18.419 8.36877C18.6475 8.02598 18.876 7.70605 19.1045 7.36327C19.2188 7.2033 19.1731 6.99763 19.0131 6.90622C18.8532 6.81481 18.6703 6.83766 18.5561 6.99763C18.4647 7.13474 18.3733 7.27186 18.2819 7.40897C17.9391 7.91173 17.9391 7.91173 18.3733 8.34592C18.3733 8.34592 18.3961 8.36877 18.419 8.36877Z" fill="#2E4489"/>
<path d="M4.36475 7.29417C4.36475 7.06564 4.36475 6.85997 4.36475 6.6543C7.67834 6.6543 10.9919 6.6543 14.3284 6.6543C14.3284 6.85997 14.3284 7.06564 14.3284 7.29417C11.0148 7.29417 7.70119 7.29417 4.36475 7.29417Z" fill="#FAB21E"/>
<path d="M4.36475 8.62033C4.36475 8.39181 4.36475 8.18614 4.36475 7.98047C7.70119 7.98047 11.0148 7.98047 14.3284 7.98047C14.3284 8.18614 14.3284 8.39181 14.3284 8.62033C11.0148 8.62033 7.70119 8.62033 4.36475 8.62033Z" fill="#FAB21E"/>
<path d="M6.35303 5.94456C6.35303 5.71603 6.35303 5.53321 6.35303 5.30469C9.0039 5.30469 11.6548 5.30469 14.3285 5.30469C14.3285 5.51036 14.3285 5.71603 14.3285 5.94456C11.6776 5.94456 9.0039 5.94456 6.35303 5.94456Z" fill="#FAB21E"/>
<path d="M7.35854 15.293C7.67847 15.293 7.97556 15.293 8.29549 15.293C8.54686 15.293 8.66113 15.4301 8.66113 15.6586C8.66113 16.1842 8.66113 16.7098 8.66113 17.2354C8.66113 17.4868 8.52401 17.6011 8.29549 17.6011C7.65562 17.6011 7.01576 17.6011 6.37589 17.6011C6.12452 17.6011 6.01025 17.4639 6.01025 17.2354C6.01025 16.7098 6.01025 16.1842 6.01025 15.6586C6.01025 15.4072 6.14737 15.293 6.39874 15.293C6.71868 15.293 7.03861 15.293 7.35854 15.293ZM7.99841 16.9612C7.99841 16.6184 7.99841 16.2985 7.99841 15.9785C7.54136 15.9785 7.13002 15.9785 6.69582 15.9785C6.69582 16.3213 6.69582 16.6184 6.69582 16.9612C7.13002 16.9612 7.56421 16.9612 7.99841 16.9612Z" fill="#2E4489"/>
<path d="M13.3457 18.949C13.3457 18.7205 13.3457 18.5148 13.3457 18.2863C14.1227 18.2863 14.8768 18.2863 15.6766 18.2863C15.6766 16.938 15.6766 15.6354 15.6766 14.2871C15.9052 14.2871 16.1108 14.2871 16.3394 14.2871C16.3394 14.3557 16.3394 14.4242 16.3394 14.4928C16.3394 15.8182 16.3394 17.1437 16.3394 18.4919C16.3394 18.8576 16.2251 18.949 15.8823 18.949C15.0596 18.949 14.2141 18.949 13.3457 18.949Z" fill="#2E4489"/>
<path d="M9.36963 9.94456C9.36963 9.71603 9.36963 9.51036 9.36963 9.30469C11.0379 9.30469 12.6832 9.30469 14.3286 9.30469C14.3286 9.51036 14.3286 9.71603 14.3286 9.94456C12.6832 9.94456 11.0379 9.94456 9.36963 9.94456Z" fill="#FAB21E"/>
<path d="M5.02734 5.96799C5.02734 5.73946 5.02734 5.5338 5.02734 5.32812C5.23301 5.32812 5.46154 5.32812 5.66721 5.32812C5.66721 5.5338 5.66721 5.76232 5.66721 5.96799C5.46154 5.96799 5.25587 5.96799 5.02734 5.96799Z" fill="#FAB21E"/>
<path d="M4.34201 13.3047C4.34201 13.5332 4.34201 13.7389 4.34201 13.9446C4.13634 13.9446 3.93067 13.9446 3.70215 13.9446C3.70215 13.7389 3.70215 13.5332 3.70215 13.3047C3.90782 13.3047 4.11349 13.3047 4.34201 13.3047Z" fill="#2E4489"/>
</svg>
