<svg width="20" height="21" viewBox="0 0 20 21" fill="none" xmlns="http://www.w3.org/2000/svg">
<path d="M2.3186 2.47646C2.3186 2.23987 2.3186 2.02694 2.3186 1.814C2.3186 1.24618 2.76813 0.820312 3.31229 0.820312C3.85645 0.820312 4.28232 1.24618 4.28232 1.814C4.28232 2.02694 4.28232 2.23986 4.28232 2.4528C4.82648 2.4528 5.37064 2.4528 5.9148 2.4528C5.9148 2.26352 5.9148 2.07425 5.9148 1.88498C5.9148 1.26984 6.34067 0.843973 6.90849 0.843973C7.47631 0.843973 7.87851 1.2935 7.87851 1.88498C7.87851 2.07425 7.87851 2.26352 7.87851 2.47646C8.54097 2.47646 9.17978 2.47646 9.84223 2.47646C9.84223 2.26352 9.84223 2.02693 9.84223 1.79034C9.86589 1.2935 10.2444 0.891292 10.7176 0.843973C11.1908 0.796655 11.6403 1.10423 11.7586 1.57741C11.806 1.71937 11.7823 1.88498 11.8059 2.05059C11.8059 2.19255 11.8059 2.31084 11.8059 2.47646C12.3501 2.47646 12.8943 2.47646 13.4384 2.47646C13.4384 2.26352 13.4384 2.07425 13.4384 1.86132C13.4384 1.2935 13.8643 0.843973 14.4321 0.843973C14.9763 0.843973 15.4021 1.26984 15.4021 1.83766C15.4021 2.0506 15.4021 2.23987 15.4021 2.47646C15.6151 2.47646 15.7807 2.47646 15.97 2.47646C16.9873 2.47646 17.6971 3.18624 17.6971 4.17992C17.6971 7.16098 17.6971 10.1184 17.6971 13.0994C17.6971 13.2651 17.7208 13.336 17.8864 13.4307C19.4006 14.2114 20.2286 15.8912 19.9447 17.5474C19.6608 19.2272 18.3359 20.5521 16.6797 20.7887C15.0236 21.0253 13.7223 20.4101 12.7523 19.0379C12.6577 18.9196 12.5867 18.8723 12.4447 18.8723C8.89587 18.8723 5.32332 18.8723 1.77444 18.8723C0.662458 18.8723 0 18.1862 0 17.0742C0 12.7919 0 8.53322 0 4.2509C0 3.16257 0.686117 2.47646 1.77444 2.47646C1.96371 2.47646 2.12933 2.47646 2.3186 2.47646ZM17.082 6.42755C11.6167 6.42755 6.15139 6.42755 0.686116 6.42755C0.686116 6.49853 0.686116 6.5695 0.686116 6.64048C0.686116 10.142 0.686116 13.6199 0.686116 17.1215C0.686116 17.8313 1.08833 18.2335 1.7981 18.2335C5.25235 18.2335 8.70659 18.2335 12.1372 18.2335C12.2082 18.2335 12.2791 18.2335 12.3738 18.2335C11.8533 16.3644 12.3501 14.8502 13.888 13.6436C13.6277 13.6436 13.4148 13.6436 13.1782 13.6436C12.9416 13.6436 12.8233 13.5253 12.8233 13.2887C12.8233 12.6499 12.8233 12.0111 12.8233 11.3723C12.8233 11.1594 12.9416 11.0174 13.1782 11.0174C13.817 11.0174 14.4558 11.0174 15.0946 11.0174C15.3075 11.0174 15.4495 11.1594 15.4495 11.396C15.4495 11.7745 15.4495 12.1767 15.4495 12.5553C15.4495 12.7209 15.4495 12.8629 15.4495 12.9811C16.0173 13.0048 16.5378 13.0285 17.082 13.0521C17.082 10.8518 17.082 8.65151 17.082 6.42755ZM13.4858 3.13892C12.9179 3.13892 12.3974 3.13892 11.8533 3.13892C11.8533 3.35185 11.8533 3.54112 11.8533 3.75405C11.8533 4.32187 11.4274 4.7714 10.8596 4.7714C10.3154 4.7714 9.88955 4.32187 9.86589 3.75405C9.86589 3.54112 9.86589 3.35185 9.86589 3.13892C9.20344 3.13892 8.56463 3.13892 7.90218 3.13892C7.90218 3.35185 7.90218 3.54112 7.90218 3.75405C7.90218 4.32187 7.47631 4.7714 6.93215 4.7714C6.38798 4.7714 5.96212 4.32187 5.93846 3.75405C5.93846 3.54112 5.93846 3.35185 5.93846 3.13892C5.65455 3.13892 5.3943 3.13892 5.11039 3.13892C4.85014 3.13892 4.56623 3.13892 4.28232 3.13892C4.28232 3.32819 4.28232 3.47014 4.28232 3.63576C4.32964 4.39285 3.76181 4.7714 3.31229 4.7714C2.86276 4.7714 2.27128 4.41651 2.3186 3.63576C2.3186 3.47014 2.3186 3.30453 2.3186 3.13892C2.10567 3.13892 1.89274 3.13892 1.67981 3.13892C1.08833 3.13892 0.686114 3.56478 0.662455 4.15626C0.662455 4.62945 0.662455 5.12629 0.662455 5.59948C0.662455 5.64679 0.662457 5.69411 0.686116 5.74143C6.15139 5.74143 11.593 5.74143 17.0583 5.74143C17.0583 5.14995 17.082 4.55847 17.0583 3.96699C17.0346 3.58844 16.798 3.28087 16.4195 3.18623C16.1119 3.11526 15.757 3.11526 15.4258 3.0916C15.4258 3.35185 15.4258 3.56478 15.4258 3.77771C15.4022 4.32188 14.9763 4.74774 14.4321 4.74774C13.888 4.74774 13.4621 4.32188 13.4621 3.77771C13.4621 3.56478 13.4858 3.35185 13.4858 3.13892ZM19.3769 16.8849C19.3769 15.0868 17.91 13.6199 16.1119 13.6199C14.2902 13.6199 12.8233 15.0868 12.8233 16.9086C12.8233 18.7067 14.2902 20.1736 16.0883 20.1736C17.91 20.1736 19.3769 18.7067 19.3769 16.8849ZM14.7633 12.9575C14.7633 12.508 14.7633 12.0821 14.7633 11.6562C14.3138 11.6562 13.9116 11.6562 13.4858 11.6562C13.4858 12.1058 13.4858 12.5316 13.4858 12.9575C13.9116 12.9575 14.3375 12.9575 14.7633 12.9575ZM3.64352 2.78403C3.64352 2.47646 3.64352 2.16889 3.64352 1.86132C3.64352 1.62472 3.52522 1.48277 3.31229 1.48277C3.12302 1.48277 2.98106 1.62472 2.98106 1.86132C2.98106 2.47646 2.98106 3.0916 2.98106 3.70674C2.98106 3.94333 3.09936 4.08529 3.31229 4.08529C3.50156 4.08529 3.64352 3.94333 3.64352 3.70674C3.64352 3.39917 3.64352 3.0916 3.64352 2.78403ZM7.23972 2.80768C7.23972 2.50012 7.23972 2.16889 7.23972 1.86132C7.23972 1.62472 7.09777 1.48277 6.90849 1.48277C6.71922 1.48277 6.60092 1.62472 6.57726 1.86132C6.57726 2.47646 6.57726 3.11526 6.57726 3.7304C6.57726 3.96699 6.71922 4.10894 6.90849 4.10894C7.09777 4.10894 7.21606 3.96699 7.23972 3.7304C7.23972 3.42283 7.23972 3.11525 7.23972 2.80768ZM11.1672 2.80768C11.1672 2.50012 11.1672 2.16889 11.1672 1.86132C11.1672 1.62472 11.0489 1.48277 10.8596 1.48277C10.6703 1.48277 10.5283 1.62472 10.5283 1.86132C10.5283 2.47646 10.5283 3.11526 10.5283 3.7304C10.5283 3.96699 10.6466 4.10894 10.8359 4.10894C11.0252 4.10894 11.1672 3.96699 11.1672 3.7304C11.1908 3.42283 11.1672 3.11525 11.1672 2.80768ZM14.1246 2.78403C14.1246 3.0916 14.1246 3.39917 14.1246 3.70674C14.1246 3.94333 14.2428 4.08529 14.4558 4.08529C14.6451 4.08529 14.787 3.94333 14.787 3.70674C14.787 3.0916 14.787 2.47646 14.787 1.86132C14.787 1.62472 14.6687 1.48277 14.4558 1.48277C14.2665 1.48277 14.1246 1.62472 14.1246 1.86132C14.1246 2.16889 14.1246 2.47646 14.1246 2.78403Z" fill="#2E4489"/>
<path d="M4.61348 8.72335C4.61348 9.03092 4.61348 9.31483 4.61348 9.6224C4.61348 9.88265 4.49518 10.0246 4.23493 10.0246C3.61979 10.0246 2.98099 10.0246 2.36585 10.0246C2.1056 10.0246 1.9873 9.90631 1.9873 9.64606C1.9873 9.03092 1.9873 8.39212 1.9873 7.77698C1.9873 7.51673 2.1056 7.39844 2.36585 7.39844C2.98099 7.39844 3.61979 7.39844 4.23493 7.39844C4.49518 7.39844 4.61348 7.51673 4.61348 7.77698C4.61348 8.08455 4.61348 8.39212 4.61348 8.72335ZM3.95102 8.06089C3.5015 8.06089 3.09929 8.06089 2.67342 8.06089C2.67342 8.51042 2.67342 8.93628 2.67342 9.33849C3.09929 9.33849 3.52516 9.33849 3.95102 9.33849C3.95102 8.91262 3.95102 8.48676 3.95102 8.06089Z" fill="#FAB21E"/>
<path d="M6.90868 10.0012C6.60111 10.0012 6.31719 10.0012 6.00962 10.0012C5.74937 10.0012 5.60742 9.88288 5.60742 9.62263C5.60742 9.00749 5.60742 8.39234 5.60742 7.7772C5.60742 7.51695 5.72571 7.375 5.98596 7.375C6.6011 7.375 7.21625 7.375 7.83139 7.375C8.09164 7.375 8.23359 7.4933 8.23359 7.75355C8.23359 8.36869 8.23359 8.98382 8.23359 9.59896C8.23359 9.88287 8.1153 10.0012 7.83139 10.0012C7.52382 10.0012 7.21625 10.0012 6.90868 10.0012ZM6.26988 9.33871C6.7194 9.33871 7.14527 9.33871 7.54747 9.33871C7.54747 8.88919 7.54747 8.46332 7.54747 8.06112C7.12161 8.06112 6.69574 8.06112 6.26988 8.06112C6.26988 8.48698 6.26988 8.91285 6.26988 9.33871Z" fill="#FAB21E"/>
<path d="M9.20337 8.67603C9.20337 8.36846 9.20337 8.08455 9.20337 7.77698C9.20337 7.51673 9.32167 7.39844 9.58192 7.39844C10.1971 7.39844 10.8122 7.39844 11.4273 7.39844C11.6876 7.39844 11.8059 7.51673 11.8059 7.77698C11.8059 8.39212 11.8059 9.00726 11.8059 9.6224C11.8059 9.88265 11.6876 10.001 11.4273 10.001C10.8122 10.001 10.1971 10.001 9.58192 10.001C9.32167 10.001 9.20337 9.88265 9.20337 9.6224C9.20337 9.31483 9.20337 8.9836 9.20337 8.67603ZM11.1671 8.06089C10.7176 8.06089 10.2917 8.06089 9.88948 8.06089C9.88948 8.51042 9.88948 8.93628 9.88948 9.33849C10.3154 9.33849 10.7412 9.33849 11.1671 9.33849C11.1671 8.91262 11.1671 8.48676 11.1671 8.06089Z" fill="#FAB21E"/>
<path d="M15.4494 8.69992C15.4494 9.00749 15.4494 9.31506 15.4494 9.62263C15.4494 9.88288 15.3311 10.0012 15.0709 10.0012C14.4557 10.0012 13.8169 10.0012 13.2018 10.0012C12.9415 10.0012 12.8232 9.88288 12.8232 9.62263C12.8232 9.00749 12.8232 8.36869 12.8232 7.75355C12.8232 7.4933 12.9415 7.375 13.2018 7.375C13.8169 7.375 14.4557 7.375 15.0709 7.375C15.3311 7.375 15.4494 7.4933 15.4494 7.75355C15.4494 8.08478 15.4494 8.39235 15.4494 8.69992ZM14.7633 9.33871C14.7633 8.88919 14.7633 8.46332 14.7633 8.03746C14.3374 8.03746 13.9116 8.03746 13.4857 8.03746C13.4857 8.46332 13.4857 8.88919 13.4857 9.33871C13.9116 9.33871 14.3374 9.33871 14.7633 9.33871Z" fill="#FAB21E"/>
<path d="M15.4494 12.3425C15.4494 12.6501 15.4494 12.9576 15.4494 13.2652C15.4494 13.5255 15.3311 13.6438 15.0709 13.6438C14.4557 13.6438 13.8169 13.6438 13.2018 13.6438C12.9415 13.6438 12.8232 13.5255 12.8232 13.2652C12.8232 12.6501 12.8232 12.0113 12.8232 11.3961C12.8232 11.1359 12.9415 11.0176 13.2018 11.0176C13.8169 11.0176 14.4557 11.0176 15.0709 11.0176C15.3311 11.0176 15.4494 11.1359 15.4494 11.3961C15.4494 11.7274 15.4494 12.0349 15.4494 12.3425ZM14.7633 12.9813C14.7633 12.5318 14.7633 12.1059 14.7633 11.68C14.3374 11.68 13.9116 11.68 13.4857 11.68C13.4857 12.1059 13.4857 12.5318 13.4857 12.9813C13.9116 12.9813 14.3374 12.9813 14.7633 12.9813Z" fill="#FAB21E"/>
<path d="M3.28858 13.6201C2.98101 13.6201 2.6971 13.6201 2.38954 13.6201C2.12928 13.6201 2.01099 13.5018 2.01099 13.2415C2.01099 12.6264 2.01099 12.0113 2.01099 11.3961C2.01099 11.1359 2.12928 11.0176 2.38954 11.0176C3.00467 11.0176 3.61981 11.0176 4.23495 11.0176C4.4952 11.0176 4.6135 11.1359 4.6135 11.3961C4.6135 12.0113 4.6135 12.6264 4.6135 13.2415C4.6135 13.5018 4.4952 13.6201 4.23495 13.6201C3.92738 13.6201 3.59615 13.6201 3.28858 13.6201ZM2.67344 12.9576C3.12297 12.9576 3.52518 12.9576 3.95104 12.9576C3.95104 12.5081 3.95104 12.0822 3.95104 11.68C3.52518 11.68 3.09931 11.68 2.67344 11.68C2.67344 12.0822 2.67344 12.5081 2.67344 12.9576Z" fill="#FAB21E"/>
<path d="M5.60742 12.2717C5.60742 11.9642 5.60742 11.6803 5.60742 11.3727C5.60742 11.1124 5.72571 10.9941 6.00962 10.9941C6.62476 10.9941 7.23991 10.9941 7.85505 10.9941C8.1153 10.9941 8.23359 11.1124 8.23359 11.3964C8.23359 12.0115 8.23359 12.6266 8.23359 13.2418C8.23359 13.502 8.1153 13.6203 7.83139 13.6203C7.21625 13.6203 6.6011 13.6203 5.98596 13.6203C5.72571 13.6203 5.60742 13.502 5.60742 13.2181C5.60742 12.9105 5.60742 12.603 5.60742 12.2717ZM7.54747 12.9579C7.54747 12.5083 7.54747 12.0825 7.54747 11.6566C7.12161 11.6566 6.69574 11.6566 6.26988 11.6566C6.26988 12.0825 6.26988 12.5083 6.26988 12.9579C6.69574 12.9579 7.12161 12.9579 7.54747 12.9579Z" fill="#FAB21E"/>
<path d="M11.8296 12.3191C11.8296 12.6266 11.8296 12.9105 11.8296 13.2181C11.8296 13.4784 11.7113 13.5967 11.451 13.5967C10.8359 13.5967 10.2207 13.5967 9.6056 13.5967C9.34535 13.5967 9.22705 13.4784 9.22705 13.2181C9.22705 12.603 9.22705 11.9878 9.22705 11.3727C9.22705 11.1124 9.34535 10.9941 9.6056 10.9941C10.2207 10.9941 10.8359 10.9941 11.451 10.9941C11.7113 10.9941 11.8296 11.1124 11.8296 11.3727C11.8296 11.7039 11.8296 12.0115 11.8296 12.3191ZM11.1671 11.6566C10.7176 11.6566 10.2917 11.6566 9.88951 11.6566C9.88951 12.1061 9.88951 12.532 9.88951 12.9342C10.3154 12.9342 10.7412 12.9342 11.1671 12.9342C11.1671 12.5083 11.1671 12.1061 11.1671 11.6566Z" fill="#FAB21E"/>
<path d="M3.28856 17.216C2.98099 17.216 2.67342 17.216 2.36585 17.216C2.1056 17.216 1.9873 17.0977 1.9873 16.8375C1.9873 16.2223 1.9873 15.5835 1.9873 14.9684C1.9873 14.7081 2.1056 14.5898 2.36585 14.5898C2.98099 14.5898 3.61979 14.5898 4.23493 14.5898C4.49518 14.5898 4.61348 14.7081 4.61348 14.9684C4.61348 15.5835 4.61348 16.2223 4.61348 16.8375C4.61348 17.0977 4.49518 17.216 4.23493 17.216C3.92736 17.216 3.61979 17.216 3.28856 17.216ZM2.67342 15.2523C2.67342 15.7018 2.67342 16.1277 2.67342 16.5536C3.09929 16.5536 3.52516 16.5536 3.95102 16.5536C3.95102 16.1277 3.95102 15.7018 3.95102 15.2523C3.52516 15.2523 3.09929 15.2523 2.67342 15.2523Z" fill="#FAB21E"/>
<path d="M6.93209 14.5898C7.23966 14.5898 7.54723 14.5898 7.8548 14.5898C8.11505 14.5898 8.23334 14.7081 8.23334 14.9684C8.23334 15.5835 8.23334 16.2223 8.23334 16.8375C8.23334 17.0977 8.11505 17.216 7.8548 17.216C7.23966 17.216 6.60086 17.216 5.98572 17.216C5.72547 17.216 5.60718 17.0977 5.60718 16.8375C5.60718 16.2223 5.60718 15.5835 5.60718 14.9684C5.60718 14.7081 5.72547 14.5898 5.98572 14.5898C6.29329 14.5898 6.62452 14.5898 6.93209 14.5898ZM6.26963 15.2523C6.26963 15.7018 6.26963 16.1277 6.26963 16.5299C6.71916 16.5299 7.14502 16.5299 7.54723 16.5299C7.54723 16.104 7.54723 15.6782 7.54723 15.2523C7.12136 15.2523 6.71916 15.2523 6.26963 15.2523Z" fill="#FAB21E"/>
<path d="M10.5046 17.216C10.1971 17.216 9.88949 17.216 9.58192 17.216C9.32167 17.216 9.20337 17.0977 9.20337 16.8375C9.20337 16.2223 9.20337 15.5835 9.20337 14.9684C9.20337 14.7081 9.32167 14.5898 9.58192 14.5898C10.1971 14.5898 10.8359 14.5898 11.451 14.5898C11.7112 14.5898 11.8295 14.7081 11.8295 14.9684C11.8295 15.5835 11.8295 16.2223 11.8295 16.8375C11.8295 17.0977 11.7112 17.216 11.451 17.216C11.1434 17.216 10.8359 17.216 10.5046 17.216ZM9.88948 15.2523C9.88948 15.7018 9.88948 16.1277 9.88948 16.5536C10.3154 16.5536 10.7412 16.5536 11.1671 16.5536C11.1671 16.104 11.1671 15.7018 11.1671 15.2523C10.7176 15.2523 10.3154 15.2523 9.88948 15.2523Z" fill="#FAB21E"/>
<path d="M15.7806 14.2832C16.0172 14.2832 16.2064 14.2832 16.443 14.2832C16.443 14.6381 16.443 14.993 16.443 15.3242C16.443 15.5135 16.443 15.7028 16.443 15.892C16.443 16.1286 16.4194 16.3179 16.6323 16.5072C16.8216 16.6964 16.8216 16.9567 16.6796 17.217C16.5613 17.4535 16.2774 17.5955 16.0172 17.5245C15.8989 17.5009 15.8042 17.5245 15.7333 17.5955C15.402 17.8794 15.0471 18.1397 14.6922 18.4472C14.5503 18.2816 14.432 18.116 14.29 17.9267C14.6449 17.6428 14.9998 17.3589 15.331 17.075C15.402 17.004 15.4257 16.9094 15.473 16.8147C15.544 16.6728 15.5676 16.5072 15.6859 16.4125C15.7806 16.3179 15.8042 16.2233 15.8042 16.0813C15.7569 15.5135 15.7806 14.8983 15.7806 14.2832Z" fill="#2E4489"/>
</svg>
