<svg width="20" height="21" viewBox="0 0 20 21" fill="none" xmlns="http://www.w3.org/2000/svg">
<path d="M2.85674 13.2596C0.193192 10.9 0.085934 7.12809 1.85568 4.6433C3.57179 2.26577 7.11127 1.01444 10.329 2.80206C10.329 2.73055 10.329 2.67692 10.329 2.6233C10.329 1.99763 10.329 1.35409 10.329 0.728421C10.329 0.281517 10.5971 0.03125 11.0262 0.03125C13.7791 0.03125 16.5499 0.03125 19.3028 0.03125C19.7319 0.03125 20 0.299393 20 0.728421C20 2.19427 20 3.67799 20 5.14384C20 5.57287 19.7319 5.84101 19.285 5.84101C18.5342 5.84101 17.7655 5.84101 17.0147 5.84101C16.9432 5.84101 16.8717 5.84101 16.7823 5.84101C16.7823 6.21641 16.7823 6.57393 16.7823 6.91358C16.7823 7.32473 16.6035 7.61075 16.2818 7.71801C15.96 7.84314 15.6382 7.73588 15.3701 7.41411C14.9589 6.93145 14.5656 6.4488 14.1545 5.96614C14.1009 5.89464 13.9757 5.84101 13.8863 5.84101C13.6003 5.82313 13.3322 5.84101 13.0462 5.84101C13.1713 6.23428 13.2964 6.62756 13.3858 7.02084C14.1724 10.4709 11.9736 13.9389 8.52349 14.7076C7.45092 14.94 6.39623 14.9221 5.34153 14.6182C5.19852 14.5825 5.14489 14.6182 5.07339 14.7255C4.21533 16.2628 3.35728 17.818 2.49922 19.3554C2.10594 20.0704 1.49815 20.2135 0.800982 19.7666C0.729478 19.7129 0.657973 19.6772 0.586469 19.6235C-0.0213215 19.2124 -0.164333 18.6404 0.19319 17.9968C0.854609 16.8349 1.51603 15.655 2.15957 14.4931C2.39196 14.0819 2.62435 13.6708 2.85674 13.2596ZM10.9904 0.674792C10.9904 2.19427 10.9904 3.67799 10.9904 5.17959C11.0798 5.17959 11.1513 5.17959 11.2228 5.17959C12.1881 5.17959 13.1534 5.17959 14.1187 5.17959C14.2796 5.17959 14.3869 5.21534 14.4941 5.35835C14.941 5.91251 15.4058 6.4488 15.8527 7.00296C15.8885 7.05659 15.9779 7.07446 16.0494 7.11022C16.0851 7.03871 16.1209 6.96721 16.1209 6.8957C16.1209 6.39517 16.1209 5.89464 16.1209 5.3941C16.1209 5.3226 16.1209 5.26897 16.1209 5.19747C17.2113 5.19747 18.266 5.19747 19.3386 5.19747C19.3386 3.69587 19.3386 2.19427 19.3386 0.692668C16.5499 0.674792 13.7791 0.674792 10.9904 0.674792ZM10.3111 11.5435C11.8127 10.1134 12.0272 7.48562 10.8295 5.87676C10.7938 5.82313 10.7401 5.78738 10.7044 5.7695C10.5256 5.68012 10.4184 5.53711 10.3469 5.35835C10.329 5.28685 10.2754 5.21534 10.2217 5.16171C9.14916 4.16065 7.87995 3.73162 6.43198 3.96401C3.01763 4.48242 1.44452 8.46881 3.55391 11.2039C3.64329 11.329 3.75055 11.4363 3.83993 11.5435C3.76843 9.91678 4.41197 8.71907 5.87782 8.00403C4.82312 7.05659 5.07339 5.75163 5.73481 5.10809C6.48561 4.37516 7.66543 4.37516 8.43411 5.09021C9.11341 5.73375 9.36367 7.05659 8.30898 8.00403C9.00615 8.30792 9.54243 8.7727 9.91783 9.41624C10.2932 10.0598 10.3647 10.7748 10.3111 11.5435ZM10.329 4.37516C10.329 4.14277 10.329 3.94613 10.329 3.74949C10.329 3.62436 10.2932 3.55286 10.186 3.49923C9.00615 2.76631 7.71906 2.48029 6.32472 2.65905C3.21427 3.08808 1.03337 5.85888 1.31939 8.98722C1.67691 12.7591 5.62755 15.226 9.14916 13.8138C11.4373 12.9021 12.6708 11.1681 12.8853 8.71907C12.9747 7.75376 12.7601 6.84207 12.349 5.96614C12.3311 5.91251 12.2596 5.84101 12.206 5.84101C12.0093 5.82313 11.7948 5.84101 11.5803 5.84101C13.2428 8.89783 11.5624 11.8832 9.57819 12.9557C7.36154 14.1534 4.60861 13.5993 3.0355 11.5971C1.48028 9.63076 1.60541 6.80632 3.28577 4.9472C5.00188 3.05232 7.98721 2.58754 10.329 4.37516ZM4.51923 11.2754C4.51923 11.5614 4.51923 11.7401 4.51923 11.9368C4.51923 12.0619 4.55498 12.1334 4.66224 12.2049C6.11021 13.1702 8.13022 13.1702 9.56031 12.1871C9.61394 12.1513 9.66757 12.044 9.66757 11.9725C9.68544 11.6329 9.66757 11.2932 9.66757 10.9715C9.64969 9.8274 8.86314 8.82633 7.77269 8.52244C6.66437 8.21854 5.50242 8.68332 4.89463 9.66651C4.57285 10.167 4.48348 10.757 4.51923 11.2754ZM3.67905 15.8874C3.28577 15.655 2.8925 15.4226 2.49922 15.1902C2.40984 15.3333 2.35621 15.4584 2.28471 15.5835C1.7663 16.4952 1.24789 17.4248 0.729476 18.3365C0.550714 18.6404 0.622219 18.8727 0.908238 19.0515C1.01549 19.123 1.10488 19.1945 1.21213 19.2481C1.49815 19.4448 1.73054 19.3912 1.89143 19.0873C1.96293 18.98 2.01656 18.8727 2.07019 18.7476C2.62435 17.8002 3.14276 16.8527 3.67905 15.8874ZM8.38048 6.48455C8.38048 5.7695 7.80844 5.17959 7.0934 5.17959C6.39623 5.17959 5.80631 5.75163 5.80631 6.4488C5.80631 7.16385 6.37835 7.75376 7.07552 7.75376C7.79057 7.77164 8.38048 7.18172 8.38048 6.48455ZM4.00082 15.3154C4.19746 14.9757 4.37622 14.654 4.5371 14.3322C4.12595 14.0998 3.75055 13.8853 3.35728 13.6529C3.17851 13.9568 2.99975 14.2786 2.82099 14.6003C3.21427 14.8506 3.58967 15.083 4.00082 15.3154Z" fill="#2E4489"/>
<path d="M15.4594 11.6329C14.941 11.6329 14.4226 11.6329 13.8505 11.6329C14.8337 10.3637 15.799 9.13024 16.7643 7.87891C17.7297 9.13024 18.695 10.3637 19.6782 11.615C19.124 11.615 18.5877 11.615 18.0872 11.615C18.0157 12.0798 17.9799 12.5088 17.8727 12.9379C17.3543 15.2796 15.8705 16.7455 13.6539 17.532C12.6171 17.9074 11.5266 18.0326 10.4362 18.1041C10.0429 18.122 9.6675 18.1577 9.25635 18.1577C9.32785 18.122 9.39936 18.0862 9.45298 18.0683C10.3289 17.6393 11.2406 17.2639 12.0987 16.7812C13.3679 16.0662 14.3689 15.083 14.9767 13.7423C15.2806 13.0988 15.4594 12.2764 15.4594 11.6329ZM16.1208 10.9894C16.1923 13.6708 14.9946 15.6193 12.8852 17.103C15.9957 16.245 17.4615 14.1713 17.4258 10.9715C17.7475 10.9715 18.0336 10.9715 18.3732 10.9715C17.8369 10.2743 17.3185 9.61289 16.7822 8.91572C16.2459 9.61289 15.7275 10.2743 15.1912 10.9715C15.513 10.9894 15.8169 10.9894 16.1208 10.9894Z" fill="#FAB21E"/>
<path d="M18.6951 1.31836C18.6951 1.53287 18.6951 1.72951 18.6951 1.94403C16.3355 1.94403 13.9937 1.94403 11.634 1.94403C11.634 1.74739 11.634 1.53287 11.634 1.31836C13.9758 1.31836 16.3355 1.31836 18.6951 1.31836Z" fill="#FAB21E"/>
<path d="M11.616 3.23114C11.616 3.01662 11.616 2.81998 11.616 2.60547C13.9756 2.60547 16.3353 2.60547 18.6949 2.60547C18.6949 2.81998 18.6949 3.01662 18.6949 3.23114C16.3532 3.23114 13.9935 3.23114 11.616 3.23114Z" fill="#FAB21E"/>
<path d="M14.8339 3.91016C14.8339 4.12467 14.8339 4.32131 14.8339 4.53582C13.7613 4.53582 12.7066 4.53582 11.634 4.53582C11.634 4.33918 11.634 4.14255 11.634 3.91016C12.6887 3.91016 13.7434 3.91016 14.8339 3.91016Z" fill="#FAB21E"/>
<path d="M15.4951 3.89258C15.7096 3.89258 15.9063 3.89258 16.1029 3.89258C16.1029 4.10709 16.1029 4.30373 16.1029 4.51824C15.9063 4.51824 15.6918 4.51824 15.4951 4.51824C15.4951 4.32161 15.4951 4.10709 15.4951 3.89258Z" fill="#FAB21E"/>
<path d="M17.4079 4.53582C17.1934 4.53582 16.9967 4.53582 16.7822 4.53582C16.7822 4.33918 16.7822 4.12467 16.7822 3.91016C16.9789 3.91016 17.1934 3.91016 17.4079 3.91016C17.4079 4.10679 17.4079 4.30343 17.4079 4.53582Z" fill="#FAB21E"/>
<path d="M18.695 4.53582C18.4805 4.53582 18.2839 4.53582 18.0693 4.53582C18.0693 4.32131 18.0693 4.12467 18.0693 3.91016C18.2839 3.91016 18.4805 3.91016 18.695 3.91016C18.695 4.10679 18.695 4.30343 18.695 4.53582Z" fill="#FAB21E"/>
</svg>
