<svg width="12" height="14" viewBox="0 0 12 14" fill="none" xmlns="http://www.w3.org/2000/svg">
<path d="M5.23622 0.0352941C4.48928 0.150208 3.82168 0.505896 3.2991 1.06132C2.72452 1.67146 2.42629 2.37736 2.38525 3.2228C2.32779 4.40478 2.90784 5.53477 3.90924 6.18869C4.40173 6.51155 4.87507 6.67571 5.44964 6.72222C6.51396 6.8043 7.42234 6.4705 8.1556 5.72356C8.73838 5.13257 9.03387 4.48686 9.10501 3.66331C9.20351 2.56341 8.78763 1.54013 7.9586 0.823279C7.42234 0.363621 6.92985 0.133792 6.24857 0.0352941C5.92024 -0.011219 5.53719 -0.0139551 5.23622 0.0352941Z" fill="#8D8B96"/>
<path d="M2.75206 6.78304C1.51537 6.91437 0.656243 7.80085 0.256779 9.36588C-0.00861892 10.4083 -0.0770204 11.6614 0.0926153 12.3482C0.232154 12.8981 0.689076 13.4563 1.21714 13.7244C1.45517 13.8448 1.79718 13.9433 2.08447 13.9761C2.2541 13.998 3.54552 14.0035 6.01618 13.998L9.69618 13.9898L9.92875 13.9242C10.7933 13.6889 11.3843 13.1088 11.6005 12.2935C11.7127 11.8694 11.699 10.857 11.5676 10.0581C11.2804 8.27966 10.5526 7.2126 9.40069 6.8788C9.13803 6.80219 8.66742 6.74473 8.52788 6.77209C8.39382 6.79672 8.20777 6.89522 7.78641 7.16609C7.3377 7.45611 7.27477 7.48894 6.93823 7.6148C6.54971 7.75981 6.2296 7.82274 5.85475 7.82274C5.47171 7.82274 5.17621 7.76802 4.78769 7.63122C4.42106 7.49989 4.40464 7.49168 3.83007 7.12778C3.5291 6.93626 3.30475 6.81314 3.21719 6.78851C3.06398 6.75021 3.06398 6.75021 2.75206 6.78304Z" fill="#8D8B96"/>
</svg>
