<svg width="14" height="14" viewBox="0 0 14 14" fill="none" xmlns="http://www.w3.org/2000/svg">
<g clip-path="url(#clip0_118_184)">
<path d="M11.0005 0.0584936C10.2623 0.214353 9.61147 0.712009 9.27788 1.38193C8.95522 2.02998 8.94155 2.54677 9.21499 3.99873C9.30249 4.46631 9.33803 4.56201 9.45288 4.64404C9.61967 4.76162 9.81655 4.75068 9.96967 4.6167C10.1255 4.47998 10.1337 4.38974 10.038 3.87568C9.89038 3.08545 9.86303 2.86396 9.8603 2.5167C9.85756 2.22685 9.8685 2.14756 9.92045 1.99443C10.1611 1.29717 10.7736 0.845994 11.4845 0.843259C11.9685 0.840525 12.2994 0.977244 12.633 1.31357C12.8599 1.54052 12.9474 1.68545 13.0595 2.01084C13.1224 2.19951 13.1361 2.28701 13.147 2.63154C13.1771 3.64052 12.9119 4.81084 12.4333 5.75693C12.2474 6.12881 12.2201 6.28193 12.3212 6.42138C12.499 6.65927 12.7888 6.68388 12.9802 6.47607C13.0623 6.38857 13.3193 5.86357 13.4478 5.52451C13.8197 4.53467 13.981 3.70615 13.981 2.77646C13.9837 2.23779 13.94 1.96709 13.7923 1.59521C13.5927 1.08662 13.1634 0.57529 12.7369 0.334665C12.1982 0.0311499 11.5912 -0.0672879 11.0005 0.0584936Z" fill="#8D8B96"/>
<path d="M6.69913 2.243C6.54054 2.25394 6.38468 2.27581 6.35734 2.29222C6.32726 2.30863 4.92179 3.70316 3.23468 5.393C1.22765 7.40277 0.150306 8.50199 0.114759 8.57308C-0.0246937 8.85198 -0.0192249 9.19378 0.122963 9.45902C0.172181 9.54925 0.855775 10.2465 2.33234 11.7231C4.22999 13.6153 4.48703 13.8614 4.61828 13.916C4.89718 14.0336 5.21163 14.0172 5.45499 13.875C5.51515 13.8395 6.95617 12.4176 8.65968 10.7141C11.4624 7.90863 11.755 7.60511 11.7769 7.50667C11.8179 7.30159 11.7987 5.68558 11.7468 5.10042C11.6839 4.36214 11.5472 3.1098 11.5116 2.92933C11.4761 2.73792 11.3968 2.61488 11.271 2.55472C11.1835 2.5137 10.7652 2.43988 10.3851 2.40159C10.2812 2.38792 10.2566 2.39613 10.2456 2.43441C10.2319 2.48909 10.2593 2.81448 10.3085 3.13988C10.3386 3.33949 10.3468 3.35863 10.4835 3.50081C10.6585 3.68128 10.7269 3.79339 10.7843 3.99027C10.88 4.31839 10.8116 4.70941 10.612 4.97738C10.3769 5.28909 10.0761 5.44222 9.69054 5.44222C8.87023 5.44222 8.31788 4.58363 8.66242 3.84534L8.74718 3.66214L8.68976 3.3012C8.65695 3.09613 8.63234 2.79808 8.6296 2.60667L8.62687 2.27308L8.43546 2.25941C8.08546 2.23206 6.99171 2.22113 6.69913 2.243ZM7.97882 6.21605L8.23038 6.46761L8.0007 6.6973L7.76828 6.92699L7.88585 7.06644C8.09367 7.31253 8.33976 7.73089 8.33976 7.83753C8.33976 7.86214 7.82296 8.17933 7.62609 8.27503C7.61788 8.2805 7.57687 8.2012 7.53312 8.10003C7.36359 7.70081 7.04093 7.29613 6.78663 7.16761C6.57062 7.05824 6.33273 7.11292 6.24796 7.29066C6.16593 7.46292 6.20148 7.61605 6.46945 8.25042C6.7921 9.01058 6.83038 9.35238 6.63351 9.74613C6.4339 10.1563 6.05382 10.4297 5.61632 10.4817C5.40304 10.509 5.35656 10.5063 5.14874 10.4516C4.93546 10.3969 4.78781 10.334 4.57453 10.211L4.48429 10.159L4.21906 10.4243L3.95109 10.6922L3.69679 10.4407L3.44523 10.1864L3.69679 9.9348L3.94562 9.68597L3.82257 9.53831C3.75421 9.45902 3.66398 9.3387 3.61749 9.27034C3.48078 9.068 3.25656 8.60042 3.2839 8.57581C3.28937 8.56761 3.46163 8.46644 3.66398 8.34339C3.97843 8.15745 4.03585 8.13011 4.05226 8.17113C4.0632 8.19573 4.10148 8.29691 4.13976 8.39261C4.34757 8.92855 4.79054 9.41253 5.14874 9.50003C5.33742 9.54378 5.56163 9.39886 5.60812 9.19925C5.6464 9.03519 5.59171 8.83831 5.3839 8.36253C5.14054 7.80745 5.07492 7.55863 5.09132 7.24964C5.09953 7.05824 5.11867 6.97894 5.18703 6.83402C5.34835 6.48949 5.71476 6.21331 6.09484 6.15042C6.40109 6.1012 6.81124 6.19691 7.10929 6.38558L7.21046 6.44847L7.45382 6.20511C7.58781 6.07113 7.70265 5.96175 7.71085 5.96175C7.71906 5.96175 7.83937 6.07659 7.97882 6.21605Z" fill="#8D8B96"/>
</g>
<defs>
<clipPath id="clip0_118_184">
<rect width="14" height="14" fill="white"/>
</clipPath>
</defs>
</svg>
