<svg width="9" height="12" viewBox="0 0 9 12" fill="none" xmlns="http://www.w3.org/2000/svg">
<path d="M4.80464 0C5.04264 0.0406979 5.28377 0.0657427 5.51863 0.118963C7.25353 0.507158 8.64394 1.99419 8.93518 3.74733C9.10742 4.78356 8.92265 5.76657 8.54373 6.72454C8.09592 7.86408 7.43202 8.87839 6.67418 9.83323C6.10737 10.547 5.49045 11.217 4.82342 11.8368C4.58856 12.0528 4.41319 12.056 4.18145 11.8368C2.92256 10.6534 1.81712 9.34485 0.977854 7.82651C0.536302 7.02508 0.198092 6.18607 0.0571708 5.27507C-0.340539 2.71736 1.38496 0.472721 3.73364 0.0688733C3.88708 0.0406979 4.04053 0.0219142 4.19711 0C4.39753 0 4.60108 0 4.80464 0ZM6.99987 4.42667C6.94037 3.03356 5.79108 1.94724 4.43198 2.00046C3.03843 2.05368 1.94551 3.20887 1.99875 4.57068C2.05511 5.95754 3.2138 7.05325 4.56664 6.9969C5.96332 6.94055 7.05937 5.78536 6.99987 4.42667Z" fill="#8D8B96"/>
</svg>
