<svg width="18" height="20" viewBox="0 0 18 20" fill="none" xmlns="http://www.w3.org/2000/svg">
<path d="M10.6857 0.83731L10.6863 0.837581C12.3288 1.51264 13.3086 2.7149 13.6165 4.46248C13.9501 6.38117 13.0067 8.3432 11.2565 9.27964L11.2562 9.27984C9.53498 10.2026 7.86124 10.1101 6.25547 8.99455L6.25503 8.99424C4.97668 8.10823 4.31381 6.85575 4.28413 5.30193L4.28412 5.30146C4.24956 3.57841 4.98651 2.2336 6.43501 1.25727L6.4361 1.25654C7.05652 0.83599 7.75482 0.604207 8.5239 0.52452L8.53342 0.523534L8.54289 0.522184C8.58306 0.516461 8.62151 0.508049 8.65369 0.5H8.65452H8.65603H8.65754H8.65905H8.66055H8.66206H8.66357H8.66507H8.66658H8.66809H8.6696H8.6711H8.67261H8.67412H8.67563H8.67714H8.67865H8.68015H8.68166H8.68317H8.68468H8.68619H8.6877H8.68921H8.69072H8.69223H8.69373H8.69524H8.69675H8.69826H8.69977H8.70128H8.70279H8.7043H8.70581H8.70732H8.70884H8.71035H8.71186H8.71337H8.71488H8.71639H8.7179H8.71941H8.72092H8.72243H8.72395H8.72546H8.72697H8.72848H8.72999H8.7315H8.73302H8.73453H8.73604H8.73755H8.73907H8.74058H8.74209H8.74361H8.74512H8.74663H8.74814H8.74966H8.75117H8.75268H8.7542H8.75571H8.75723H8.75874H8.76025H8.76177H8.76328H8.7648H8.76631H8.76782H8.76934H8.77085H8.77237H8.77388H8.7754H8.77691H8.77843H8.77994H8.78146H8.78297H8.78449H8.786H8.78752H8.78904H8.79055H8.79207H8.79358H8.7951H8.79662H8.79813H8.79965H8.80117H8.80268H8.8042H8.80572H8.80723H8.80875H8.81027H8.81178H8.8133H8.81482H8.81633H8.81785H8.81937H8.82089H8.82241H8.82392H8.82544H8.82696H8.82848H8.83H8.83151H8.83303H8.83455H8.83607H8.83759H8.83911H8.84062H8.84214H8.84366H8.84518H8.8467H8.84822H8.84974H8.85126H8.85278H8.8543H8.85582H8.85734H8.85886H8.86038H8.8619H8.86342H8.86494H8.86646H8.86798H8.8695H8.87102H8.87254H8.87406H8.87558H8.8771H8.87862H8.88014H8.88166H8.88318H8.8847H8.88622H8.88775H8.88927H8.89079H8.89231H8.89383H8.89535H8.89687H8.8984H8.89992H8.90144H8.90296H8.90448H8.90601H8.90753H8.90905H8.91057H8.9121H8.91362H8.91514H8.91666H8.91819H8.91971H8.92123H8.92275H8.92428H8.9258H8.92732H8.92885H8.93037H8.93189H8.93342H8.93494H8.93646H8.93799H8.93951H8.94103H8.94256H8.94408H8.94561H8.94713H8.94865H8.95018H8.9517H8.95323H8.95475H8.95628H8.9578H8.95932H8.96085H8.96237H8.9639H8.96542H8.96695H8.96847H8.97H8.97152H8.97305H8.97457H8.9761H8.97762H8.97915H8.98068H8.9822H8.98373H8.98525H8.98678H8.9883H8.98983H8.99135H8.99288H8.99441H8.99593H8.99746H8.99898H9.00051H9.00204H9.00356H9.00509H9.00662H9.00814H9.00967H9.0112H9.01272H9.01425H9.01578H9.0173H9.01883H9.02036H9.02188H9.02341H9.02494H9.02647H9.02799H9.02952H9.03105H9.03257H9.0341H9.03563H9.03716H9.03868H9.04021H9.04174H9.04327H9.0448H9.04632H9.04785H9.04938H9.05091H9.05244H9.05396H9.05549H9.05702H9.05855H9.06008H9.0616H9.06313H9.06466H9.06619H9.06772H9.06925H9.07078H9.0723H9.07383H9.07536H9.07689H9.07842H9.07995H9.08148H9.08301H9.08454H9.08606H9.08759H9.08912H9.09065H9.09218H9.09371H9.09524H9.09677H9.0983H9.09983H9.10136H9.10289H9.10442H9.10595H9.10748H9.10901H9.11054H9.11207H9.1136H9.11513H9.11666H9.11819H9.11972H9.12125H9.12278H9.12431H9.12584H9.12737H9.1289H9.13043H9.13196H9.13349H9.13502H9.13655H9.13808H9.13961H9.14114H9.14267H9.1442H9.14573H9.14726H9.14879H9.15032H9.15185H9.15339H9.15492H9.15645H9.15798H9.15951H9.16104H9.16257H9.1641H9.16563H9.16716H9.1687H9.17023H9.17176H9.17329H9.17482H9.17635H9.17788H9.17941H9.18095H9.18248H9.18401H9.18554H9.18707H9.1886H9.19013H9.19167H9.1932H9.19473H9.19626H9.19779H9.19932H9.20086H9.20239H9.20392H9.20545H9.20698H9.20852H9.21005H9.21158H9.21311H9.21464H9.21618H9.21771H9.21924H9.22077H9.2223H9.22384H9.22537H9.2269H9.22843H9.22996H9.2315H9.23303H9.23456H9.23609H9.23763H9.23916H9.24069H9.24222H9.24376H9.24529H9.24682H9.24835H9.24989H9.25142H9.25295H9.25448H9.25602H9.25755H9.25908H9.26061H9.26215H9.26368H9.26521H9.26674H9.26828H9.26981H9.27134H9.27287H9.27441H9.27594H9.27747H9.27901H9.28054H9.28207H9.2836H9.28514H9.28667H9.2882H9.28974H9.29127H9.2928H9.29433H9.29587H9.2974H9.29893H9.30047H9.302H9.30353H9.30507H9.3066H9.30813H9.30937C9.4533 0.532636 9.60827 0.563333 9.7538 0.592161C9.85205 0.611624 9.946 0.630235 10.0294 0.648015C10.2742 0.700241 10.4903 0.756686 10.6857 0.83731ZM3.78422 5.31148L3.78447 5.31148L3.78422 5.31148Z" fill="#FAB21E" fill-opacity="0.2" stroke="#FAB21E"/>
<path d="M9.24434 12.4857L9.24455 12.4857C10.2746 12.4451 11.3083 12.1938 12.1868 11.5462C12.5895 11.2509 12.9633 11.2488 13.5045 11.4017L13.5068 11.4023C15.1218 11.8503 16.3334 12.8048 17.2032 14.2404L17.2043 14.2423C17.3097 14.417 17.3716 14.5195 17.4109 14.5997C17.4231 14.6246 17.4302 14.6418 17.4342 14.6527C17.4306 14.6617 17.4247 14.6748 17.4154 14.6928C17.378 14.7655 17.3153 14.863 17.2037 15.0307L17.2036 15.0309C16.2076 16.5287 14.9219 17.6995 13.3086 18.4782L13.3079 18.4785C11.8312 19.194 10.4288 19.4991 9.26512 19.4995C6.76491 19.4782 4.80527 18.8426 3.07404 17.5594C2.04974 16.7971 1.19032 15.8721 0.528132 14.7788C0.51539 14.7573 0.508247 14.7415 0.504323 14.7309C0.502362 14.7257 0.501277 14.7219 0.500689 14.7195C0.500506 14.7188 0.500368 14.7182 0.500264 14.7176C0.500756 14.716 0.501725 14.7131 0.50354 14.7088C1.35068 12.952 2.69651 11.8367 4.59033 11.3626C4.65309 11.3476 4.72026 11.335 4.79851 11.3211C4.81188 11.3187 4.82576 11.3163 4.84005 11.3137C4.90565 11.3022 4.97982 11.2892 5.05204 11.2743C5.19269 11.2453 5.32171 11.2727 5.51117 11.4022C6.63408 12.1894 7.88666 12.5387 9.24434 12.4857ZM0.499806 14.7195C0.499804 14.7195 0.499812 14.7194 0.499834 14.7193L0.499834 14.7193C0.499818 14.7194 0.499808 14.7195 0.499806 14.7195Z" fill="#FAB21E" fill-opacity="0.2" stroke="#FAB21E"/>
</svg>
