<svg width="18" height="20" viewBox="0 0 18 20" fill="none" xmlns="http://www.w3.org/2000/svg">
<path d="M4.01386 18.9674C4.01432 17.9335 4.01616 16.8992 4.02349 15.8678H4.0235V15.8643C4.0235 15.7317 4.00308 15.5875 3.93264 15.4439C3.86346 15.3028 3.76505 15.2015 3.67322 15.1245L3.67331 15.1244L3.6642 15.1171C1.70628 13.5532 0.641773 11.536 0.512317 9.04147L0.51228 9.04078C0.410805 7.1364 0.938734 5.39512 2.07497 3.85661C3.3563 2.12208 5.05739 1.04899 7.18035 0.642743C7.40652 0.600904 7.63002 0.571252 7.86572 0.539983C7.9618 0.527236 8.05991 0.51422 8.16106 0.5H8.16242H8.16457H8.16671H8.16886H8.17101H8.17316H8.17531H8.17746H8.17961H8.18176H8.18391H8.18606H8.1882H8.19035H8.1925H8.19465H8.1968H8.19895H8.20109H8.20324H8.20539H8.20754H8.20969H8.21183H8.21398H8.21613H8.21828H8.22042H8.22257H8.22472H8.22686H8.22901H8.23116H8.2333H8.23545H8.2376H8.23974H8.24189H8.24403H8.24618H8.24833H8.25047H8.25262H8.25476H8.25691H8.25906H8.2612H8.26335H8.26549H8.26764H8.26978H8.27193H8.27407H8.27622H8.27836H8.28051H8.28265H8.2848H8.28694H8.28908H8.29123H8.29337H8.29552H8.29766H8.29981H8.30195H8.30409H8.30624H8.30838H8.31052H8.31267H8.31481H8.31695H8.3191H8.32124H8.32338H8.32553H8.32767H8.32981H8.33196H8.3341H8.33624H8.33838H8.34053H8.34267H8.34481H8.34696H8.3491H8.35124H8.35338H8.35552H8.35767H8.35981H8.36195H8.36409H8.36623H8.36838H8.37052H8.37266H8.3748H8.37694H8.37908H8.38123H8.38337H8.38551H8.38765H8.38979H8.39193H8.39407H8.39621H8.39835H8.4005H8.40264H8.40478H8.40692H8.40906H8.4112H8.41334H8.41548H8.41762H8.41976H8.4219H8.42404H8.42618H8.42832H8.43046H8.4326H8.43474H8.43688H8.43902H8.44116H8.4433H8.44544H8.44758H8.44972H8.45186H8.454H8.45614H8.45828H8.46042H8.46256H8.4647H8.46684H8.46898H8.47112H8.47326H8.47539H8.47753H8.47967H8.48181H8.48395H8.48609H8.48823H8.49037H8.49251H8.49465H8.49678H8.49892H8.50106H8.5032H8.50534H8.50748H8.50962H8.51175H8.51389H8.51603H8.51817H8.52031H8.52245H8.52458H8.52672H8.52886H8.531H8.53314H8.53528H8.53741H8.53955H8.54169H8.54383H8.54597H8.54811H8.55024H8.55238H8.55452H8.55666H8.55879H8.56093H8.56307H8.56521H8.56735H8.56948H8.57162H8.57376H8.5759H8.57804H8.58017H8.58231H8.58445H8.58659H8.58872H8.59086H8.593H8.59514H8.59727H8.59941H8.60155H8.60369H8.60582H8.60796H8.6101H8.61224H8.61437H8.61651H8.61865H8.62079H8.62292H8.62506H8.6272H8.62934H8.63147H8.63361H8.63575H8.63789H8.64002H8.64216H8.6443H8.64643H8.64857H8.65071H8.65285H8.65498H8.65712H8.65926H8.6614H8.66353H8.66567H8.66781H8.66994H8.67208H8.67422H8.67636H8.67849H8.68063H8.68277H8.68491H8.68704H8.68918H8.69132H8.69345H8.69559H8.69773H8.69987H8.702H8.70414H8.70628H8.70842H8.71055H8.71269H8.71483H8.71697H8.7191H8.72124H8.72338H8.72551H8.72765H8.72979H8.73193H8.73406H8.7362H8.73834H8.74048H8.74261H8.74475H8.74689H8.74903H8.75116H8.7533H8.75544H8.75758H8.75972H8.76185H8.76399H8.76613H8.76827H8.7704H8.77254H8.77468H8.77682H8.77895H8.78109H8.78323H8.78537H8.78751H8.78964H8.79178H8.79392H8.79606H8.79819H8.80033H8.80247H8.80461H8.80675H8.80889H8.81102H8.81316H8.8153H8.81744H8.81958H8.82172H8.82385H8.82599H8.82813H8.83027H8.83241H8.83455H8.83668H8.83882H8.84096H8.8431H8.84524H8.84738H8.84952H8.85166H8.85379H8.85593H8.85807H8.86021H8.86235H8.86449H8.86663H8.86877H8.8709H8.87304H8.87518H8.87732H8.87946H8.8816H8.88374H8.88588H8.88802H8.89016H8.8923H8.89444H8.89658H8.89872H8.90086H8.903H8.90514H8.90728H8.90942H8.91156H8.9137H8.91584H8.91798H8.92012H8.92226H8.9244H8.92654H8.92868H8.93082H8.93296H8.9351H8.93724H8.93938H8.94152H8.94366H8.9458H8.94794H8.95008H8.95222H8.95437H8.95651H8.95865H8.96079H8.96293H8.96507H8.96721H8.96935H8.9715H8.97364H8.97578H8.97792H8.98006H8.9822H8.98435H8.98649H8.98863H8.99077H8.99291H8.99506H8.9972H8.99934H9.00148H9.00363H9.00577H9.00791H9.01005H9.0122H9.01434H9.01648H9.01862H9.02077H9.02291H9.02505H9.0272H9.02934H9.03148H9.03363H9.03577H9.03791H9.04006H9.0422H9.04434H9.04649H9.04863H9.05078H9.05292H9.05507H9.05721H9.05935H9.0615H9.06364H9.06579H9.06793H9.07008H9.07222H9.07437H9.07651H9.07866H9.0808H9.08295H9.08509H9.08724H9.08938H9.09153H9.09367H9.09582H9.09797H9.10011H9.10226H9.1044H9.10655H9.1087H9.11084H9.11299H9.11514H9.11728H9.11943H9.12158H9.12372H9.12587H9.12802H9.13016H9.13231H9.13446H9.13661H9.13875H9.1409H9.14305H9.1452H9.14734H9.14949H9.15164H9.15379H9.15594H9.15808H9.16023H9.16238H9.16453H9.16668H9.16883H9.17098H9.17313H9.17528H9.17743H9.17957H9.18172H9.18387H9.18602H9.18817H9.19032H9.19247H9.19277C9.42673 0.528008 9.65571 0.555608 9.88394 0.587423C11.6352 0.860763 13.1505 1.59638 14.3917 2.83873L14.3923 2.83939C16.2494 4.69139 17.0487 6.92661 16.7986 9.5323L16.7985 9.53324C16.637 11.2496 15.9801 12.768 14.8216 14.038L14.8207 14.039C12.7868 16.2799 10.2768 17.1523 7.2755 16.7224C7.1521 16.7031 7.03241 16.7159 6.93543 16.7395C6.83776 16.7633 6.71875 16.8088 6.61311 16.8915C5.74339 17.5727 4.88417 18.2631 4.02662 18.957L4.02583 18.9577C4.02184 18.9609 4.01785 18.9642 4.01386 18.9674Z" fill="#FAB21E" fill-opacity="0.2" stroke="#FAB21E"/>
</svg>
