<svg width="15" height="20" viewBox="0 0 15 20" fill="none" xmlns="http://www.w3.org/2000/svg">
<path d="M7.98369 15.8568L7.9837 15.8567L7.97962 15.8537C7.69233 15.6418 7.37074 15.5025 7.0148 15.5025C6.65823 15.5025 6.33739 15.6423 6.05203 15.8557L6.05152 15.8561C4.48265 17.0327 2.90736 18.2031 1.33102 19.3743C0.999252 19.6206 0.616048 19.4638 0.522724 19.1487C0.508995 19.094 0.502791 19.0218 0.502791 18.9114C0.502791 17.0404 0.502093 15.1702 0.501395 13.3004C0.5 9.56186 0.498605 5.82469 0.502791 2.08443V2.08387C0.502791 1.58344 0.671347 1.19597 0.931994 0.934913C1.19253 0.673965 1.57964 0.504697 2.08135 0.504698L2.0823 0.504696C5.3722 0.498435 8.6621 0.498435 11.952 0.504697H11.9529C12.4557 0.504697 12.8427 0.673085 13.1027 0.932943C13.3626 1.19275 13.5315 1.57978 13.5315 2.08387V2.10024V2.11661V2.13297V2.14934V2.1657V2.18207V2.19843V2.2148V2.23116V2.24753V2.26389V2.28025V2.29662V2.31298V2.32935V2.34571V2.36207V2.37844V2.3948V2.41116V2.42753V2.44389V2.46025V2.47661V2.49298V2.50934V2.5257V2.54206V2.55843V2.57479V2.59115V2.60751V2.62387V2.64023V2.65659V2.67296V2.68932V2.70568V2.72204V2.7384V2.75476V2.77112V2.78748V2.80384V2.8202V2.83656V2.85292V2.86928V2.88564V2.90199V2.91835V2.93471V2.95107V2.96743V2.98379V3.00015V3.01651V3.03286V3.04922V3.06558V3.08194V3.09829V3.11465V3.13101V3.14737V3.16372V3.18008V3.19644V3.21279V3.22915V3.24551V3.26186V3.27822V3.29458V3.31093V3.32729V3.34364V3.36V3.37635V3.39271V3.40907V3.42542V3.44178V3.45813V3.47448V3.49084V3.50719V3.52355V3.5399V3.55626V3.57261V3.58896V3.60532V3.62167V3.63803V3.65438V3.67073V3.68709V3.70344V3.71979V3.73615V3.7525V3.76885V3.7852V3.80156V3.81791V3.83426V3.85061V3.86696V3.88332V3.89967V3.91602V3.93237V3.94872V3.96507V3.98142V3.99778V4.01413V4.03048V4.04683V4.06318V4.07953V4.09588V4.11223V4.12858V4.14493V4.16128V4.17763V4.19398V4.21033V4.22668V4.24303V4.25938V4.27573V4.29208V4.30843V4.32477V4.34112V4.35747V4.37382V4.39017V4.40652V4.42287V4.43921V4.45556V4.47191V4.48826V4.50461V4.52095V4.5373V4.55365V4.57V4.58634V4.60269V4.61904V4.63538V4.65173V4.66808V4.68442V4.70077V4.71712V4.73346V4.74981V4.76616V4.7825V4.79885V4.81519V4.83154V4.84789V4.86423V4.88058V4.89692V4.91327V4.92961V4.94596V4.9623V4.97865V4.99499V5.01134V5.02768V5.04403V5.06037V5.07672V5.09306V5.1094V5.12575V5.14209V5.15844V5.17478V5.19112V5.20747V5.22381V5.24015V5.2565V5.27284V5.28918V5.30553V5.32187V5.33821V5.35456V5.3709V5.38724V5.40358V5.41993V5.43627V5.45261V5.46895V5.4853V5.50164V5.51798V5.53432V5.55066V5.56701V5.58335V5.59969V5.61603V5.63237V5.64871V5.66505V5.6814V5.69774V5.71408V5.73042V5.74676V5.7631V5.77944V5.79578V5.81212V5.82846V5.8448V5.86114V5.87748V5.89382V5.91016V5.9265V5.94284V5.95918V5.97552V5.99186V6.0082V6.02454V6.04088V6.05722V6.07356V6.0899V6.10624V6.12258V6.13892V6.15525V6.17159V6.18793V6.20427V6.22061V6.23695V6.25329V6.26962V6.28596V6.3023V6.31864V6.33498V6.35132V6.36765V6.38399V6.40033V6.41667V6.433V6.44934V6.46568V6.48202V6.49835V6.51469V6.53103V6.54737V6.5637V6.58004V6.59638V6.61271V6.62905V6.64539V6.66173V6.67806V6.6944V6.71074V6.72707V6.74341V6.75974V6.77608V6.79242V6.80875V6.82509V6.84143V6.85776V6.8741V6.89043V6.90677V6.9231V6.93944V6.95578V6.97211V6.98845V7.00478V7.02112V7.03745V7.05379V7.07012V7.08646V7.10279V7.11913V7.13546V7.1518V7.16813V7.18447V7.2008V7.21714V7.23347V7.24981V7.26614V7.28248V7.29881V7.31515V7.33148V7.34781V7.36415V7.38048V7.39682V7.41315V7.42948V7.44582V7.46215V7.47849V7.49482V7.51115V7.52749V7.54382V7.56015V7.57649V7.59282V7.60915V7.62549V7.64182V7.65815V7.67449V7.69082V7.70715V7.72349V7.73982V7.75615V7.77249V7.78882V7.80515V7.82149V7.83782V7.85415V7.87048V7.88682V7.90315V7.91948V7.93581V7.95215V7.96848V7.98481V8.00114V8.01748V8.03381V8.05014V8.06647V8.0828V8.09914V8.11547V8.1318V8.14813V8.16446V8.1808V8.19713V8.21346V8.22979V8.24612V8.26246V8.27879V8.29512V8.31145V8.32778V8.34411V8.36045V8.37678V8.39311V8.40944V8.42577V8.4421V8.45843V8.47476V8.4911V8.50743V8.52376V8.54009V8.55642V8.57275V8.58908V8.60541V8.62174V8.63807V8.65441V8.67074V8.68707V8.7034V8.71973V8.73606V8.75239V8.76872V8.78505V8.80138V8.81771V8.83404V8.85037V8.8667V8.88304V8.89937V8.9157V8.93203V8.94836V8.96469V8.98102V8.99735V9.01368V9.03001V9.04634V9.06267V9.079V9.09533V9.11166V9.12799V9.14432V9.16065V9.17698V9.19331V9.20964V9.22597V9.2423V9.25863V9.27496V9.29129V9.30762V9.32395V9.34028V9.35661V9.37294V9.38927V9.4056V9.42193V9.43826V9.45459V9.47092V9.48725V9.50358V9.51991V9.53624V9.55257V9.5689V9.58523V9.60155V9.61788V9.63421V9.65054V9.66687V9.6832V9.69953V9.71586V9.73219V9.74852V9.76485V9.78118V9.79751V9.81384V9.83017V9.8465V9.86283V9.87916V9.89548V9.91181V9.92814V9.94447V9.9608V9.97713V9.99346V10.0098V10.0261V10.0424V10.0588V10.0751V10.0914V10.1078V10.1241V10.1404V10.1568V10.1731V10.1894V10.2057V10.2221V10.2384V10.2547V10.2711V10.2874V10.3037V10.32V10.3364V10.3527V10.369V10.3854V10.4017V10.418V10.4343V10.4507V10.4671V10.4835V10.4999V10.5163V10.5327V10.5491V10.5655V10.5819V10.5983V10.6147V10.6311V10.6475V10.6639V10.6803V10.6967V10.7131V10.7295V10.7459V10.7623V10.7787V10.7951V10.8115V10.8279V10.8443V10.8607V10.8771V10.8935V10.9099V10.9263V10.9427V10.9591V10.9755V10.9919V11.0083V11.0247V11.0411V11.0575V11.0739V11.0903V11.1067V11.1231V11.1395V11.1559V11.1723V11.1887V11.2051V11.2215V11.2378V11.2542V11.2706V11.287V11.3034V11.3198V11.3362V11.3526V11.369V11.3854V11.4018V11.4182V11.4346V11.451V11.4674V11.4838V11.5002V11.5166V11.533V11.5494V11.5658V11.5821V11.5985V11.6149V11.6313V11.6477V11.6641V11.6805V11.6969V11.7133V11.7297V11.7461V11.7625V11.7789V11.7953V11.8117V11.828V11.8444V11.8608V11.8772V11.8936V11.91V11.9264V11.9428V11.9592V11.9756V11.992V12.0084V12.0247V12.0411V12.0575V12.0739V12.0903V12.1067V12.1231V12.1395V12.1559V12.1723V12.1887V12.205V12.2214V12.2378V12.2542V12.2706V12.287V12.3034V12.3198V12.3362V12.3526V12.3689V12.3853V12.4017V12.4181V12.4345V12.4509V12.4673V12.4837V12.5001V12.5165V12.5328V12.5492V12.5656V12.582V12.5984V12.6148V12.6312V12.6476V12.6639V12.6803V12.6967V12.7131V12.7295V12.7459V12.7623V12.7787V12.7951V12.8114V12.8278V12.8442V12.8606V12.877V12.8934V12.9098V12.9262V12.9425V12.9589V12.9753V12.9917V13.0081V13.0245V13.0409V13.0573V13.0736V13.09V13.1064V13.1228V13.1392V13.1556V13.172V13.1883V13.2047V13.2211V13.2375V13.2539V13.2703V13.2867V13.303V13.3194V13.3358V13.3522V13.3686V13.385V13.4014V13.4178V13.4341V13.4505V13.4669V13.4833V13.4997V13.5161V13.5325V13.5488V13.5652V13.5816V13.598V13.6144V13.6308V13.6471V13.6635V13.6799V13.6963V13.7127V13.7291V13.7455V13.7618V13.7782V13.7946V13.811V13.8274V13.8438V13.8602V13.8765V13.8929V13.9093V13.9257V13.9421V13.9585V13.9748V13.9912V14.0076V14.024V14.0404V14.0568V14.0732V14.0895V14.1059V14.1223V14.1387V14.1551V14.1715V14.1878V14.2042V14.2206V14.237V14.2534V14.2698V14.2862V14.3025V14.3189V14.3353V14.3517V14.3681V14.3845V14.4008V14.4172V14.4336V14.45V14.4664V14.4828V14.4991V14.5155V14.5319V14.5483V14.5647V14.5811V14.5975V14.6138V14.6302V14.6466V14.663V14.6794V14.6958V14.7121V14.7285V14.7449V14.7613V14.7777V14.7941V14.8104V14.8268V14.8432V14.8596V14.876V14.8924V14.9088V14.9251V14.9415V14.9579V14.9743V14.9907V15.0071V15.0234V15.0398V15.0562V15.0726V15.089V15.1054V15.1218V15.1381V15.1545V15.1709V15.1873V15.2037V15.2201V15.2364V15.2528V15.2692V15.2856V15.302V15.3184V15.3348V15.3511V15.3675V15.3839V15.4003V15.4167V15.4331V15.4494V15.4658V15.4822V15.4986V15.515V15.5314V15.5478V15.5641V15.5805V15.5969V15.6133V15.6297V15.6461V15.6625V15.6788V15.6952V15.7116V15.728V15.7444V15.7608V15.7772V15.7935V15.8099V15.8263V15.8427V15.8591V15.8755V15.8919V15.9082V15.9246V15.941V15.9574V15.9738V15.9902V16.0066V16.0229V16.0393V16.0557V16.0721V16.0885V16.1049V16.1213V16.1376V16.154V16.1704V16.1868V16.2032V16.2196V16.236V16.2523V16.2687V16.2851V16.3015V16.3179V16.3343V16.3507V16.3671V16.3834V16.3998V16.4162V16.4326V16.449V16.4654V16.4818V16.4982V16.5145V16.5309V16.5473V16.5637V16.5801V16.5965V16.6129V16.6293V16.6457V16.662V16.6784V16.6948V16.7112V16.7276V16.744V16.7604V16.7768V16.7932V16.8095V16.8259V16.8423V16.8587V16.8751V16.8915V16.9079V16.9243V16.9407V16.957V16.9734V16.9898V17.0062V17.0226V17.039V17.0554V17.0718V17.0882V17.1046V17.1209V17.1373V17.1537V17.1701V17.1865V17.2029V17.2193V17.2357V17.2521V17.2685V17.2849V17.3013V17.3176V17.334V17.3504V17.3668V17.3832V17.3996V17.416V17.4324V17.4488V17.4652V17.4816V17.498V17.5143V17.5307V17.5471V17.5635V17.5799V17.5963V17.6127V17.6291V17.6455V17.6619V17.6783V17.6947V17.7111V17.7275V17.7439V17.7603V17.7766V17.793V17.8094V17.8258V17.8422V17.8586V17.875V17.8914V17.9078V17.9242V17.9406V17.957V17.9734V17.9898V18.0062V18.0226V18.039V18.0554V18.0718V18.0882V18.1046V18.121V18.1374V18.1537V18.1701V18.1865V18.2029V18.2193V18.2357V18.2521V18.2685V18.2849V18.3013V18.3177V18.3341V18.3505V18.3669V18.3833V18.3997V18.4161V18.4325V18.4489V18.4653V18.4817V18.4981V18.5145V18.5309V18.5473V18.5637V18.5801V18.5965V18.6129V18.6293V18.6457V18.6621V18.6785V18.6949V18.7113V18.7277V18.7441V18.7605V18.7769V18.7933V18.8097V18.8261V18.8425C13.5315 19.0109 13.5179 19.1349 13.4887 19.2161C13.3836 19.4793 13.0249 19.6167 12.7026 19.3801C12.0567 18.8985 11.4122 18.4169 10.7675 17.9351L10.7671 17.9348C10.1223 17.4529 9.47725 16.9708 8.83056 16.4886C8.68816 16.3813 8.54598 16.2758 8.40545 16.1714L8.40472 16.1709C8.2632 16.0658 8.12333 15.962 7.98369 15.8568Z" fill="#FAB21E" fill-opacity="0.2" stroke="#FAB21E"/>
</svg>
