<svg width="12" height="12" viewBox="0 0 12 12" fill="none" xmlns="http://www.w3.org/2000/svg">
<path d="M0 6.58532C0.0674559 6.35058 0.178906 6.13638 0.419401 6.03955C0.55138 5.98673 0.703888 5.95739 0.850531 5.95739C4.01216 5.95152 7.17086 5.95446 10.3325 5.95446C10.3823 5.95446 10.4322 5.95446 10.4938 5.95446C10.4938 5.91044 10.4938 5.87523 10.4938 5.84296C10.4938 4.23499 10.4938 2.62702 10.4938 1.01905C10.4938 0.731498 10.3471 0.546639 10.0949 0.511428C9.96881 0.493822 9.84563 0.517297 9.75764 0.605324C9.54061 0.819524 9.33531 1.04253 9.11828 1.2714C9.27665 1.37703 9.24732 1.53842 9.20919 1.7086C9.13294 2.05778 9.06549 2.41282 8.99803 2.762C8.9775 2.87056 8.92764 2.95272 8.81912 2.985C8.70768 3.02021 8.61969 2.9762 8.54637 2.89991C8.05951 2.39815 7.56972 1.89933 7.08873 1.39464C6.92449 1.22445 6.99782 1.00145 7.23245 0.957434C7.63425 0.884077 8.03898 0.810721 8.44372 0.760839C8.54344 0.749102 8.65488 0.819524 8.78686 0.860604C8.95404 0.693352 9.14467 0.496757 9.34411 0.303097C9.73711 -0.0783553 10.268 -0.101829 10.6756 0.244412C10.8633 0.405796 10.9689 0.614126 10.9894 0.863537C10.9953 0.933959 10.9953 1.00438 10.9953 1.0748C10.9953 2.64756 10.9953 4.22032 10.9953 5.79601C10.9953 5.84296 10.9953 5.8899 10.9953 5.95446C11.0862 5.95446 11.1713 5.95152 11.2563 5.95446C11.5731 5.97206 11.8077 6.11878 11.9338 6.4122C12.0541 6.69682 12.0101 6.96677 11.8048 7.19565C11.7315 7.2778 11.6317 7.34236 11.532 7.3893C11.4616 7.42158 11.4323 7.46266 11.4147 7.53015C11.2182 8.22263 11.0188 8.91805 10.8223 9.61053C10.6551 10.1974 10.2973 10.614 9.72831 10.8341C9.55234 10.9016 9.3617 10.928 9.16814 10.975C9.25905 11.1569 9.3617 11.3447 9.44382 11.5413C9.47609 11.6176 9.48782 11.7173 9.47315 11.7965C9.45262 11.8934 9.36464 11.9462 9.26199 11.9521C9.14761 11.9579 9.07135 11.8992 9.02149 11.7995C8.89831 11.5559 8.7722 11.3124 8.65782 11.0659C8.61676 10.9779 8.5669 10.9515 8.47305 10.9515C6.83064 10.9544 5.18824 10.9544 3.54583 10.9515C3.44318 10.9515 3.39626 10.9838 3.35227 11.0747C3.23788 11.3183 3.11764 11.5589 2.99152 11.7965C2.9006 11.9726 2.7129 12.0078 2.58679 11.8787C2.5076 11.7995 2.49293 11.6909 2.55159 11.5647C2.62785 11.4034 2.7129 11.2449 2.79209 11.0835C2.80968 11.0454 2.82728 11.0072 2.83608 10.9838C2.62785 10.9251 2.41668 10.8899 2.22018 10.8106C1.6952 10.5964 1.36085 10.2032 1.20247 9.66335C0.997174 8.965 0.797739 8.26371 0.601237 7.56243C0.577774 7.47733 0.545514 7.42452 0.457528 7.3893C0.205302 7.28661 0.0791888 7.07828 0.00880003 6.82593C1.43171e-06 6.74084 0 6.66161 0 6.58532ZM2.85661 9.9509C2.99739 9.9509 3.10297 9.86581 3.12057 9.7367C3.13817 9.6076 3.06778 9.48436 2.9358 9.46969C2.72463 9.44621 2.64251 9.32004 2.59559 9.13225C2.51346 8.80361 2.41375 8.48084 2.31696 8.15514C2.27004 7.99963 2.14393 7.9292 2.00315 7.96735C1.87703 8.00256 1.79785 8.1346 1.83597 8.27251C1.94742 8.66864 2.05594 9.06769 2.17912 9.46088C2.27297 9.74844 2.56626 9.94797 2.85661 9.9509Z" fill="#8D8B96"/>
<path d="M4.96509 3.71756C5.01495 3.62954 5.04134 3.55911 5.0912 3.5063C5.23784 3.35078 5.39035 3.20114 5.54286 3.05149C5.66897 2.92825 5.80975 2.92238 5.91534 3.02508C6.02385 3.13071 6.01799 3.27742 5.89187 3.40653C5.73936 3.56205 5.58685 3.71463 5.42848 3.86721C5.34636 3.94643 5.24078 3.98164 5.14106 3.92003C5.0736 3.87601 5.02668 3.79092 4.96509 3.71756Z" fill="#8D8B96"/>
<path d="M6.72188 3.47748C6.65442 3.42173 6.57524 3.37772 6.52831 3.31023C6.47259 3.23394 6.48432 3.13418 6.54884 3.06082C6.64856 2.94638 6.75707 2.84075 6.86559 2.73218C6.93305 2.66176 7.0005 2.59134 7.07382 2.52679C7.1882 2.42996 7.32898 2.43582 7.42283 2.53265C7.51669 2.62949 7.52255 2.77033 7.4199 2.88183C7.25859 3.05202 7.09142 3.21633 6.92131 3.37772C6.87439 3.4188 6.804 3.4364 6.72188 3.47748Z" fill="#8D8B96"/>
<path d="M6.28212 4.94707C6.05336 4.94413 5.93605 4.7446 6.03576 4.58029C6.06509 4.5304 6.10908 4.48932 6.15014 4.44825C6.28506 4.31327 6.41703 4.17536 6.55488 4.04332C6.67219 3.93182 6.82177 3.92888 6.92149 4.03158C7.01827 4.12841 7.01827 4.27806 6.91269 4.38956C6.75725 4.55388 6.59594 4.71526 6.4317 4.86784C6.38184 4.91186 6.31145 4.9324 6.28212 4.94707Z" fill="#8D8B96"/>
</svg>
