<svg width="14" height="10" viewBox="0 0 14 10" fill="none" xmlns="http://www.w3.org/2000/svg">
<path d="M1.75037 8.41428C1.75037 8.64663 1.75037 8.86584 1.75037 9.09381C1.5225 9.09381 1.29902 9.09381 1.05801 9.09381C1.05801 8.87022 1.05801 8.65102 1.05801 8.40551C0.698685 8.40551 0.361271 8.40551 0.0107116 8.40551C0.00632955 8.33098 0.00194756 8.27399 0.00194756 8.22138C0.00194756 7.59884 -0.00243444 6.9763 0.00194756 6.34938C0.00632955 4.92018 1.07554 3.85485 2.50407 3.85485C5.50136 3.85047 8.49864 3.85047 11.4959 3.85485C12.7711 3.85485 13.7614 4.69221 13.9718 5.94166C13.9937 6.0688 13.9981 6.20471 13.9981 6.33185C14.0024 6.96754 13.9981 7.59884 13.9981 8.23453C13.9981 8.28276 13.9937 8.33098 13.9893 8.39674C13.6431 8.39674 13.3057 8.39674 12.9551 8.39674C12.9551 8.63786 12.9551 8.85707 12.9551 9.08942C12.7141 9.08942 12.495 9.08942 12.2584 9.08942C12.2584 8.86584 12.2584 8.64225 12.2584 8.40989C8.7528 8.41428 5.26035 8.41428 1.75037 8.41428Z" fill="#8D8B96"/>
<path d="M12.6003 3.4259C12.0438 3.10587 11.4566 3.14971 10.8694 3.14971C10.8606 3.11463 10.8475 3.09271 10.8475 3.06641C10.7862 2.50525 10.3742 2.11507 9.80897 2.10192C9.10346 2.08876 8.39796 2.09753 7.69246 2.10192C7.4383 2.10192 7.21044 2.19398 7.00449 2.36496C6.70213 2.09315 6.33404 2.09315 5.95719 2.09753C5.43135 2.10192 4.90551 2.11507 4.38405 2.09315C3.7881 2.06684 3.2272 2.36934 3.14394 3.14532C2.56114 3.15409 1.96519 3.08833 1.41306 3.4259C1.40867 3.34699 1.40429 3.29876 1.40429 3.25054C1.40429 2.77268 1.39991 2.2992 1.40429 1.82133C1.40429 0.756007 2.14923 0.00194847 3.2272 0.00194847C5.20787 -0.00243559 7.18415 0.00194847 9.16481 0.00194847C9.71256 0.00194847 10.2603 -0.00243559 10.8037 0.00194847C11.6845 0.0107166 12.3768 0.55434 12.5609 1.38731C12.5828 1.48815 12.5959 1.59336 12.6003 1.6942C12.6003 2.25974 12.6003 2.8209 12.6003 3.4259Z" fill="#8D8B96"/>
<path d="M10.1473 3.14568C9.21397 3.14568 8.29375 3.14568 7.37354 3.14568C7.37354 2.93525 7.48747 2.8125 7.70657 2.8125C8.10533 2.80811 8.50409 2.8125 8.90285 2.8125C9.19207 2.8125 9.48128 2.8125 9.77049 2.8125C9.98959 2.8125 10.0948 2.90456 10.1473 3.14568Z" fill="#8D8B96"/>
<path d="M6.63123 3.14069C5.69786 3.14069 4.77764 3.14069 3.85742 3.14069C3.88371 2.92587 3.9845 2.81188 4.17731 2.81188C4.88719 2.8075 5.59708 2.8075 6.30696 2.81188C6.49539 2.81188 6.60932 2.93464 6.63123 3.14069Z" fill="#8D8B96"/>
</svg>
