<svg width="20" height="20" viewBox="0 0 20 20" fill="none" xmlns="http://www.w3.org/2000/svg">
<path d="M12.1028 0.00489177C12.2886 0.122251 12.3326 0.293398 12.3326 0.503667C12.3277 2.90953 12.3277 5.32029 12.3277 7.72616C12.3277 7.80929 12.3277 7.89242 12.3277 8.00489C12.4207 8.00489 12.494 8.00489 12.5722 8.00489C14.3229 8.00489 16.0735 8.00489 17.8241 8.00489C18.2348 8.00489 18.3229 8.09291 18.3229 8.51345C18.3229 12.0293 18.3229 15.5403 18.3229 19.0562C18.3229 19.1394 18.3229 19.2225 18.3229 19.335C18.6896 19.335 19.0368 19.335 19.384 19.335C19.4671 19.335 19.5551 19.335 19.6383 19.335C19.8094 19.3301 19.9072 19.4425 19.9903 19.5697C19.9903 19.6333 19.9903 19.7017 19.9903 19.7653C19.8828 19.9658 19.7116 20 19.4965 20C13.159 19.9951 6.82164 19.9951 0.484227 19.9951C0.440218 19.9951 0.391316 19.9951 0.347306 19.9951C0.141927 19.9804 0.00500865 19.8484 0.000118677 19.6724C-0.0047713 19.4866 0.141929 19.3399 0.352198 19.335C0.714056 19.3301 1.0808 19.335 1.44755 19.3301C1.51601 19.3301 1.58447 19.3252 1.6676 19.3203C1.6676 19.2078 1.6676 19.1198 1.6676 19.0269C1.6676 12.8509 1.6676 6.67971 1.6676 0.503667C1.6676 0.288508 1.68716 0.0977995 1.9121 0C5.31063 0.00488998 8.70917 0.00489177 12.1028 0.00489177ZM11.648 19.3203C11.648 13.0905 11.648 6.88509 11.648 0.679708C8.53801 0.679708 5.44266 0.679708 2.3522 0.679708C2.3522 6.89976 2.3522 13.11 2.3522 19.3203C5.45733 19.3203 8.5429 19.3203 11.648 19.3203ZM12.3473 8.67482C12.3473 12.2347 12.3473 15.7751 12.3473 19.3154C14.1224 19.3154 15.8828 19.3154 17.6383 19.3154C17.6383 15.7604 17.6383 12.22 17.6383 8.67482C15.8681 8.67482 14.1126 8.67482 12.3473 8.67482Z" fill="#2E4489"/>
<path d="M10.3333 15.3445C10.3333 15.6281 10.3333 15.9166 10.3333 16.2003C10.3333 16.5426 10.2159 16.6599 9.88337 16.6599C9.29169 16.6599 8.7 16.6599 8.10832 16.6599C7.79047 16.6599 7.66822 16.5377 7.66822 16.2247C7.66333 15.6184 7.66333 15.0169 7.66822 14.4105C7.66822 14.1171 7.79047 13.99 8.08387 13.99C8.69511 13.9851 9.30636 13.9851 9.91761 13.99C10.2208 13.99 10.3333 14.1122 10.3381 14.4252C10.3333 14.7333 10.3333 15.0364 10.3333 15.3445ZM8.33814 15.9949C8.75379 15.9949 9.15477 15.9998 9.55575 15.99C9.58998 15.99 9.65355 15.902 9.65844 15.8531C9.66822 15.5988 9.66332 15.3494 9.66332 15.0951C9.66332 14.9582 9.66332 14.8164 9.66332 14.6746C9.20367 14.6746 8.77824 14.6746 8.34303 14.6746C8.33814 15.1098 8.33814 15.5352 8.33814 15.9949Z" fill="#2E4489"/>
<path d="M8.99829 12.6609C8.68533 12.6609 8.37237 12.6658 8.06431 12.6609C7.79536 12.656 7.66822 12.5386 7.66822 12.2648C7.66333 11.6389 7.66333 11.0179 7.66822 10.3919C7.66822 10.123 7.80025 9.99585 8.06919 9.99585C8.69511 9.99097 9.31614 9.99097 9.94206 9.99585C10.2012 9.99585 10.3333 10.1132 10.3381 10.3724C10.3479 11.0081 10.3479 11.6438 10.3381 12.2844C10.3333 12.5435 10.2061 12.656 9.94206 12.656C9.61932 12.6658 9.30636 12.6609 8.99829 12.6609ZM8.33814 11.9763C8.79291 11.9763 9.22323 11.9763 9.64866 11.9763C9.64866 11.5313 9.64866 11.1059 9.64866 10.6756C9.20367 10.6756 8.77335 10.6756 8.33814 10.6756C8.33814 11.1157 8.33814 11.5411 8.33814 11.9763Z" fill="#2E4489"/>
<path d="M10.3279 3.3445C10.3279 3.64768 10.3328 3.95575 10.3279 4.25893C10.323 4.54255 10.2056 4.65991 9.92202 4.6648C9.30588 4.66969 8.68974 4.66969 8.06872 4.6648C7.7851 4.6648 7.66285 4.54255 7.66285 4.25893C7.65796 3.64279 7.65796 3.02666 7.66285 2.40563C7.66285 2.1269 7.79488 1.99976 8.07361 1.99976C8.68974 1.99487 9.30588 1.99487 9.92691 1.99976C10.2056 1.99976 10.3279 2.1269 10.3328 2.41052C10.3328 2.71859 10.3279 3.03155 10.3279 3.3445ZM9.64818 3.98998C9.64818 3.5401 9.64818 3.11468 9.64818 2.68436C9.20319 2.68436 8.77287 2.68436 8.34255 2.68436C8.34255 3.12935 8.34255 3.55477 8.34255 3.98998C8.78265 3.98998 9.20808 3.98998 9.64818 3.98998Z" fill="#2E4489"/>
<path d="M9.00295 6.00413C9.31591 6.00413 9.62887 5.99924 9.93694 6.00413C10.201 6.00902 10.3232 6.12149 10.3281 6.38066C10.333 7.01635 10.333 7.65205 10.3281 8.29264C10.3232 8.54203 10.1961 8.66427 9.94672 8.66427C9.31102 8.66916 8.67533 8.66916 8.03474 8.66427C7.80002 8.66427 7.66799 8.53713 7.6631 8.30241C7.65332 7.65205 7.65332 7.00168 7.6631 6.35132C7.66799 6.12638 7.79513 6.00902 8.02496 6.00413C8.35258 5.99924 8.67532 6.00413 9.00295 6.00413ZM9.64843 7.98946C9.64843 7.54936 9.64843 7.11904 9.64843 6.68383C9.20344 6.68383 8.77312 6.68383 8.3428 6.68383C8.3428 7.12882 8.3428 7.55914 8.3428 7.98946C8.78779 7.98946 9.21322 7.98946 9.64843 7.98946Z" fill="#2E4489"/>
<path d="M6.32763 15.325C6.32763 15.6379 6.32763 15.9509 6.32763 16.2589C6.32274 16.5279 6.20538 16.655 5.93643 16.6599C5.31051 16.6648 4.68948 16.6648 4.06357 16.6599C3.78484 16.655 3.66748 16.5279 3.66748 16.2443C3.66748 15.633 3.66748 15.0218 3.66748 14.4105C3.66748 14.1171 3.78484 13.9949 4.07824 13.99C4.68949 13.9851 5.30073 13.9851 5.91198 13.99C6.21027 13.99 6.32763 14.1122 6.32763 14.4056C6.33252 14.7137 6.32763 15.0218 6.32763 15.325ZM4.3423 15.9802C4.79218 15.9802 5.22249 15.9802 5.6577 15.9802C5.6577 15.5352 5.6577 15.1098 5.6577 14.6697C5.2176 14.6697 4.78729 14.6697 4.3423 14.6697C4.3423 15.1098 4.3423 15.5401 4.3423 15.9802Z" fill="#2E4489"/>
<path d="M6.32787 11.3259C6.32787 11.6438 6.33276 11.9616 6.32787 12.2795C6.32298 12.5289 6.20562 12.656 5.96112 12.656C5.31565 12.6609 4.67506 12.6609 4.02958 12.656C3.79486 12.656 3.67261 12.5289 3.67261 12.2893C3.66772 11.6438 3.66772 11.0032 3.67261 10.3577C3.67261 10.123 3.80464 9.99585 4.03936 9.99585C4.67506 9.99097 5.31075 9.99097 5.95134 9.99585C6.20562 9.99585 6.32787 10.1279 6.33276 10.3871C6.33276 10.7049 6.32787 11.013 6.32787 11.3259ZM4.34254 11.9812C4.79242 11.9812 5.22274 11.9812 5.64816 11.9812C5.64816 11.5362 5.64816 11.1059 5.64816 10.6756C5.20318 10.6756 4.77775 10.6756 4.34254 10.6756C4.34254 11.1108 4.34254 11.5411 4.34254 11.9812Z" fill="#2E4489"/>
<path d="M6.32763 3.3406C6.32763 3.64378 6.32763 3.95185 6.32763 4.25502C6.32763 4.53375 6.21516 4.656 5.94621 4.66089C5.3154 4.66578 4.6846 4.66578 4.05379 4.66089C3.78484 4.656 3.66748 4.53375 3.66748 4.25992C3.66748 3.64378 3.66748 3.02764 3.66748 2.40661C3.66748 2.12789 3.78973 1.99585 4.06846 1.99585C4.6846 1.99097 5.30073 1.99097 5.92176 1.99585C6.20049 1.99585 6.32763 2.123 6.32763 2.40173C6.33252 2.71957 6.32763 3.03253 6.32763 3.3406ZM5.65281 2.68045C5.20293 2.68045 4.77262 2.68045 4.3423 2.68045C4.3423 3.12055 4.3423 3.55087 4.3423 3.98608C4.7824 3.98608 5.21271 3.98608 5.65281 3.98608C5.65281 3.55087 5.65281 3.12055 5.65281 2.68045Z" fill="#2E4489"/>
<path d="M3.66748 7.33081C3.66748 7.02763 3.66748 6.71956 3.66748 6.41638C3.66748 6.12787 3.77995 6.00562 4.06357 6.00562C4.68948 6.00073 5.31051 6.00073 5.93643 6.00562C6.21027 6.00562 6.32763 6.12787 6.32763 6.40171C6.33252 7.02763 6.33252 7.64865 6.32763 8.27457C6.32763 8.54352 6.20049 8.67066 5.93154 8.67066C5.30562 8.67555 4.6846 8.67555 4.05868 8.67066C3.78973 8.67066 3.66748 8.53863 3.66748 8.27457C3.66748 7.95672 3.66748 7.64376 3.66748 7.33081ZM4.35208 6.68044C4.35208 7.13521 4.35208 7.56552 4.35208 7.99095C4.79706 7.99095 5.22249 7.99095 5.65281 7.99095C5.65281 7.54596 5.65281 7.11565 5.65281 6.68044C5.21271 6.68044 4.78239 6.68044 4.35208 6.68044Z" fill="#2E4489"/>
<path d="M16.3227 15.3445C16.3227 15.6477 16.3227 15.9558 16.3227 16.2589C16.3179 16.5279 16.2005 16.655 15.9315 16.6599C15.3056 16.6648 14.6846 16.6648 14.0587 16.6599C13.78 16.655 13.6626 16.5279 13.6626 16.2443C13.6626 15.633 13.6626 15.0218 13.6626 14.4105C13.6626 14.1171 13.78 13.9949 14.0734 13.99C14.6846 13.9851 15.2959 13.9851 15.9071 13.99C16.2054 13.99 16.3227 14.1122 16.3227 14.4056C16.3276 14.7235 16.3227 15.0364 16.3227 15.3445ZM14.3423 14.6746C14.3423 15.1196 14.3423 15.5499 14.3423 15.9802C14.7873 15.9802 15.2176 15.9802 15.6479 15.9802C15.6479 15.5352 15.6479 15.1098 15.6479 14.6746C15.2078 14.6746 14.7726 14.6746 14.3423 14.6746Z" fill="#2E4489"/>
<path d="M16.3225 11.3318C16.3225 11.6448 16.3274 11.9577 16.3225 12.2658C16.3176 12.5396 16.2003 12.657 15.9264 12.657C15.3005 12.6619 14.6795 12.6619 14.0536 12.657C13.7797 12.657 13.6624 12.5347 13.6624 12.2609C13.6575 11.635 13.6575 11.014 13.6624 10.388C13.6624 10.1191 13.7846 9.99195 14.0584 9.99195C14.6844 9.98706 15.3054 9.98706 15.9313 9.99195C16.2003 9.99195 16.3225 10.1191 16.3225 10.388C16.3274 10.7108 16.3225 11.0237 16.3225 11.3318ZM15.6428 11.9871C15.6428 11.5323 15.6428 11.102 15.6428 10.6765C15.1978 10.6765 14.7724 10.6765 14.3421 10.6765C14.3421 11.1166 14.3421 11.5519 14.3421 11.9871C14.7822 11.9871 15.2076 11.9871 15.6428 11.9871Z" fill="#2E4489"/>
</svg>
