<svg width="12" height="13" viewBox="0 0 12 13" fill="none" xmlns="http://www.w3.org/2000/svg">
<path d="M5.90277 0C5.96537 0 6.02797 0 6.09056 0C6.1469 0.0344276 6.20323 0.0657255 6.25957 0.100153C8.09675 1.25504 9.93394 2.4068 11.7711 3.5617C12.0716 3.74948 12.0747 4.04368 11.7743 4.22834C9.92768 5.3801 8.0811 6.53186 6.23453 7.68675C6.06865 7.79003 5.92155 7.7869 5.75567 7.68362C3.92788 6.53812 2.09696 5.39888 0.266032 4.25651C0.153359 4.18765 0.0594659 4.10941 0 3.99048C0 3.92788 0 3.86528 0 3.80269C0.0563361 3.68063 0.15023 3.60238 0.262902 3.53353C0.553972 3.35826 0.838782 3.1736 1.12672 2.99207C2.71978 1.9968 4.31284 0.998401 5.90277 0Z" fill="#8D8B96"/>
<path d="M0 8.02658C0.0657255 7.86696 0.206566 7.79185 0.347406 7.7136C0.478857 7.63849 0.610308 7.50391 0.741759 7.50391C0.86695 7.50391 0.995272 7.64162 1.12046 7.71986C2.53826 8.60872 3.95918 9.49445 5.37697 10.3864C5.79323 10.6493 6.2001 10.6525 6.61636 10.3896C8.12805 9.44124 9.63974 8.49605 11.1483 7.54772C11.2328 7.49452 11.2923 7.48826 11.3768 7.54772C11.5051 7.63536 11.6428 7.71047 11.7774 7.79185C12.0716 7.97024 12.0747 8.2707 11.7836 8.45223C10.6976 9.13452 9.60844 9.81682 8.5224 10.4991C7.78064 10.9623 7.04202 11.4287 6.30339 11.895C6.23453 11.9388 6.16568 11.9795 6.09682 12.0202C6.03423 12.0202 5.97163 12.0202 5.90903 12.0202C5.85896 11.992 5.80888 11.9607 5.76193 11.9326C3.92788 10.7808 2.10322 9.63529 0.275421 8.48979C0.159619 8.4178 0.0594659 8.33956 0 8.21437C0 8.15177 0 8.08918 0 8.02658Z" fill="#8D8B96"/>
<path d="M0 5.91385C0.0594659 5.78866 0.153359 5.70416 0.275421 5.64156C0.331757 5.61339 0.381834 5.57896 0.43504 5.54454C0.757408 5.35049 0.757408 5.35049 1.07039 5.5727C1.09542 5.59148 1.12046 5.63217 1.12046 5.6666C1.12359 6.06408 1.12359 6.46469 1.12359 6.87783C1.08291 6.85592 1.05474 6.8434 1.02657 6.82775C0.776187 6.67752 0.528934 6.52103 0.275421 6.37393C0.156489 6.30507 0.0594659 6.22683 0 6.10164C0 6.03904 0 5.97645 0 5.91385Z" fill="#8D8B96"/>
<path d="M5.41113 8.30664C5.79923 8.51947 6.17167 8.52886 6.5535 8.31603C6.55663 8.36611 6.55976 8.40366 6.55976 8.44122C6.55976 8.79176 6.55663 9.14542 6.56289 9.49596C6.56289 9.56794 6.54099 9.60863 6.47839 9.64306C6.37824 9.6994 6.28747 9.76199 6.19045 9.82146C6.06213 9.8997 5.93068 9.89657 5.80236 9.81833C5.69281 9.7526 5.58014 9.68688 5.47373 9.61489C5.44556 9.59611 5.41426 9.54917 5.41426 9.51787C5.41113 9.12351 5.41113 8.7229 5.41113 8.30664Z" fill="#8D8B96"/>
<path d="M2.92952 8.01549C2.58837 7.80266 2.27226 7.60235 1.94989 7.40831C1.85913 7.3551 1.8247 7.29564 1.82783 7.18609C1.83409 6.81365 1.83096 6.44433 1.83096 6.0625C1.86226 6.07502 1.8873 6.08441 1.90608 6.09693C2.22531 6.2941 2.54142 6.49128 2.85753 6.69159C2.89196 6.7135 2.92639 6.7667 2.92952 6.80739C2.92952 7.20174 2.92952 7.59609 2.92952 8.01549Z" fill="#8D8B96"/>
<path d="M9.06682 8.01471C9.06682 7.69234 9.0856 7.38249 9.06056 7.0789C9.03866 6.82539 9.12003 6.67203 9.3485 6.55936C9.59576 6.4373 9.8211 6.27142 10.0558 6.12432C10.0871 6.10554 10.1216 6.08676 10.1685 6.05859C10.1685 6.39661 10.1529 6.72211 10.1748 7.04448C10.1904 7.26356 10.1216 7.39188 9.92751 7.49203C9.66461 7.62975 9.42362 7.80188 9.17011 7.95837C9.14194 7.97715 9.11064 7.9928 9.06682 8.01471Z" fill="#8D8B96"/>
<path d="M7.26416 9.15536C7.26416 8.72658 7.26416 8.32597 7.26729 7.92222C7.26729 7.89718 7.28607 7.86276 7.30798 7.84711C7.65225 7.62802 7.99966 7.41207 8.36584 7.18359C8.36584 7.28375 8.36584 7.36199 8.36584 7.44337C8.36584 7.75634 8.36584 8.06932 8.36271 8.3823C8.36271 8.41986 8.34707 8.47306 8.32203 8.49184C7.97775 8.7078 7.63034 8.92375 7.26416 9.15536Z" fill="#8D8B96"/>
<path d="M4.71044 9.14602C4.35051 8.91755 4.01249 8.70159 3.67761 8.48251C3.6557 8.46686 3.63692 8.42617 3.63692 8.398C3.63379 8.00052 3.63379 7.59991 3.63379 7.20243C3.64631 7.1993 3.6557 7.19304 3.65883 7.19617C3.99058 7.40586 4.32547 7.61556 4.65723 7.83151C4.6854 7.85029 4.70731 7.89098 4.70731 7.92541C4.71043 8.32289 4.71044 8.72037 4.71044 9.14602Z" fill="#8D8B96"/>
<path d="M10.87 6.8756C10.87 6.54384 10.8857 6.21522 10.8638 5.88972C10.8513 5.67689 10.917 5.55483 11.1048 5.45781C11.2237 5.39521 11.302 5.3733 11.4146 5.45781C11.5429 5.5517 11.69 5.62056 11.8215 5.70819C12.05 5.85842 12.0562 6.15575 11.8309 6.30285C11.5304 6.4969 11.2206 6.67842 10.9139 6.86621C10.9045 6.87247 10.892 6.86934 10.87 6.8756Z" fill="#8D8B96"/>
</svg>
