<svg width="13" height="12" viewBox="0 0 13 12" fill="none" xmlns="http://www.w3.org/2000/svg">
<path d="M10.5977 0C10.7417 0.0720207 10.7949 0.184749 10.7949 0.35071C10.7918 2.02597 10.7918 3.70124 10.7918 5.3765C10.7918 5.41408 10.7918 5.45166 10.7918 5.49863C10.748 5.50176 10.7135 5.50489 10.6791 5.50489C10.2376 5.50489 9.79603 5.50802 9.35451 5.50489C9.29815 5.50489 9.23865 5.49236 9.18542 5.46731C7.60097 4.7064 6.64591 3.46326 6.4048 1.7191C6.32651 1.15546 6.36722 0.573034 6.35156 0C7.76693 0 9.18229 0 10.5977 0Z" fill="#8D8B96"/>
<path d="M5.65068 0C5.64442 0.504145 5.66634 1.00829 5.62563 1.5093C5.52543 2.75558 4.98997 3.79518 4.07562 4.64377C3.70299 4.98822 3.28026 5.26065 2.81682 5.46731C2.78238 5.48297 2.7448 5.50176 2.70723 5.50176C2.21561 5.50489 1.72399 5.50489 1.21984 5.50489C1.21671 5.45479 1.21358 5.40782 1.21358 5.36398C1.21358 3.69498 1.21358 2.02911 1.21045 0.360104C1.21045 0.194143 1.25742 0.0720207 1.40772 0C2.82309 0 4.23845 0 5.65068 0Z" fill="#8D8B96"/>
<path d="M12.0038 7.12764C11.9287 7.27795 11.8065 7.32492 11.6406 7.32492C7.88297 7.32179 4.12536 7.32179 0.367758 7.32179C0.0890691 7.32179 0.00139171 7.23411 0.00139171 6.95855C0.00139171 6.80512 -0.00173963 6.65481 0.00139171 6.50138C0.00452304 6.31976 0.110988 6.21329 0.292606 6.21016C0.320788 6.21016 0.345839 6.21016 0.374021 6.21016C4.12536 6.21016 7.87357 6.21016 11.6249 6.20703C11.794 6.20703 11.9224 6.24774 12.0007 6.40117C12.0038 6.64229 12.0038 6.8834 12.0038 7.12764Z" fill="#8D8B96"/>
<path d="M0.821777 11.0469C4.2819 11.0469 7.72637 11.0469 11.1834 11.0469C11.1834 11.2943 11.1896 11.5354 11.1802 11.7733C11.1771 11.8923 11.0644 11.9831 10.9423 11.9957C10.8984 12.0019 10.8577 11.9988 10.8139 11.9988C7.60738 11.9988 4.40089 11.9988 1.19441 11.9988C0.903192 11.9988 0.821777 11.9143 0.821777 11.6199C0.821777 11.432 0.821777 11.241 0.821777 11.0469Z" fill="#8D8B96"/>
<path d="M4.98633 10.3299C4.62309 10.3299 4.27551 10.3299 3.9248 10.3299C3.9248 9.55962 3.9248 8.79871 3.9248 8.02214C4.17218 8.02214 4.41329 8.02214 4.65441 8.02214C4.75774 8.02214 4.90804 7.98769 4.95501 8.04406C5.01138 8.10668 4.9832 8.24759 4.9832 8.35719C4.98633 8.9678 4.9832 9.57528 4.9832 10.1859C4.98633 10.2297 4.98633 10.2767 4.98633 10.3299Z" fill="#8D8B96"/>
<path d="M8.07999 8.02266C8.07999 8.80237 8.07999 9.56328 8.07999 10.3305C7.72928 10.3305 7.3817 10.3305 7.0216 10.3305C7.01847 10.296 7.01534 10.2584 7.01534 10.2209C7.01534 9.52883 7.01534 8.83994 7.01221 8.14792C7.01221 8.05398 7.03413 8.01953 7.13433 8.01953C7.45059 8.02579 7.7606 8.02266 8.07999 8.02266Z" fill="#8D8B96"/>
<path d="M1.87399 10.3328C1.52328 10.3328 1.17883 10.3328 0.828125 10.3328C0.828125 9.5656 0.828125 8.80156 0.828125 8.03125C1.17257 8.03125 1.52015 8.03125 1.87399 8.03125C1.87399 8.7953 1.87399 9.55934 1.87399 10.3328Z" fill="#8D8B96"/>
<path d="M10.1279 10.3304C10.1279 9.56325 10.1279 8.80233 10.1279 8.03516C10.4755 8.03516 10.8231 8.03516 11.1769 8.03516C11.1769 8.7992 11.1769 9.56012 11.1769 10.3304C10.8325 10.3304 10.4849 10.3304 10.1279 10.3304Z" fill="#8D8B96"/>
</svg>
