<svg width="29" height="28" viewBox="0 0 29 28" fill="none" xmlns="http://www.w3.org/2000/svg">
<g clip-path="url(#clip0_69_904)">
<path d="M15.1891 22.3883C14.3453 21.8157 13.5296 21.2431 12.6857 20.6991C12.4888 20.5846 12.0388 20.6418 11.8982 20.785C11.6731 21.0426 11.9825 21.3003 12.1794 21.4721C13.5296 22.4741 14.7953 23.5048 16.5112 23.9056C18.8458 24.4782 20.7866 23.9629 22.5587 22.4455C23.3463 21.787 24.1338 21.1858 25.0058 20.6418C25.5121 20.4701 25.709 20.7277 25.6809 21.1858C25.6246 22.7318 25.8215 24.2778 25.5684 25.8238C25.0621 26.9404 24.1901 27.5989 23.0087 27.8566C21.5461 28.0856 20.0553 27.9424 18.5645 27.9711C14.4297 27.9997 10.2949 27.9711 6.16003 27.9711C5.70999 27.9711 5.23181 28.0856 4.78176 27.8566C3.90979 27.6275 3.45974 27.1122 3.45974 26.1674C3.45974 24.8791 3.45974 23.6193 3.43161 22.331C3.43161 21.9588 3.48787 21.6725 3.88166 21.5866C4.47235 21.787 5.06304 21.787 5.68186 21.5866C7.00388 21.5866 7.7352 20.2983 8.94471 20.012C9.42289 19.8975 9.90106 19.697 10.3792 19.5253C11.3918 19.2676 12.4888 19.5253 13.4733 18.9813C13.6702 18.8095 13.8671 18.8095 14.064 18.9813C14.7391 19.468 15.4142 19.9833 16.1174 20.4414C16.3986 20.6132 16.7643 20.7277 16.9893 20.3842C17.2144 20.0692 16.8768 19.8688 16.6799 19.697C15.6111 18.6664 14.6266 17.5212 13.192 16.8913C10.6605 15.8034 8.29776 15.8893 6.04752 17.4925C5.79437 17.693 5.51309 17.8647 5.23181 18.0365C3.65664 19.0386 3.54413 19.0099 3.43161 17.0917C3.37536 15.7175 2.58777 15.2022 1.35014 15.1735C0.900092 15.1735 0.337532 15.2594 0.0843793 14.7441C-0.196901 14.1429 0.337532 13.7993 0.675068 13.4271C4.75363 9.24715 8.80407 5.06719 12.8826 0.88723C14.0359 -0.315224 14.9641 -0.286594 16.1174 0.88723C16.8487 1.63161 17.5519 2.37598 18.2551 3.12036C18.3957 3.09173 18.5082 3.09173 18.6489 3.12036C19.549 3.89337 20.5616 4.58048 20.9835 5.81157C20.9272 6.41279 20.4772 6.75635 20.1397 7.1858C19.4646 7.84429 18.7614 8.47414 17.7488 8.58866C16.6799 8.27373 16.8206 6.92813 15.9767 6.44142C15.8642 6.38416 15.7517 6.29827 15.6673 6.21238C13.8952 5.35349 12.2638 6.75635 12.2357 8.2451C12.1794 10.106 13.9234 11.3085 15.5548 10.5069C16.1736 10.1919 16.6799 9.6766 17.2706 9.30441C18.3676 8.78907 19.4365 8.2451 20.3928 7.52936C21.1804 7.30032 21.9961 5.98335 22.7556 7.58662C24.6683 9.59071 26.5529 11.5948 28.4656 13.5703C29.1969 14.3433 29.2813 14.9445 28.0999 15.2308C27.5936 15.6316 26.9185 15.1449 26.4122 15.5457C25.9903 15.6602 25.7934 15.9179 25.7934 16.3474H25.8215C25.8778 17.693 25.259 18.2083 23.9651 17.9793C23.6838 17.922 23.3181 17.8934 23.0369 18.1224C22.2493 18.151 21.6586 18.5805 21.096 19.0958C19.8021 20.241 18.4239 21.1285 16.6237 21.2717C16.1174 21.3289 15.2454 21.4148 15.386 22.4169C15.3298 22.5028 15.2735 22.5028 15.1891 22.3883Z" fill="#2E4489"/>
<path d="M20.5055 7.81571C19.6617 8.70324 18.5366 9.10406 17.4396 9.56213C16.5114 9.96295 15.6394 10.0488 14.9362 9.10406C14.3736 8.33105 14.4299 7.50078 14.8237 6.69915C15.0487 6.21244 15.3862 5.78299 16.0332 6.12655V6.09792C16.3989 6.95682 15.9769 8.24516 17.4115 8.44557C17.5521 8.4742 17.6646 8.4742 17.7771 8.38831C18.5085 7.95886 19.2679 7.58667 19.8867 6.98545C20.5618 6.69915 20.9556 6.18381 21.1806 5.4967C21.5463 4.66643 22.5026 3.83616 21.8557 2.89138C21.2369 2.00385 20.3087 2.83412 19.5211 2.89138C19.3804 2.89138 19.2398 2.89138 19.0991 2.83412C18.9022 2.7196 18.7616 2.60508 18.846 2.34741C19.6054 1.71755 20.4774 1.28811 21.4619 1.11633C23.1215 0.830028 23.9653 1.74618 23.5434 3.43534C23.2902 4.40876 22.6151 5.15314 22.1932 6.04066C21.8557 6.87093 21.1525 7.30038 20.5055 7.81571Z" fill="#FAB21E"/>
</g>
<defs>
<clipPath id="clip0_69_904">
<rect width="29" height="28" fill="white"/>
</clipPath>
</defs>
</svg>
