<svg width="25" height="25" viewBox="0 0 25 25" fill="none" xmlns="http://www.w3.org/2000/svg">
<circle cx="12.5" cy="12.5" r="12.5" fill="white"/>
<path d="M8.96625 18.0564C8.89669 18.0564 8.82017 18.0564 8.75061 18.0564C8.52106 17.9725 8.3889 17.8045 8.34716 17.5666C8.33325 17.4967 8.33325 17.4267 8.33325 17.3637C8.34021 14.2221 8.34021 11.0945 8.33325 7.95987C8.33325 7.38612 8.79931 6.94531 9.33492 6.94531C11.4565 6.94531 13.5851 6.94531 15.7067 6.94531C16.2562 6.94531 16.6666 7.35813 16.6666 7.91089C16.6666 11.0805 16.6666 14.2431 16.6666 17.4127C16.6666 17.7066 16.5692 17.9445 16.277 18.0564C16.2075 18.0564 16.131 18.0564 16.0614 18.0564C15.8945 17.9445 15.7206 17.8465 15.5675 17.7206C14.6772 16.9719 13.8007 16.2092 12.9173 15.4536C12.6669 15.2437 12.3817 15.2367 12.1382 15.4536C11.2548 16.2092 10.3714 16.9579 9.49491 17.7136C9.32797 17.8465 9.17493 17.9865 8.96625 18.0564Z" fill="#FAB21E"/>
</svg>
