<svg width="375" height="166" viewBox="0 0 375 166" fill="none" xmlns="http://www.w3.org/2000/svg">
<path d="M160.552 90.6839C160.449 101.399 160.876 107.594 162.526 112.526C162.998 113.949 162.143 114.786 161.436 112.819C159.064 106.228 159.241 96.1443 159.462 93.2233C159.683 90.2876 160.552 90.6839 160.552 90.6839Z" fill="#2F1A31"/>
<path d="M168.022 48.1914H110.946V77.0347H168.022V48.1914Z" fill="#A6AB76"/>
<path d="M169.392 49.981H109.591V34.0108L139.499 3.91992L169.392 34.0108V49.981Z" fill="#CFD3A3"/>
<path d="M139.499 0.132812L104.243 35.5961L106.335 37.4602L139.499 4.11069L172.678 37.4749L174.755 35.5961L139.499 0.132812Z" fill="#EF8062"/>
<path d="M149.046 25.3086H128.994V38.7101H149.046V25.3086Z" fill="#DEEBE9"/>
<path d="M149.046 38.3984H128.994V38.7067H149.046V38.3984Z" fill="#B1CCC8"/>
<path d="M148.072 37.7353V26.3008L129.979 26.3008V37.7353H148.072Z" fill="#7CA1CE"/>
<path d="M136.273 25.834H135.285V38.1933H136.273V25.834Z" fill="#DEEBE9"/>
<path d="M142.784 25.834H141.797V38.1933H142.784V25.834Z" fill="#DEEBE9"/>
<path d="M161.849 54.5293H141.797V67.9308H161.849V54.5293Z" fill="#DEEBE9"/>
<path d="M160.862 66.956V55.5215H142.77V66.956H160.862Z" fill="#7CA1CE"/>
<path d="M149.06 55.0566H148.073V67.4159H149.06V55.0566Z" fill="#DEEBE9"/>
<path d="M155.572 55.0566H154.585V67.4159H155.572V55.0566Z" fill="#DEEBE9"/>
<path d="M150.593 38.5762H127.477V40.044H150.593V38.5762Z" fill="#DEEBE9"/>
<path d="M139.028 48.1914H136.272V75.6989H139.028V48.1914Z" fill="#CFD3A3"/>
<path d="M112.346 48.1914H109.591V75.6989H112.346V48.1914Z" fill="#CFD3A3"/>
<path d="M169.392 48.1914H166.637V75.8017H169.392V48.1914Z" fill="#CFD3A3"/>
<path d="M129.083 56.2344H119.462V76.7843H129.083V56.2344Z" fill="#DEEBE9"/>
<path d="M128.095 75.7959V57.2129H120.448V75.7959H128.095Z" fill="#CFD3A3"/>
<path d="M127.403 68.0346C127.315 68.0346 127.241 67.9612 127.241 67.8732V66.0677C127.241 65.9796 127.315 65.9062 127.403 65.9062C127.492 65.9062 127.565 65.9796 127.565 66.0677V67.8732C127.565 67.9612 127.492 68.0346 127.403 68.0346Z" fill="#436E8E"/>
<path d="M170.924 78.6337L144.037 87.0885L108.029 78.6337V75.8008H170.924V78.6337Z" fill="#CFD3A3"/>
<path d="M201.216 107.443C198.328 91.2083 202.998 72.5519 228 68.1337C244.295 65.2567 260.693 76.6325 265.216 92.4853C270.696 111.758 260.87 125.776 237.754 132.367C221.857 136.902 204.84 127.728 201.216 107.443Z" fill="#EF8062"/>
<path d="M234.674 129.037C228.604 130.109 222.549 128.978 217.378 125.764C210.998 121.786 206.652 114.96 205.149 106.52C204.148 100.928 203.794 92.7225 207.742 85.4567C211.602 78.3376 218.645 73.8166 228.663 72.0552C242.615 69.5892 257.275 79.1596 261.326 93.3977C266.114 110.219 257.599 122.652 237.356 128.421C236.457 128.67 235.573 128.89 234.674 129.037ZM228.973 73.8166C220.87 75.2551 202.483 81.2733 206.917 106.212C208.332 114.138 212.383 120.553 218.335 124.252C223.831 127.672 230.416 128.553 236.87 126.703C246.475 123.973 253.297 119.746 257.172 114.138C261.017 108.575 261.842 101.75 259.602 93.8821C255.787 80.51 242.041 71.4974 228.973 73.8166Z" fill="#F7B686"/>
<path d="M236.781 118.453L236.118 116.486C235.867 115.767 235.131 115.37 234.394 115.532C232.656 115.913 230.858 115.987 229.37 115.767C228.648 115.664 228.118 115.033 228.118 114.313V113.814C228.118 112.934 228.899 112.258 229.783 112.376C231.477 112.581 233.407 112.464 235.278 111.833C238.46 110.747 239.197 108.119 238.298 105.506C237.429 102.967 235.941 102.013 232.14 101.763C226.925 101.47 221.68 100.897 220.309 96.89C219.116 93.3965 220.074 89.1398 225.304 87.1875C225.923 86.9527 226.099 86.1307 225.879 85.4995L225.142 83.3564C224.877 82.5931 225.289 81.7565 226.055 81.4923C226.821 81.228 227.661 81.639 227.926 82.4023L228.545 84.1931C228.781 84.8977 229.518 85.3087 230.239 85.1619C231.698 84.8536 232.95 84.8096 234.026 84.9123C234.792 84.9857 235.367 85.6463 235.352 86.4096L235.337 86.8939C235.322 87.7453 234.586 88.3765 233.731 88.3031C232.538 88.2003 230.961 88.259 229.09 88.8902C225.628 90.0645 225.053 92.6186 225.687 94.468C226.497 96.8606 229.002 96.2735 233.481 96.6111C238.77 96.9781 242.615 98.7101 244.398 102.659C246.284 106.871 244.766 110.776 239.433 113.55C238.844 113.858 238.637 114.607 238.858 115.238L239.639 117.528C239.904 118.291 239.492 119.128 238.726 119.392L238.681 119.407C237.886 119.627 237.046 119.216 236.781 118.453Z" fill="#F7B686"/>
<path opacity="0.4" d="M34.3644 76.5059C2.39384 76.2857 16.3902 61.7834 21.4141 61.9448C26.438 62.0916 26.8948 67.2878 30.578 64.8512C34.2612 62.4145 37.6203 57.2183 42.6885 61.1815C47.7419 65.1447 39.4767 69.7391 47.2852 70.3409C55.1084 70.9574 58.9389 64.8512 61.694 69.8859C64.4491 74.9206 66.2907 71.8675 70.4306 72.1757C74.5706 72.484 74.2612 76.5059 69.0458 76.5059C63.8303 76.5059 35.6903 76.5059 34.3644 76.5059Z" fill="white"/>
<path d="M379.425 160.323C348.324 155.45 300.884 149.666 300.884 149.666C300.884 149.666 300.884 149.652 300.884 149.608C300.884 149.123 300.869 145.644 300.854 140.492C300.81 129.997 300.736 112.559 300.633 99.5246C300.56 89.7194 300.471 82.3948 300.368 82.3654C300.368 82.3654 339.779 75.7895 386.482 70.8281C387.057 71.8703 379.425 160.323 379.425 160.323Z" fill="#FAB21E"/>
<path d="M299.16 148.226C294.637 140.197 293.93 79.7211 300.354 82.3779C315.956 88.8218 306.026 160.409 299.16 148.226Z" fill="#331832"/>
<path d="M298.659 143.324C289.112 144.703 262.166 153.936 255.845 155.83C248.994 157.899 219.676 150.898 214.225 146.01C207.742 140.182 189.444 119.985 191.374 117.167C193.215 114.451 198.092 113.424 205.841 120.308C209.083 123.185 213.945 127.251 215.271 128.043C223.035 132.667 231.182 133.019 237.591 132.241C244.574 131.39 260.663 120.983 267.322 113.071C274.527 104.514 272.287 93.0791 285.252 95.7213C290.35 96.7635 297.76 98.0552 300.869 99.6698C306.232 102.444 303.889 142.575 298.659 143.324Z" fill="#FFB27D"/>
<path d="M283.72 123.096C283.72 123.096 263.27 135.411 260.545 136.13C257.819 136.85 238.931 139.947 237.296 139.139C235.661 138.332 236.397 130.068 242.349 127.338C248.302 124.608 257.672 120.145 261.046 115.258C264.419 110.37 273.421 96.1755 280.832 95.3828C288.228 94.6049 283.72 123.096 283.72 123.096Z" fill="#FFB27D"/>
<path d="M237.267 139.433C237.222 139.419 237.193 139.404 237.149 139.389C236.545 139.096 236.221 138.112 236.235 136.718C236.28 133.371 238.165 128.924 242.202 127.074C247.094 124.828 257.289 120.16 260.78 115.096C260.869 114.964 261.046 114.935 261.178 115.023C261.311 115.111 261.34 115.287 261.252 115.419C258.099 119.999 249.966 124.138 242.438 127.602C238.047 129.613 236.839 134.457 236.795 136.733C236.78 138.01 237.075 138.729 237.385 138.89C238.843 139.595 257.436 136.644 260.442 135.852C263.094 135.162 283.337 122.979 283.543 122.847C283.675 122.759 283.852 122.803 283.941 122.949C284.029 123.081 283.985 123.258 283.838 123.346C282.998 123.845 263.315 135.69 260.589 136.41C258.379 136.982 239.668 140.182 237.267 139.433Z" fill="#E9845C"/>
<path d="M239.138 135.853C239.064 135.824 238.991 135.765 238.961 135.692C238.902 135.545 238.976 135.384 239.123 135.325C240.155 134.914 245.326 132.918 246.357 133.109C246.888 133.211 247.403 133.828 247.948 135.031C248.331 135.853 248.582 136.646 248.582 136.69C248.626 136.837 248.538 136.998 248.39 137.057C248.243 137.101 248.081 137.013 248.022 136.866C247.359 134.782 246.578 133.74 246.239 133.681C245.562 133.549 241.643 134.958 239.33 135.868C239.271 135.868 239.197 135.868 239.138 135.853Z" fill="#E9845C"/>
<path d="M197.016 126.209C196.957 126.194 196.913 126.165 196.869 126.106C196.766 125.974 196.795 125.798 196.913 125.71C196.928 125.695 197.503 125.225 197.414 124.227C197.341 123.435 194.689 120.381 193.038 118.635C192.935 118.517 192.935 118.341 193.053 118.224C193.171 118.121 193.348 118.121 193.466 118.238C193.922 118.708 197.886 122.936 197.989 124.169C198.107 125.49 197.311 126.121 197.267 126.15C197.208 126.224 197.105 126.238 197.016 126.209Z" fill="#E9845C"/>
<path d="M-3.91214 107.202C27.1891 102.329 74.6293 96.5452 74.6293 96.5452C74.6293 96.5452 74.6293 96.5306 74.6293 96.4865C74.6293 96.0022 74.644 92.5233 74.6587 87.3712C74.7029 76.8761 74.7766 59.438 74.8797 46.4035C74.9534 36.5983 75.0418 29.2737 75.1449 29.2443C75.1449 29.2443 35.7343 22.6684 -10.9692 17.707C-11.5438 18.7492 -3.91214 107.202 -3.91214 107.202Z" fill="#2E4489"/>
<path d="M76.3532 95.1026C80.8763 87.0735 81.5834 26.5981 75.1599 29.2549C59.5577 35.6841 69.4877 107.286 76.3532 95.1026Z" fill="#331832"/>
<path d="M76.8541 90.2006C86.401 91.5804 113.348 100.813 119.668 102.707C126.519 104.776 155.837 97.7747 161.289 92.8868C167.771 87.0594 186.07 66.8618 184.139 64.0435C182.298 61.328 177.421 60.3005 169.672 67.1847C166.43 70.0617 161.569 74.1276 160.243 74.9203C152.478 79.544 144.331 79.8963 137.922 79.1183C130.939 78.267 114.85 67.8599 108.191 59.9482C100.987 51.3907 103.226 39.9561 90.2611 42.5982C85.1635 43.6404 77.7528 44.9321 74.6441 46.5467C69.2813 49.321 71.6239 89.452 76.8541 90.2006Z" fill="#FFB27D"/>
<path d="M91.7933 69.9611C91.7933 69.9611 112.243 82.2763 114.968 82.9956C117.694 83.7148 136.581 86.812 138.217 86.0047C139.852 85.1974 139.116 76.9334 133.163 74.2032C127.211 71.473 117.841 67.0107 114.467 62.1228C111.093 57.2348 102.092 43.0407 94.6809 42.2481C87.285 41.4701 91.7933 69.9611 91.7933 69.9611Z" fill="#FFB27D"/>
<path d="M138.246 86.3122C138.291 86.2976 138.32 86.2829 138.364 86.2682C138.968 85.9746 139.292 84.9912 139.278 83.5967C139.233 80.25 137.348 75.8024 133.311 73.9529C128.419 71.7071 118.224 67.0394 114.733 61.9753C114.644 61.8432 114.467 61.8138 114.335 61.9019C114.202 61.99 114.173 62.1661 114.261 62.2982C117.414 66.8779 125.547 71.0173 133.075 74.4814C137.466 76.4923 138.674 81.3362 138.718 83.6114C138.733 84.8884 138.438 85.6077 138.128 85.7691C136.67 86.4737 118.077 83.5233 115.071 82.7307C112.419 82.0408 92.1764 69.8576 91.9701 69.7255C91.8375 69.6375 91.6607 69.6815 91.5723 69.8283C91.4839 69.9604 91.5281 70.1365 91.6755 70.2246C92.5152 70.7237 112.198 82.5692 114.924 83.2885C117.134 83.8609 135.845 87.0608 138.246 86.3122Z" fill="#E9845C"/>
<path d="M136.375 82.7167C136.449 82.6873 136.523 82.6286 136.552 82.5552C136.611 82.4084 136.537 82.247 136.39 82.1883C135.359 81.7773 130.187 79.781 129.156 79.9718C128.626 80.0746 128.11 80.6911 127.565 81.8947C127.182 82.7167 126.931 83.5093 126.931 83.5534C126.887 83.7001 126.976 83.8616 127.123 83.9203C127.27 83.9644 127.432 83.8763 127.491 83.7295C128.154 81.6452 128.935 80.603 129.274 80.5443C129.952 80.4122 133.871 81.8213 136.184 82.7314C136.243 82.746 136.316 82.746 136.375 82.7167Z" fill="#E9845C"/>
<path d="M178.496 73.0858C178.555 73.0711 178.6 73.0418 178.644 72.9831C178.747 72.851 178.717 72.6748 178.6 72.5867C178.57 72.5721 178.01 72.1024 178.099 71.1042C178.172 70.3116 180.824 67.2584 182.474 65.5117C182.578 65.3943 182.578 65.2181 182.46 65.1007C182.342 64.998 182.165 64.998 182.047 65.1154C181.59 65.5851 177.627 69.8125 177.524 71.0455C177.406 72.3666 178.202 72.9977 178.246 73.0271C178.305 73.0858 178.408 73.1005 178.496 73.0858Z" fill="#E9845C"/>
<path d="M160.818 160.395L160.965 159.03C161.053 158.179 161.422 157.372 161.996 156.74L162.202 156.52C162.497 156.197 162.541 155.728 162.32 155.346L160.626 152.484C160.523 152.322 160.493 152.131 160.508 151.941L160.523 151.764C160.538 151.574 160.626 151.397 160.759 151.251L163.057 148.843C163.366 148.52 163.425 148.036 163.19 147.654L161.333 144.587L161.613 142.077L164.486 134.723L171.145 135.471L168.317 160.498C168.184 161.716 167.595 162.832 166.667 163.639L165.296 164.828C165.002 165.092 164.53 165.048 164.295 164.74L160.818 160.395Z" fill="#E28569"/>
<path d="M163.956 164.329L167.256 135.075L165.901 134.928L162.762 162.832L163.956 164.329Z" fill="#C76F54"/>
<path d="M180.575 127.427C181.326 120.719 176.494 114.671 169.761 113.922C163.028 113.174 156.958 117.988 156.206 124.696C155.455 131.405 160.287 137.452 167.02 138.201C173.753 138.949 179.823 134.135 180.575 127.427ZM165.842 119.867C166.033 118.106 167.639 116.843 169.392 117.034C171.16 117.225 172.427 118.825 172.236 120.572C172.044 122.333 170.438 123.596 168.685 123.405C166.917 123.214 165.65 121.629 165.842 119.867Z" fill="#E28569"/>
<path d="M165.724 118.72C163.352 117.017 161.761 113.92 161.436 112.804L162.527 112.511C163.028 114.155 165.532 118.279 168.508 118.705C168.818 118.749 169.142 118.705 169.436 118.587C172.634 117.34 175.374 113.098 177.009 106.815C178.659 100.489 178.969 92.8561 177.864 86.4122C177.053 81.7591 174.225 71.0145 165.311 71.5869H165.267C159.978 71.5136 159.271 75.3153 159.241 75.4914C158.77 75.7703 158.328 75.9905 157.915 76.1666C157.93 76.1079 158.74 70.398 165.267 70.442C172.177 70.0163 177.171 75.7556 178.983 86.2067C180.133 92.7974 179.794 100.606 178.114 107.08C176.538 113.112 174.048 117.281 170.954 119.087C169.82 119.747 168.449 119.923 167.212 119.468C166.74 119.321 166.225 119.072 165.724 118.72Z" fill="#2F1A31"/>
<path d="M158.46 118.882L165.827 120.071C165.827 119.998 165.827 119.939 165.842 119.866C166.033 118.222 167.433 117.003 169.053 117.018L168.803 113.847C164.634 113.701 160.803 115.682 158.46 118.882Z" fill="#E28569"/>
</svg>
