<svg width="70" height="70" viewBox="0 0 70 70" fill="none" xmlns="http://www.w3.org/2000/svg">
<g opacity="0.1">
<g filter="url(#filter0_d_171_259)">
<path d="M10 30C10 18.9543 18.9543 10 30 10C41.0457 10 50 18.9543 50 30C50 41.0457 41.0457 50 30 50C18.9543 50 10 41.0457 10 30Z" fill="#2E4489"/>
</g>
</g>
<path d="M26.0815 38.0006C25.9817 37.9772 25.8848 37.9566 25.785 37.9331C24.746 37.6778 24.0034 36.7415 24.0034 35.6701C24.0005 33.0138 23.9975 30.3575 24.0034 27.7011C24.0063 26.4214 25.0454 25.3794 26.3251 25.3735C28.2066 25.3677 30.0851 25.3677 31.9665 25.3735C33.2374 25.3765 34.2824 26.4155 34.2882 27.6865C34.2941 30.3516 34.2941 33.0197 34.2882 35.6848C34.2853 36.8324 33.4282 37.804 32.2894 37.9742C32.263 37.9772 32.2365 37.9918 32.2072 38.0006C30.1672 38.0006 28.1244 38.0006 26.0815 38.0006ZM25.1745 31.6724C25.1745 32.9756 25.1745 34.2788 25.1745 35.5821C25.1745 36.3335 25.6706 36.8266 26.4249 36.8266C28.2359 36.8266 30.0469 36.8266 31.8608 36.8266C32.624 36.8266 33.1171 36.3335 33.1171 35.5733C33.1171 32.9815 33.1171 30.3868 33.1171 27.7951C33.1171 27.0348 32.624 26.5417 31.8608 26.5417C30.0528 26.5417 28.2476 26.5417 26.4396 26.5417C25.6647 26.5447 25.1745 27.0348 25.1745 27.8068C25.1745 29.0953 25.1745 30.3839 25.1745 31.6724Z" fill="#2E4489"/>
<path d="M36.6331 29.7111C36.6331 31.1963 36.6331 32.6786 36.6331 34.1638C36.6331 34.5894 36.2604 34.8711 35.87 34.7479C35.641 34.6745 35.4767 34.469 35.462 34.2283C35.4591 34.1755 35.4591 34.1197 35.4591 34.0669C35.4591 31.1758 35.4591 28.2875 35.4591 25.3964C35.4591 24.7595 35.0658 24.284 34.4523 24.1842C34.3672 24.1695 34.2762 24.1724 34.1881 24.1724C32.0689 24.1724 29.9498 24.1724 27.8306 24.1724C27.4578 24.1724 27.1966 23.9318 27.1936 23.5913C27.1907 23.2831 27.4284 23.0277 27.7337 23.0042C27.7689 23.0013 27.8012 23.0013 27.8364 23.0013C29.9791 23.0013 32.1247 22.9984 34.2674 23.0013C35.4062 23.0013 36.3484 23.7674 36.5803 24.8827C36.6155 25.053 36.6273 25.232 36.6273 25.4052C36.6331 26.8405 36.6331 28.2758 36.6331 29.7111Z" fill="#2E4489"/>
<defs>
<filter id="filter0_d_171_259" x="0" y="0" width="70" height="70" filterUnits="userSpaceOnUse" color-interpolation-filters="sRGB">
<feFlood flood-opacity="0" result="BackgroundImageFix"/>
<feColorMatrix in="SourceAlpha" type="matrix" values="0 0 0 0 0 0 0 0 0 0 0 0 0 0 0 0 0 0 127 0" result="hardAlpha"/>
<feOffset dx="5" dy="5"/>
<feGaussianBlur stdDeviation="7.5"/>
<feComposite in2="hardAlpha" operator="out"/>
<feColorMatrix type="matrix" values="0 0 0 0 0 0 0 0 0 0 0 0 0 0 0 0 0 0 0.05 0"/>
<feBlend mode="normal" in2="BackgroundImageFix" result="effect1_dropShadow_171_259"/>
<feBlend mode="normal" in="SourceGraphic" in2="effect1_dropShadow_171_259" result="shape"/>
</filter>
</defs>
</svg>
