<svg width="24" height="15" viewBox="0 0 24 15" fill="none" xmlns="http://www.w3.org/2000/svg">
<path d="M0 7.36007C0.110639 7.17567 0.221277 6.9544 0.331916 6.80688C1.9915 4.74162 3.90923 2.97141 6.23264 1.60686C7.74471 0.721754 9.36741 0.131681 11.1376 0.0210423C12.7603 -0.0895964 14.3093 0.24232 15.7844 0.869272C17.9235 1.79126 19.7306 3.11892 21.3533 4.7785C22.0171 5.44234 22.644 6.17993 23.271 6.91752C23.6398 7.32319 23.6029 7.65511 23.271 8.09766C21.6114 10.1998 19.6568 12.0069 17.3334 13.3714C15.4894 14.4409 13.5348 15.0679 11.3958 14.9941C9.9206 14.9204 8.51918 14.5147 7.19151 13.8878C4.42555 12.5232 2.17589 10.4948 0.295036 8.09766C0.184398 7.98703 0.147518 7.80263 0.0737591 7.69199C0 7.54447 0 7.47071 0 7.36007ZM21.7589 7.50759C21.2795 6.99128 20.8738 6.51184 20.3944 6.06929C18.8823 4.52035 17.2227 3.22956 15.2313 2.34445C14.2355 1.9019 13.2029 1.64374 12.0965 1.56998C10.4369 1.49622 8.88797 1.93878 7.44967 2.71325C5.82697 3.56148 4.38867 4.70475 3.13476 5.99553C2.65533 6.47496 2.21277 6.99128 1.73334 7.50759C2.21277 8.0239 2.61845 8.50334 3.09788 8.94589C4.60994 10.458 6.26952 11.7856 8.26102 12.6338C9.25677 13.0764 10.2894 13.3346 11.3958 13.4083C13.0554 13.4821 14.6043 13.0395 16.0426 12.2651C17.444 11.5275 18.7348 10.5686 19.8781 9.46221C20.505 8.87213 21.0951 8.2083 21.7589 7.50759Z" fill="#989898"/>
<path d="M16.3749 7.50815C16.3749 10.0897 14.2728 12.155 11.7281 12.155C9.14654 12.155 7.08128 10.0528 7.11816 7.50815C7.11816 4.92658 9.2203 2.86133 11.765 2.86133C14.3097 2.89821 16.3749 4.96346 16.3749 7.50815ZM14.826 7.50815C14.826 5.81169 13.4246 4.41027 11.7281 4.41027C10.0316 4.41027 8.63022 5.77481 8.63022 7.50815C8.63022 9.20461 10.0316 10.6429 11.7281 10.606C13.4614 10.606 14.8629 9.20461 14.826 7.50815Z" fill="#989898"/>
</svg>
