<svg width="14" height="11" viewBox="0 0 14 11" fill="none" xmlns="http://www.w3.org/2000/svg">
<path d="M8.71995 2.82527C8.63663 2.82527 8.56311 2.82527 8.4896 2.82527C5.90189 2.82527 3.31907 2.82527 0.731357 2.82527C0.648042 2.82527 0.559824 2.83017 0.476507 2.81547C0.18735 2.76156 -0.0184919 2.49201 0.00111189 2.20285C0.0207166 1.90389 0.260864 1.66864 0.564724 1.65394C0.623536 1.64904 0.687249 1.65394 0.746061 1.65394C3.32397 1.65394 5.90679 1.65394 8.4847 1.65884C8.65133 1.65884 8.73465 1.62453 8.79836 1.453C9.18064 0.409093 10.2294 -0.16432 11.342 0.0415206C12.3712 0.227758 13.1406 1.17365 13.1406 2.24206C13.1406 3.33988 12.3761 4.25636 11.293 4.4524C10.2343 4.64353 9.19044 4.06032 8.80326 3.05562C8.77386 2.9821 8.74935 2.91349 8.71995 2.82527ZM10.8911 1.16874C10.2932 1.16874 9.81776 1.63434 9.81286 2.23226C9.80796 2.82527 10.2834 3.30557 10.8813 3.31047C11.4792 3.31537 11.9546 2.83998 11.9595 2.24696C11.9644 1.64904 11.489 1.16874 10.8911 1.16874Z" fill="#FAB21E"/>
<path d="M2.40752 8.80529C1.8047 8.80529 1.21658 8.81019 0.623564 8.80529C0.182476 8.80039 -0.101781 8.41321 0.040347 8.02113C0.123664 7.78588 0.339307 7.63395 0.603959 7.63395C1.13817 7.62905 1.66747 7.63395 2.20168 7.63395C2.27029 7.63395 2.334 7.63395 2.36341 7.59475C2.54965 7.30069 2.70158 6.96742 2.92702 6.71257C4.03954 5.45792 6.11265 5.8745 6.67137 7.45262C6.72038 7.59475 6.77919 7.63395 6.92622 7.63395C8.77878 7.62905 10.6314 7.63395 12.4839 7.62905C12.7388 7.62905 12.9397 7.71237 13.0622 7.93781C13.2681 8.31029 13.0132 8.76118 12.5819 8.80039C12.5231 8.80529 12.4594 8.80529 12.4006 8.80529C10.5774 8.80529 8.75918 8.80529 6.93602 8.80039C6.79389 8.80039 6.73018 8.83469 6.68117 8.98172C6.37241 9.8639 5.53434 10.452 4.60805 10.4569C3.66217 10.4618 2.8241 9.8933 2.49083 9.01113C2.46143 8.94741 2.43692 8.8886 2.40752 8.80529ZM4.57375 9.28558C5.16677 9.28558 5.64706 8.81019 5.64706 8.21227C5.64706 7.61925 5.16677 7.13896 4.57375 7.14386C3.97583 7.14386 3.50534 7.61435 3.50043 8.21717C3.50043 8.80529 3.98073 9.28558 4.57375 9.28558Z" fill="#FAB21E"/>
</svg>
