<svg width="288" height="200" viewBox="0 0 288 200" fill="none" xmlns="http://www.w3.org/2000/svg">
<path d="M130.763 0.128462L82.1758 14.7461L92.0306 47.5019L140.617 32.8843L130.763 0.128462Z" fill="white"/>
<path d="M140.588 32.8621C140.588 32.8621 140.521 32.6605 140.386 32.2573C140.252 31.8541 140.05 31.2493 139.849 30.51C139.378 28.9644 138.706 26.7467 137.833 23.9242C136.085 18.2119 133.599 10.0804 130.575 0.134405L130.776 0.201608C117.336 4.23377 100.468 9.34118 82.1887 14.8518L82.3231 14.6502C85.8177 26.3435 89.1778 37.4319 92.1347 47.3779L91.9331 47.2435C106.247 42.9425 118.344 39.3808 126.946 36.8271C131.247 35.5502 134.607 34.5422 136.959 33.8702C138.101 33.5341 139.042 33.2653 139.647 33.0637C139.916 32.9965 140.185 32.9293 140.319 32.8621C140.521 32.8621 140.588 32.8621 140.588 32.8621C140.588 32.8621 140.521 32.8621 140.386 32.9293C140.252 32.9965 139.983 33.0637 139.714 33.1309C139.109 33.3325 138.236 33.6014 137.093 33.9374C134.741 34.6766 131.381 35.6846 127.147 36.9615C118.545 39.5824 106.382 43.2785 92.0675 47.6467L91.9331 47.7139L91.8659 47.5795C88.8418 37.6335 85.5489 26.4779 81.9871 14.8518L81.9199 14.7174L82.0543 14.6502C100.333 9.13957 117.269 4.09937 130.642 0.0672027L130.776 0L130.843 0.134405C133.8 10.1476 136.287 18.3463 137.967 24.0586C138.773 26.8811 139.445 29.0988 139.916 30.6444C140.117 31.3837 140.319 31.9885 140.386 32.3917C140.521 32.6605 140.588 32.8621 140.588 32.8621Z" fill="#E0E0E0"/>
<path d="M130.709 0.134766C130.709 0.134766 130.709 0.201968 130.642 0.269171C130.575 0.403576 130.507 0.537982 130.44 0.672387C130.239 1.0756 129.903 1.61323 129.567 2.28525C128.76 3.69651 127.618 5.64539 126.206 8.13189C123.317 13.0377 119.285 19.8924 114.849 27.4191L114.782 27.5535L114.648 27.4863C114.177 27.2847 113.64 27.083 113.169 26.8814C104.634 23.5213 96.906 20.5644 91.261 18.3467C88.5057 17.2715 86.2208 16.3306 84.6752 15.7258C83.9359 15.3898 83.3311 15.1882 82.8607 14.9866C82.6591 14.9194 82.5247 14.8522 82.3903 14.785C82.2559 14.7178 82.2559 14.7178 82.2559 14.7178C82.2559 14.7178 82.3231 14.7178 82.3903 14.785C82.5247 14.8522 82.6591 14.8522 82.8607 14.9194C83.3311 15.0538 83.9359 15.3226 84.6752 15.5914C86.288 16.1962 88.5729 17.0698 91.3282 18.1451C96.9733 20.2956 104.702 23.3197 113.236 26.6126C113.774 26.8142 114.244 27.0158 114.715 27.2175L114.513 27.2847C119.016 19.758 123.048 12.9705 126.005 7.99748C127.483 5.57818 128.626 3.62931 129.499 2.21805C129.903 1.54602 130.239 1.0084 130.44 0.672387C130.575 0.537982 130.642 0.403576 130.709 0.269171C130.709 0.134766 130.709 0.134766 130.709 0.134766Z" fill="#E0E0E0"/>
<path d="M242.463 64.8494L240.872 116.973L278.956 118.136L280.548 66.0123L242.463 64.8494Z" fill="#F5F5F5"/>
<path d="M235.446 71.7459L233.855 123.869L271.94 125.032L273.531 72.9088L235.446 71.7459Z" fill="white"/>
<path d="M271.902 125.064C271.902 125.064 271.902 124.996 271.902 124.795C271.902 124.593 271.902 124.392 271.902 124.056C271.902 123.384 271.969 122.443 271.969 121.233C272.036 118.747 272.104 115.118 272.238 110.548C272.507 101.408 272.843 88.371 273.313 72.9816L273.448 73.116C261.956 72.78 249.053 72.3767 235.344 71.9735L235.545 71.7719C234.94 91.2607 234.403 109.271 233.932 123.854L233.798 123.72C245.29 124.123 254.832 124.392 261.485 124.66C264.778 124.795 267.399 124.862 269.147 124.929C270.02 124.996 270.692 124.996 271.163 124.996C271.7 124.996 271.902 125.064 271.902 125.064C271.902 125.064 271.7 125.064 271.23 125.064C270.759 125.064 270.087 125.064 269.214 124.996C267.467 124.929 264.846 124.862 261.553 124.795C254.9 124.593 245.357 124.324 233.798 124.056H233.664V123.921C234.134 109.271 234.672 91.2607 235.209 71.7719V71.5703H235.411C249.053 71.9735 262.023 72.3767 273.515 72.78H273.649V72.9144C273.179 88.371 272.708 101.408 272.44 110.615C272.305 115.185 272.171 118.814 272.104 121.3C272.036 122.51 272.036 123.451 271.969 124.123C271.969 124.459 271.969 124.66 271.969 124.862C271.902 124.929 271.902 125.064 271.902 125.064Z" fill="#E0E0E0"/>
<path d="M258.663 83.8013C258.663 83.8685 254.497 83.8685 249.389 83.6669C244.282 83.5325 240.115 83.3308 240.115 83.1964C240.115 83.1292 244.282 83.1292 249.389 83.3308C254.497 83.5325 258.663 83.7341 258.663 83.8013Z" fill="#E0E0E0"/>
<path d="M268.542 88.6401C268.542 88.7073 262.158 88.6401 254.295 88.3713C246.432 88.1024 240.048 87.8336 240.048 87.7664C240.048 87.6992 246.432 87.7664 254.295 88.0352C262.158 88.3041 268.542 88.5729 268.542 88.6401Z" fill="#E0E0E0"/>
<path d="M268.34 93.3432C268.34 93.4104 261.956 93.3432 254.093 93.0744C246.23 92.8056 239.846 92.5368 239.846 92.4696C239.846 92.4023 246.23 92.4696 254.093 92.7384C261.956 93.0072 268.34 93.276 268.34 93.3432Z" fill="#E0E0E0"/>
<path d="M268.206 98.1147C268.206 98.1819 261.822 98.1147 253.959 97.8459C246.096 97.577 239.712 97.3082 239.712 97.241C239.712 97.1738 246.096 97.241 253.959 97.5098C261.822 97.7115 268.206 97.9803 268.206 98.1147Z" fill="#E0E0E0"/>
<path d="M268.071 102.82C268.071 102.887 261.687 102.82 253.824 102.551C245.961 102.282 239.577 102.013 239.577 101.946C239.577 101.879 245.961 101.946 253.824 102.215C261.687 102.484 268.071 102.753 268.071 102.82Z" fill="#E0E0E0"/>
<path d="M267.937 107.525C267.937 107.592 261.553 107.525 253.69 107.256C245.827 106.987 239.443 106.718 239.443 106.651C239.443 106.584 245.827 106.651 253.69 106.92C261.553 107.189 267.937 107.458 267.937 107.525Z" fill="#E0E0E0"/>
<path d="M267.803 112.296C267.803 112.364 261.418 112.296 253.556 112.028C245.693 111.759 239.309 111.49 239.309 111.423C239.309 111.355 245.693 111.423 253.556 111.691C261.418 111.893 267.803 112.162 267.803 112.296Z" fill="#E0E0E0"/>
<path d="M254.429 116.597C254.429 116.664 251.002 116.664 246.768 116.529C242.534 116.395 239.107 116.193 239.107 116.126C239.107 116.059 242.534 116.059 246.768 116.193C251.002 116.328 254.429 116.529 254.429 116.597Z" fill="#E0E0E0"/>
<path d="M160.364 37.1L148.457 67.0078L185.92 81.9228L197.827 52.015L160.364 37.1Z" fill="white"/>
<path d="M197.777 52.0147C197.777 52.0147 197.71 52.0147 197.576 51.9475C197.441 51.8803 197.307 51.8131 197.038 51.7459C196.568 51.5443 195.896 51.2755 195.022 50.9395C193.275 50.2674 190.654 49.1922 187.361 47.9153C180.775 45.2944 171.434 41.5983 160.278 37.1629L160.345 37.0957C156.784 46.0337 152.751 56.2485 148.451 67.0009L148.383 66.9337C162.227 72.4443 175.13 77.6189 185.815 81.8527H185.748C189.377 72.8475 192.334 65.388 194.417 60.1462C195.492 57.5253 196.299 55.5092 196.836 54.098C197.105 53.426 197.307 52.8883 197.508 52.4851C197.71 52.2163 197.777 52.0147 197.777 52.0147C197.777 52.0147 197.71 52.2163 197.576 52.5523C197.441 52.8883 197.24 53.426 196.971 54.1652C196.433 55.5764 195.627 57.5925 194.552 60.2134C192.468 65.4552 189.511 72.9147 185.95 81.9871V82.0543H185.882C175.197 77.8205 162.294 72.6459 148.451 67.1353H148.383V67.0681C152.684 56.2485 156.784 46.0337 160.278 37.1629V37.0957H160.345C171.501 41.5311 180.842 45.2944 187.428 47.9153C190.721 49.2594 193.275 50.2674 195.089 51.0067C195.963 51.3427 196.635 51.6115 197.105 51.8131C197.307 51.8803 197.508 51.9475 197.643 52.0147C197.777 52.0147 197.777 52.0147 197.777 52.0147Z" fill="#E0E0E0"/>
<path d="M160.86 39.524L150.444 65.6855L185.222 79.5316L195.638 53.3701L160.86 39.524Z" fill="#EBEBEB"/>
<path d="M150.601 65.7916L169.216 54.3672L172.711 67.5389L179.969 64.1116L185.412 79.6354L150.601 65.7916Z" fill="#E0E0E0"/>
<path d="M180.775 56.6526C180.17 58.1983 178.49 58.9375 176.944 58.3327C175.399 57.7278 174.66 56.0478 175.264 54.5021C175.869 52.9564 177.549 52.2172 179.095 52.822C180.641 53.4269 181.38 55.1069 180.775 56.6526Z" fill="#E0E0E0"/>
<path d="M62.7672 85.1461C62.7672 85.1461 63.036 85.3477 63.5736 85.2805C63.8424 85.2805 64.1784 85.1461 64.4472 84.8773C64.7161 84.6085 64.9177 84.1381 65.1865 83.7349C66.1945 81.9204 67.7402 79.2995 69.5547 76.141C70.0251 75.3345 70.4955 74.5281 71.0331 73.6545C71.3019 73.184 71.5707 72.7808 71.7723 72.3104C71.9067 72.1088 72.0412 71.84 72.1084 71.6384C72.1756 71.4368 72.1756 71.168 72.1084 70.8991C72.0412 70.6975 71.9068 70.4287 71.7051 70.2943C71.5035 70.1599 71.2347 70.0255 71.0331 69.8911C70.5627 69.6223 70.0251 69.3535 69.5547 69.0847C68.5466 68.547 67.4714 67.9422 66.4633 67.3374C62.1624 64.9181 57.5254 62.2972 52.5524 59.5419C52.0148 59.2059 51.2755 59.4075 50.9395 59.9451C50.6035 60.5499 50.2675 61.1548 49.8643 61.7596C49.1922 62.9692 48.5202 64.1117 47.8482 65.2541C46.5041 67.539 45.2273 69.7567 43.9504 71.9072C43.816 72.176 43.6144 72.4448 43.48 72.7136C43.3456 72.9824 43.2784 73.184 43.2784 73.4528C43.2784 73.7217 43.4128 73.9905 43.5472 74.1921C43.6816 74.3937 43.9504 74.5281 44.2192 74.6625C45.2273 75.2001 46.2353 75.8049 47.1762 76.3426C49.0578 77.4178 50.8051 78.4258 52.418 79.2995C55.6437 81.114 58.1974 82.5924 60.0119 83.6677C60.8855 84.2053 61.5575 84.6085 62.0952 84.8773C62.2968 85.0117 62.4984 85.1461 62.6328 85.2133C62.7 85.1461 62.7672 85.1461 62.7672 85.1461C62.7672 85.1461 62.7 85.1461 62.5656 85.0789C62.4312 85.0117 62.2296 84.8773 62.028 84.8101C61.5575 84.5413 60.8183 84.1381 59.9447 83.6677C58.1302 82.6596 55.5093 81.1812 52.2836 79.4339C50.6707 78.5603 48.9234 77.5522 46.9745 76.477C46.0337 75.9393 45.0257 75.4017 44.0176 74.8641C43.7488 74.7297 43.48 74.5953 43.2784 74.3265C43.0768 74.0577 42.9424 73.7217 42.9424 73.3856C42.9424 73.0496 43.0096 72.7136 43.2112 72.4448C43.3456 72.176 43.5472 71.9072 43.6816 71.6384C44.8913 69.4879 46.1681 67.2702 47.5122 64.9853C48.1842 63.8429 48.8562 62.6332 49.5282 61.4908C49.8643 60.8859 50.2003 60.2811 50.6035 59.6763C51.0067 59.0043 52.0147 58.7355 52.6868 59.1387C57.5926 61.894 62.2968 64.5821 66.5305 66.9342C67.6058 67.539 68.6138 68.1438 69.6219 68.6815C70.1595 68.9503 70.6299 69.2191 71.1003 69.5551C71.3691 69.6895 71.5707 69.8239 71.8395 70.0255C72.1084 70.2271 72.2428 70.4959 72.31 70.7647C72.3772 71.0335 72.3772 71.3696 72.31 71.6384C72.2428 71.9072 72.0412 72.1088 71.9067 72.3776C71.6379 72.848 71.3691 73.2512 71.1003 73.7217C70.5627 74.5953 70.0923 75.4017 69.6219 76.2082C67.7402 79.3667 66.2617 81.9876 65.1865 83.7349C64.9177 84.1381 64.7161 84.6085 64.4472 84.8773C64.1784 85.1461 63.7752 85.2805 63.5064 85.2805C63.2376 85.2805 63.036 85.2133 62.9016 85.2133C62.7672 85.2133 62.7672 85.1461 62.7672 85.1461Z" fill="#E0E0E0"/>
<path d="M59.2055 71.3698L60.8856 74.3939L57.391 74.4611L53.8965 74.5283L55.711 71.437L57.5254 68.3457L59.2055 71.3698Z" fill="#E0E0E0"/>
<path d="M287.09 199.526C287.09 199.66 222.844 199.727 143.545 199.727C64.2458 199.727 0 199.66 0 199.526C0 199.391 64.2458 199.324 143.545 199.324C222.844 199.324 287.09 199.391 287.09 199.526Z" fill="#263238"/>
<path d="M71.033 156.783L50.7378 136.421L60.9526 117.671C71.1674 104.634 92.7395 105.441 92.7395 105.441C92.7395 105.441 107.457 104.029 124.594 107.389C141.73 110.75 140.386 122.107 140.386 122.107L142.671 164.176L145.158 198.382L81.9198 199.659L71.033 156.783Z" fill="#2E4489"/>
<path d="M105.105 197.709L48.4527 198.381C34.8106 198.516 25.7382 184.403 31.5848 172.105L55.845 127.146L77.8875 142.065L62.8341 173.315L108.734 174.121L105.105 197.709Z" fill="#2E4489"/>
<path d="M138.37 115.252L183.866 185.479L157.321 187.226C157.321 187.226 141.461 162.227 141.865 162.764C142.469 163.705 138.37 115.252 138.37 115.252Z" fill="#2E4489"/>
<path d="M76.745 146.098C76.745 146.098 76.745 145.964 76.8122 145.762C76.8794 145.493 76.9466 145.157 77.081 144.754C77.2826 143.88 77.6186 142.603 77.8874 140.991C78.2234 139.378 78.5594 137.496 78.7611 135.346C78.9627 133.195 79.0971 130.843 78.7611 128.424C78.425 126.004 77.4842 123.787 76.409 121.972C75.3337 120.158 74.1241 118.612 73.0488 117.402C71.9736 116.193 70.9655 115.319 70.2935 114.714C69.6215 114.109 69.2183 113.841 69.2183 113.773C69.2183 113.773 69.3527 113.841 69.5543 113.975C69.7559 114.109 70.0247 114.311 70.3607 114.58C71.0999 115.117 72.108 115.991 73.1832 117.201C74.3257 118.343 75.5353 119.889 76.6778 121.771C77.753 123.652 78.6938 125.87 79.0971 128.356C79.4331 130.843 79.2987 133.195 79.0299 135.346C78.7611 137.496 78.425 139.378 78.089 140.991C77.753 142.603 77.417 143.88 77.1482 144.754C77.0138 145.224 76.9466 145.56 76.8122 145.762C76.8122 145.964 76.745 146.098 76.745 146.098Z" fill="#263238"/>
<path d="M74.9308 148.518C74.9308 148.518 74.7964 148.921 74.5276 149.526C74.2588 150.198 73.8555 151.071 73.3179 152.214C72.3099 154.499 70.8314 157.657 69.1513 161.084C67.4713 164.512 65.8584 167.603 64.716 169.821C64.1111 170.896 63.6407 171.837 63.3047 172.442C62.9687 173.047 62.7671 173.383 62.7671 173.383C62.7671 173.383 62.9015 173.047 63.2375 172.375C63.5735 171.703 64.0439 170.829 64.5816 169.754C65.724 167.469 67.2697 164.377 68.9497 161.017C70.6298 157.59 72.1083 154.499 73.1835 152.214C73.7211 151.138 74.1243 150.265 74.4604 149.526C74.7292 148.854 74.9308 148.518 74.9308 148.518Z" fill="#263238"/>
<path d="M105.105 197.709C105.105 197.709 105.105 197.642 105.105 197.575C105.105 197.508 105.105 197.373 105.105 197.239C105.105 196.903 105.172 196.5 105.239 195.895C105.374 194.685 105.575 193.005 105.777 190.855C106.247 186.487 106.986 180.371 107.793 173.18L107.927 173.382C102.82 173.382 97.1748 173.382 91.1937 173.382C79.7693 173.382 69.4201 173.315 61.8934 173.315C58.1972 173.315 55.1059 173.248 53.0226 173.248C52.0146 173.248 51.2081 173.248 50.6033 173.248C50.3345 173.248 50.1329 173.248 49.9985 173.248C49.8641 173.248 49.7969 173.248 49.7969 173.248C49.7969 173.248 49.8641 173.248 49.9985 173.248C50.1329 173.248 50.3345 173.248 50.6033 173.248C51.2081 173.248 52.0146 173.248 53.0226 173.248C55.1731 173.248 58.1972 173.248 61.8934 173.18C69.4201 173.18 79.7693 173.18 91.1937 173.113C97.1748 173.113 102.82 173.113 107.927 173.113H108.129V173.315C107.255 180.506 106.516 186.621 105.978 190.989C105.71 193.14 105.508 194.82 105.306 196.029C105.239 196.567 105.172 197.037 105.105 197.373C105.105 197.508 105.037 197.642 105.037 197.709C105.172 197.642 105.105 197.709 105.105 197.709Z" fill="#263238"/>
<path d="M63.2377 173.785C63.1705 173.785 62.8344 173.248 62.0952 172.374C61.4232 171.5 60.3479 170.358 59.0711 169.283C57.7942 168.208 56.4502 167.334 55.5094 166.796C54.5685 166.259 53.8965 165.99 53.8965 165.923C53.8965 165.855 54.5685 166.057 55.5766 166.595C56.5846 167.065 57.9286 167.872 59.2727 169.014C60.6168 170.156 61.6248 171.299 62.2968 172.24C62.9688 173.113 63.2377 173.785 63.2377 173.785Z" fill="#263238"/>
<path d="M143.612 178.221C143.612 178.221 143.545 178.02 143.545 177.616C143.478 177.213 143.41 176.676 143.343 175.936C143.209 174.458 143.007 172.375 142.738 169.754C142.268 164.579 141.73 157.321 141.26 149.391C140.79 141.461 140.454 134.203 140.252 128.962C140.185 126.341 140.117 124.257 140.05 122.779C140.05 122.04 140.05 121.502 140.05 121.099C140.05 120.696 140.05 120.494 140.05 120.494C140.05 120.494 140.05 120.696 140.117 121.099C140.117 121.502 140.185 122.107 140.185 122.779C140.252 124.257 140.386 126.408 140.454 128.962C140.722 134.203 141.058 141.394 141.529 149.324C141.999 157.254 142.47 164.512 142.873 169.687C143.074 172.24 143.209 174.391 143.343 175.869C143.41 176.541 143.41 177.146 143.478 177.549C143.612 178.02 143.612 178.221 143.612 178.221Z" fill="#263238"/>
<path d="M93.0082 140.051C93.0082 140.051 93.0082 139.715 93.0754 139.11C93.1426 138.438 93.277 137.631 93.4114 136.556C93.6802 134.338 94.0834 131.314 94.5539 127.753L94.8227 127.887C93.4786 128.828 92.0002 129.836 90.4545 130.911C88.9088 131.986 87.4304 133.062 86.0191 134.002L85.6831 134.204L85.7503 133.801C86.2879 130.306 86.7584 127.282 87.0944 125.132C87.296 124.124 87.4304 123.25 87.4976 122.645C87.632 122.04 87.632 121.771 87.6992 121.771C87.6992 121.771 87.6992 122.107 87.632 122.712C87.5648 123.317 87.4304 124.191 87.296 125.266C86.96 127.484 86.5567 130.508 86.0863 134.002L85.8175 133.868C87.1616 132.927 88.7072 131.852 90.2529 130.777C91.7986 129.701 93.277 128.693 94.6211 127.753L94.9571 127.551L94.8899 127.954C94.3523 131.449 93.949 134.473 93.613 136.69C93.4786 137.766 93.3442 138.572 93.2098 139.244C93.1426 139.715 93.0754 140.051 93.0082 140.051Z" fill="#E0E0E0"/>
<path d="M118.344 142.738C118.344 142.738 118.075 142.536 117.672 142.066C117.201 141.596 116.663 140.991 115.924 140.184C114.379 138.572 112.295 136.287 109.943 133.666L110.212 133.599C110.078 135.279 109.943 137.026 109.742 138.908C109.607 140.789 109.406 142.604 109.271 144.284V144.687L109.002 144.418C106.65 141.797 104.634 139.512 103.156 137.832C102.484 137.026 101.879 136.421 101.476 135.883C101.072 135.413 100.871 135.211 100.938 135.144C100.938 135.144 101.207 135.346 101.61 135.816C102.08 136.287 102.618 136.891 103.357 137.698C104.836 139.311 106.919 141.596 109.271 144.217L109.002 144.284C109.137 142.604 109.271 140.789 109.473 138.908C109.607 137.026 109.809 135.279 109.943 133.599V133.195L110.212 133.464C112.564 136.085 114.647 138.37 116.126 140.05C116.798 140.856 117.403 141.461 117.806 141.999C118.142 142.469 118.344 142.738 118.344 142.738Z" fill="#E0E0E0"/>
<path d="M131.045 141.865C131.045 141.865 130.911 142.134 130.575 142.672C130.239 143.209 129.768 143.949 129.231 144.822C128.021 146.704 126.341 149.258 124.459 152.282L124.325 152.013C125.938 151.744 127.752 151.408 129.567 151.139C131.448 150.803 133.196 150.534 134.876 150.266L135.279 150.198L135.077 150.534C133.128 153.491 131.381 155.978 130.171 157.859C129.567 158.733 129.096 159.405 128.76 159.943C128.424 160.413 128.223 160.682 128.223 160.682C128.223 160.682 128.357 160.413 128.693 159.876C129.029 159.338 129.499 158.599 130.037 157.725C131.247 155.843 132.927 153.29 134.808 150.333L134.943 150.602C133.263 150.87 131.515 151.206 129.634 151.542C127.819 151.878 126.005 152.147 124.392 152.416L123.989 152.483L124.19 152.147C126.139 149.19 127.819 146.637 129.096 144.755C129.701 143.881 130.171 143.142 130.507 142.672C130.843 142.134 131.045 141.865 131.045 141.865Z" fill="#E0E0E0"/>
<path d="M114.11 154.901C114.11 154.901 113.976 155.17 113.64 155.707C113.304 156.245 112.833 156.984 112.296 157.858C111.086 159.739 109.406 162.293 107.524 165.317L107.39 165.048C109.003 164.779 110.817 164.443 112.632 164.175C114.513 163.839 116.26 163.57 117.941 163.301L118.344 163.234L118.142 163.57C116.193 166.527 114.446 169.013 113.236 170.895C112.632 171.769 112.161 172.441 111.825 172.978C111.489 173.449 111.287 173.717 111.287 173.717C111.287 173.717 111.422 173.449 111.758 172.911C112.094 172.373 112.564 171.634 113.102 170.761C114.312 168.879 115.992 166.325 117.873 163.368L118.008 163.637C116.328 163.906 114.58 164.242 112.699 164.578C110.884 164.914 109.07 165.183 107.457 165.452L107.054 165.519L107.255 165.183C109.204 162.226 110.884 159.672 112.161 157.79C112.766 156.917 113.236 156.178 113.572 155.707C113.908 155.102 114.11 154.834 114.11 154.901Z" fill="#E0E0E0"/>
<path d="M150.668 141.662C150.668 141.662 150.534 141.931 150.198 142.469C149.862 143.006 149.391 143.745 148.854 144.619C147.644 146.501 145.964 149.054 144.082 152.079L143.948 151.81C145.561 151.541 147.375 151.205 149.19 150.936C151.071 150.6 152.819 150.331 154.499 150.062L154.902 149.995L154.7 150.331C152.751 153.288 151.004 155.775 149.794 157.656C149.19 158.53 148.719 159.202 148.383 159.74C148.047 160.21 147.846 160.479 147.846 160.479C147.846 160.479 147.98 160.21 148.316 159.672C148.652 159.135 149.122 158.396 149.66 157.522C150.87 155.64 152.55 153.087 154.431 150.13L154.566 150.398C152.886 150.667 151.139 151.003 149.257 151.339C147.442 151.675 145.628 151.944 144.015 152.213L143.612 152.28L143.813 151.944C145.762 148.987 147.442 146.434 148.719 144.552C149.324 143.678 149.794 142.939 150.13 142.469C150.467 141.931 150.668 141.662 150.668 141.662Z" fill="#E0E0E0"/>
<path d="M65.0519 130.91C65.0519 130.91 64.9175 131.179 64.5815 131.717C64.2455 132.254 63.775 132.993 63.2374 133.867C62.0278 135.749 60.3477 138.302 58.466 141.327L58.3316 141.058C59.9445 140.789 61.759 140.453 63.5734 140.184C65.4551 139.848 67.2024 139.579 68.8824 139.31L69.2857 139.243L69.0841 139.579C67.1352 142.536 65.3879 145.023 64.1783 146.904C63.5734 147.778 63.103 148.45 62.767 148.988C62.431 149.458 62.2294 149.727 62.2294 149.727C62.2294 149.727 62.3638 149.458 62.6998 148.92C63.0358 148.383 63.5062 147.644 64.0438 146.77C65.2535 144.888 66.9336 142.335 68.8152 139.378L68.9496 139.647C67.2696 139.915 65.5223 140.251 63.6406 140.587C61.8262 140.923 60.0117 141.192 58.3988 141.461L57.9956 141.528L58.1972 141.192C60.1461 138.235 61.8262 135.682 63.103 133.8C63.7078 132.926 64.1783 132.187 64.5143 131.717C64.8503 131.179 65.0519 130.91 65.0519 130.91Z" fill="#E0E0E0"/>
<path d="M38.5065 181.179C38.5065 181.179 38.7081 181.38 39.1114 181.851C39.5146 182.321 40.0522 182.993 40.7242 183.8C42.1355 185.547 44.0844 187.899 46.302 190.654L46.0332 190.722C46.302 189.109 46.5037 187.294 46.7725 185.48C47.0413 183.598 47.3101 181.784 47.5789 180.171L47.6461 179.768L47.9149 180.104C50.0654 182.859 51.9471 185.278 53.3583 187.025C53.9632 187.832 54.5008 188.571 54.904 189.042C55.24 189.512 55.4416 189.781 55.4416 189.781C55.4416 189.781 55.24 189.579 54.8368 189.109C54.4336 188.638 53.8959 187.966 53.2239 187.16C51.8127 185.413 49.931 183.061 47.7133 180.305L47.9821 180.238C47.7133 181.918 47.4445 183.665 47.1757 185.547C46.9069 187.361 46.6381 189.176 46.3692 190.789L46.302 191.192L46.0332 190.923C43.8155 188.168 41.9339 185.749 40.5226 184.001C39.8506 183.195 39.3802 182.456 38.9769 181.985C38.6409 181.448 38.4393 181.179 38.5065 181.179Z" fill="#E0E0E0"/>
<path d="M99.1908 148.652C99.1908 148.652 98.8548 148.719 98.25 148.786C97.5779 148.854 96.7715 148.921 95.6963 148.988C93.4786 149.122 90.3873 149.391 86.8927 149.66L87.0271 149.391C88.2368 150.534 89.5136 151.743 90.9249 153.02C92.2689 154.297 93.613 155.574 94.8226 156.716L95.0914 156.985H94.6882C91.1937 157.187 88.1024 157.321 85.8847 157.456C84.8094 157.523 84.003 157.523 83.331 157.59C82.7261 157.59 82.3901 157.59 82.3901 157.59C82.3901 157.59 82.7261 157.523 83.331 157.456C84.003 157.388 84.8094 157.321 85.8847 157.254C88.1024 157.12 91.1265 156.918 94.6882 156.649L94.5538 156.918C93.3442 155.775 92.0001 154.499 90.6561 153.222C89.312 151.945 87.968 150.735 86.8255 149.593L86.5567 149.324H86.9599C90.5217 149.122 93.5458 148.921 95.7635 148.786C96.8387 148.719 97.6451 148.719 98.3172 148.652C98.8548 148.585 99.1908 148.585 99.1908 148.652Z" fill="#E0E0E0"/>
<path d="M84.272 182.522C84.272 182.522 84.5408 182.724 84.8768 183.194C85.28 183.665 85.8848 184.337 86.5569 185.143C88.0353 186.823 89.9842 189.175 92.2691 191.931L92.0003 191.998C92.2019 190.385 92.4035 188.57 92.6723 186.756C92.9411 184.874 93.1427 183.06 93.3443 181.38L93.4115 180.977L93.6804 181.245C95.898 184.001 97.8469 186.353 99.2582 188.1C99.9302 188.906 100.468 189.579 100.871 190.116C101.207 190.587 101.409 190.855 101.409 190.855C101.409 190.855 101.207 190.654 100.804 190.183C100.401 189.713 99.863 189.041 99.1238 188.234C97.7125 186.554 95.7636 184.202 93.4787 181.514L93.7475 181.447C93.5459 183.127 93.2771 184.942 93.0755 186.823C92.8067 188.638 92.6051 190.452 92.4035 192.065L92.3363 192.468L92.0675 192.199C89.7826 189.444 87.8337 187.092 86.4225 185.345C85.7504 184.538 85.2128 183.866 84.8096 183.329C84.4736 182.791 84.272 182.522 84.272 182.522Z" fill="#E0E0E0"/>
<path d="M57.6596 157.656C57.6596 157.656 57.3235 157.723 56.7187 157.791C56.0467 157.858 55.2403 157.925 54.165 157.992C51.9473 158.127 48.856 158.395 45.3615 158.664L45.4959 158.395C46.7055 159.538 47.9824 160.748 49.3936 162.024C50.7377 163.301 52.0817 164.578 53.2914 165.721L53.5602 165.989H53.157C49.6624 166.191 46.5711 166.325 44.3534 166.46C43.2782 166.527 42.4718 166.527 41.7997 166.594C41.1949 166.594 40.8589 166.594 40.8589 166.594C40.8589 166.594 41.1949 166.527 41.7997 166.46C42.4718 166.393 43.2782 166.325 44.3534 166.258C46.5711 166.124 49.5952 165.922 53.157 165.653L53.0226 165.922C51.8129 164.78 50.4689 163.503 49.1248 162.226C47.7808 160.949 46.4367 159.74 45.2943 158.597L45.0255 158.328H45.4287C48.9904 158.127 52.0145 157.925 54.2322 157.791C55.3075 157.723 56.1139 157.723 56.7859 157.656C57.3235 157.656 57.6596 157.656 57.6596 157.656Z" fill="#E0E0E0"/>
<path d="M80.5087 181.715C80.5087 181.715 80.1727 181.782 79.5678 181.849C78.8958 181.916 78.0894 181.984 77.0141 182.051C74.7965 182.185 71.7051 182.454 68.2106 182.723L68.345 182.454C69.5546 183.597 70.8315 184.806 72.2427 186.083C73.5868 187.36 74.9309 188.637 76.1405 189.779L76.4093 190.048H76.0061C72.5116 190.25 69.4202 190.384 67.2025 190.518C66.1273 190.586 65.3209 190.586 64.6488 190.653C64.044 190.653 63.708 190.653 63.708 190.653C63.708 190.653 64.044 190.586 64.6488 190.518C65.3209 190.451 66.1273 190.384 67.2025 190.317C69.4202 190.182 72.4444 189.981 76.0061 189.712L75.8717 189.981C74.662 188.838 73.318 187.561 71.9739 186.285C70.6299 185.008 69.2858 183.798 68.1434 182.656L67.8746 182.387H68.2778C71.8395 182.185 74.8637 181.984 77.0813 181.849C78.1566 181.782 78.963 181.782 79.635 181.715C80.1727 181.715 80.5087 181.715 80.5087 181.715Z" fill="#E0E0E0"/>
<path d="M132.12 120.495C132.12 120.495 131.784 120.562 131.179 120.629C130.507 120.696 129.701 120.764 128.625 120.831C126.408 120.965 123.316 121.234 119.822 121.503L119.956 121.234C121.166 122.376 122.443 123.586 123.854 124.863C125.198 126.14 126.542 127.417 127.752 128.559L128.021 128.828H127.617C124.123 129.029 121.032 129.164 118.814 129.298C117.739 129.365 116.932 129.365 116.26 129.433C115.655 129.433 115.319 129.433 115.319 129.433C115.319 129.433 115.655 129.365 116.26 129.298C116.932 129.231 117.739 129.164 118.814 129.097C121.032 128.962 124.056 128.761 127.617 128.492L127.483 128.761C126.273 127.618 124.929 126.341 123.585 125.064C122.241 123.788 120.897 122.578 119.755 121.436L119.486 121.167H119.889C123.451 120.965 126.475 120.764 128.693 120.629C129.768 120.562 130.574 120.562 131.246 120.495C131.784 120.495 132.12 120.428 132.12 120.495Z" fill="#E0E0E0"/>
<path d="M107.054 181.715C107.054 181.715 118.344 178.489 122.107 177.481C123.586 177.078 129.835 180.371 134.136 183.126C134.136 183.126 140.05 186.621 139.58 187.763C139.042 188.973 136.892 188.704 133.397 187.091C133.397 187.091 134.607 190.653 132.255 190.586C132.255 190.586 133.464 194.416 131.179 194.819C128.962 195.222 128.424 190.317 126.408 190.048C124.459 189.779 120.36 189.51 120.36 189.51C120.36 189.51 116.932 195.155 114.312 195.559C111.691 195.962 105.575 195.222 105.575 195.222L107.054 181.715Z" fill="#FFBE9D"/>
<path d="M126.341 182.521C126.408 182.454 127.819 183.261 129.499 184.336C131.179 185.411 132.523 186.352 132.456 186.419C132.389 186.486 130.978 185.68 129.298 184.605C127.618 183.53 126.274 182.589 126.341 182.521Z" fill="#EB996E"/>
<path d="M125.669 184.671C125.736 184.603 127.416 185.275 129.432 186.216C131.448 187.157 133.061 187.964 133.061 188.098C132.994 188.165 131.314 187.493 129.297 186.552C127.214 185.611 125.601 184.805 125.669 184.671Z" fill="#EB996E"/>
<path d="M126.878 189.98C126.878 189.913 128.021 189.98 129.432 190.182C130.843 190.384 131.919 190.585 131.919 190.72C131.919 190.787 130.776 190.72 129.365 190.518C127.954 190.316 126.878 190.047 126.878 189.98Z" fill="#EB996E"/>
<path d="M92.336 65.1189C92.6048 65.9925 92.2688 67.0006 91.5968 67.6054C90.9248 68.2102 89.8495 68.2774 89.0431 67.8742C87.4974 67.0678 87.2958 64.9845 87.6318 63.3044C87.9006 61.6244 88.5055 59.8099 87.7662 58.2642C87.2286 57.0546 86.019 56.3154 85.1453 55.3745C83.5325 53.7617 82.726 51.3424 83.062 49.0575C83.4653 46.7726 85.1453 44.7565 87.363 44.1517C89.5807 43.5468 92.4032 44.2189 94.0833 42.606C95.2929 41.3964 95.3601 39.5147 96.301 38.1034C97.7794 35.8857 100.871 35.5497 103.424 35.9529C106.045 36.2889 108.666 37.1626 111.22 36.4906C113.37 35.9529 115.118 34.4745 117.067 33.5336C121.368 31.5848 126.945 32.5928 130.238 36.0873C133.531 39.5147 134.271 45.0925 132.12 49.3263C131.314 50.8719 130.104 52.216 128.558 52.888" fill="#263238"/>
<path d="M105.307 120.629C112.497 120.629 118.344 114.715 118.277 107.525L118.075 95.1593C118.075 95.1593 128.424 94.1513 129.163 83.8692C129.836 73.5872 129.365 49.8647 129.365 49.8647C117.739 44.0852 103.895 45.0933 93.21 52.4184L91.5972 53.4936L92.4036 107.861C92.4036 114.917 98.183 120.629 105.307 120.629Z" fill="#FFBE9D"/>
<path d="M126.61 68.4116C124.795 68.0756 124.795 65.7235 126.61 65.3203C126.677 65.3203 126.811 65.3203 126.879 65.3203C128.693 65.6563 128.693 68.0084 126.879 68.4116C126.744 68.4116 126.677 68.4116 126.61 68.4116Z" fill="#263238"/>
<path d="M128.626 65.1193C128.424 65.3209 127.483 64.4473 126.072 64.3801C124.661 64.2457 123.585 64.9849 123.451 64.7833C123.384 64.7161 123.585 64.3801 124.056 64.0441C124.526 63.7081 125.266 63.4393 126.139 63.5065C127.013 63.5737 127.752 63.9769 128.155 64.3129C128.558 64.7161 128.693 65.0521 128.626 65.1193Z" fill="#263238"/>
<path d="M112.228 65.4556C112.9 65.926 113.102 66.8669 112.632 67.5389C112.161 68.2109 111.22 68.4125 110.548 67.9421C109.876 67.4717 109.675 66.5308 110.145 65.8588C110.615 65.1868 111.556 64.9852 112.228 65.4556Z" fill="#263238"/>
<path d="M113.169 65.5236C112.968 65.7252 112.027 64.8516 110.615 64.7844C109.204 64.65 108.129 65.3892 107.995 65.1876C107.927 65.1204 108.129 64.7844 108.599 64.4484C109.07 64.1124 109.809 63.8436 110.683 63.9108C111.556 63.978 112.296 64.3812 112.699 64.7172C113.102 65.1204 113.236 65.4564 113.169 65.5236Z" fill="#263238"/>
<path d="M118.209 77.5518C118.209 77.4174 119.083 77.283 120.494 77.2158C120.897 77.2158 121.166 77.1486 121.233 76.947C121.301 76.7454 121.166 76.3422 121.032 75.8718C120.696 74.9309 120.427 73.9229 120.091 72.9148C118.747 68.7483 117.873 65.2537 118.075 65.1865C118.276 65.1193 119.553 68.4795 120.83 72.646C121.166 73.6541 121.435 74.6621 121.704 75.603C121.838 76.0062 122.04 76.5438 121.838 77.1486C121.704 77.4174 121.435 77.6862 121.166 77.6862C120.897 77.7534 120.696 77.7534 120.561 77.7534C119.083 77.7534 118.209 77.6862 118.209 77.5518Z" fill="#263238"/>
<path d="M113.505 78.8965C115.32 79.7701 117.47 80.7782 120.36 81.3158C120.36 81.3158 118.546 83.8695 115.656 82.5926C112.632 81.2486 113.505 78.8965 113.505 78.8965Z" fill="white"/>
<path d="M118.075 94.9565C118.075 94.9565 111.556 95.1581 104.836 90.3867C104.836 90.3867 107.591 97.9806 117.94 97.5774L118.075 94.9565Z" fill="#EB996E"/>
<path d="M129.365 52.4181C129.365 52.4181 123.182 55.5766 114.916 51.6788C109.54 49.1251 103.223 47.9155 101.879 49.0579C100.535 50.1332 100.333 55.711 95.0914 57.3911C95.0914 57.3911 95.629 67.9419 91.4624 67.6059C87.2287 67.3371 89.5807 50.9396 89.5807 50.9396L99.7284 45.6978L110.884 43.3457L121.502 44.6226L129.701 46.7058L129.365 52.4181Z" fill="#263238"/>
<path d="M92.2689 64.1783C92.0673 64.1111 85.2799 61.6918 85.1455 68.7481C85.011 75.8043 92.0673 74.5275 92.1345 74.3259C92.1345 74.1243 92.2689 64.1783 92.2689 64.1783Z" fill="#FFBE9D"/>
<path d="M89.9841 71.5708C89.9841 71.5708 89.8497 71.638 89.6481 71.7724C89.4465 71.8396 89.1104 71.9068 88.7072 71.7724C87.968 71.5036 87.3632 70.294 87.3632 69.0171C87.3632 68.3451 87.4976 67.7403 87.7664 67.2698C87.968 66.7322 88.304 66.3962 88.7072 66.329C89.1104 66.2618 89.3121 66.4634 89.4465 66.665C89.5137 66.8666 89.5137 67.001 89.5137 67.001C89.5137 67.001 89.6481 66.8666 89.6481 66.5978C89.6481 66.4634 89.5137 66.2618 89.3793 66.1274C89.2448 65.993 88.976 65.9258 88.7072 65.9258C88.1696 65.9258 87.632 66.4634 87.4304 67.001C87.1616 67.5387 86.96 68.2107 86.96 68.9499C86.96 70.3612 87.6992 71.7052 88.7072 72.0412C89.1776 72.1756 89.6481 72.0412 89.8497 71.9068C89.9841 71.7724 90.0513 71.5708 89.9841 71.5708Z" fill="#EB996E"/>
<path d="M88.6399 42.1361C88.5727 42.0689 89.7823 41.7329 91.0592 42.2033C92.4032 42.6737 93.0753 43.6817 92.9409 43.7489C92.8736 43.8161 92.1344 43.0097 90.9248 42.5393C89.7823 42.0689 88.6399 42.2033 88.6399 42.1361Z" fill="#263238"/>
<path d="M92.8739 37.9023C93.0083 37.9023 92.8067 39.3808 93.0755 41.1281C93.3443 42.8753 94.1507 44.1522 94.0835 44.2194C94.0835 44.2194 93.8147 43.9506 93.4787 43.413C93.2099 42.8753 92.8739 42.0689 92.7394 41.1953C92.4706 39.3136 92.8066 37.9023 92.8739 37.9023Z" fill="#263238"/>
<path d="M121.838 61.7592C121.771 61.692 122.107 61.4232 122.645 61.2216C123.182 61.02 124.056 60.8184 124.997 60.8184C125.937 60.8184 126.811 61.02 127.349 61.2888C127.886 61.5576 128.222 61.7592 128.155 61.8936C128.088 62.0952 126.744 61.5576 124.997 61.5576C123.317 61.4232 121.905 61.9608 121.838 61.7592Z" fill="#263238"/>
<path d="M106.113 60.2807C106.046 60.2135 106.382 59.9447 106.919 59.7431C107.457 59.5415 108.331 59.3398 109.272 59.3398C110.212 59.3398 111.086 59.5414 111.624 59.8103C112.161 60.0791 112.497 60.2807 112.43 60.4151C112.363 60.6167 111.019 60.0791 109.272 60.0791C107.591 59.9447 106.18 60.4823 106.113 60.2807Z" fill="#263238"/>
<path d="M120.629 62.8344C120.629 62.8344 120.629 62.9688 120.629 63.2376C120.629 63.5064 120.629 63.9097 120.696 64.3801C120.696 64.8505 120.696 65.4553 120.763 66.1274C120.763 66.7994 120.83 67.6058 121.099 68.4122C121.368 69.2187 121.838 70.0251 122.578 70.7643C123.317 71.4364 124.258 72.0412 125.333 72.31C125.87 72.4444 126.475 72.5116 127.08 72.4444C127.685 72.4444 128.29 72.31 128.827 72.0412C129.97 71.638 131.045 70.7643 131.717 69.6891C132.389 68.6139 132.725 67.4042 132.658 66.2618C132.658 65.0521 132.658 63.9097 132.658 62.7672L132.792 62.9016C129.298 62.9016 126.274 62.8344 124.056 62.8344C122.981 62.8344 122.174 62.8344 121.502 62.7672C121.234 62.7672 121.032 62.7672 120.83 62.7672C120.696 62.9016 120.629 62.8344 120.629 62.8344C120.629 62.8344 120.897 62.8344 121.502 62.7672C122.107 62.7672 122.981 62.7672 123.989 62.7C126.207 62.7 129.231 62.6328 132.792 62.6328H132.927V62.7672C132.927 63.8425 132.927 65.0521 132.927 66.2618C132.994 67.4714 132.658 68.8155 131.919 69.8907C131.18 71.0331 130.037 71.9068 128.827 72.3772C128.223 72.5788 127.618 72.7132 126.946 72.7804C126.341 72.8476 125.736 72.7804 125.131 72.5788C123.989 72.31 122.981 71.7052 122.242 70.9659C121.502 70.2267 121.032 69.3531 120.696 68.4794C120.427 67.6058 120.36 66.7994 120.427 66.1274C120.427 65.4553 120.427 64.8505 120.494 64.3129C120.494 63.8425 120.494 63.5064 120.561 63.1704C120.629 62.9688 120.629 62.8344 120.629 62.8344Z" fill="#263238"/>
<path d="M104.164 62.4985C104.164 62.4985 104.164 62.6329 104.164 62.9017C104.164 63.1705 104.164 63.5737 104.232 64.0441C104.232 64.5146 104.232 65.1194 104.299 65.7914C104.299 66.4634 104.366 67.2699 104.635 68.0763C104.904 68.8827 105.374 69.6892 106.113 70.4284C106.852 71.1004 107.793 71.7053 108.869 71.9741C109.406 72.1085 110.011 72.1757 110.616 72.1085C111.221 72.1085 111.825 71.9741 112.363 71.7053C113.505 71.302 114.581 70.4284 115.253 69.3532C115.925 68.2779 116.261 67.0683 116.194 65.9258C116.194 64.7162 116.194 63.5737 116.194 62.4313L116.328 62.5657C112.833 62.5657 109.809 62.4985 107.592 62.4985C106.516 62.4985 105.71 62.4985 105.038 62.4313C104.769 62.4313 104.568 62.4313 104.366 62.4313C104.232 62.4985 104.164 62.4985 104.164 62.4985C104.164 62.4985 104.433 62.4985 105.038 62.4313C105.643 62.4313 106.516 62.4313 107.524 62.3641C109.742 62.3641 112.766 62.2969 116.328 62.2969H116.462V62.4313C116.462 63.5065 116.462 64.7162 116.462 65.9258C116.53 67.1355 116.194 68.4795 115.454 69.5548C114.715 70.6972 113.573 71.5708 112.363 72.0413C111.758 72.2429 111.153 72.3773 110.481 72.4445C109.877 72.5117 109.272 72.4445 108.667 72.2429C107.524 71.9741 106.516 71.3692 105.777 70.63C105.038 69.8908 104.568 69.0171 104.232 68.1435C103.963 67.2699 103.896 66.4634 103.963 65.7914C103.963 65.1194 103.963 64.5146 104.03 63.9769C104.03 63.5065 104.03 63.1705 104.097 62.8345C104.164 62.6329 104.164 62.4985 104.164 62.4985Z" fill="#263238"/>
<path d="M120.763 63.3715C120.763 63.4387 119.755 63.5731 118.411 63.5731C117.134 63.5731 116.059 63.5059 116.059 63.3715C116.059 63.3043 117.067 63.1699 118.411 63.1699C119.755 63.1699 120.763 63.2371 120.763 63.3715Z" fill="#263238"/>
<path d="M91.3281 63.4399C91.3281 63.3727 94.2178 63.2383 97.7796 63.2383C101.341 63.2383 104.231 63.3055 104.231 63.3727C104.231 63.4399 101.341 63.5743 97.7796 63.5743C94.1506 63.6415 91.3281 63.5071 91.3281 63.4399Z" fill="#263238"/>
<path d="M220.425 71.7727L200.398 64.582L180.574 71.6383C178.02 72.848 175.802 73.52 175.802 75.8721V87.6326C175.802 95.7641 177.953 103.828 182.321 110.952C186.017 116.933 191.729 123.116 200.533 127.081C208.597 124.46 214.645 117.471 218.342 111.422C222.71 104.299 224.86 96.2345 224.86 88.103V77.5522C224.995 74.2592 223.18 72.5792 220.425 71.7727Z" fill="#FAB21E"/>
<g opacity="0.3">
<path d="M200.6 120.361C193.611 117.269 189.108 112.296 186.151 107.525C182.657 101.88 180.977 95.4956 180.977 89.0442V80.8454C180.977 78.9638 182.119 77.2165 184.337 76.2085L200.398 70.2274V64.7168L180.574 71.7731C178.49 72.7139 175.802 73.6548 175.802 76.0068V87.7673C175.802 95.8988 177.953 103.963 182.321 111.087C186.017 117.068 191.729 123.25 200.533 127.215V120.361H200.6Z" fill="black"/>
</g>
<g opacity="0.4">
<path d="M200.6 127.148C202.012 126.677 203.288 126.14 204.498 125.468C207.791 123.653 210.681 121.167 212.831 118.949C215.251 116.463 217.065 113.707 218.611 111.154C222.979 104.03 225.129 95.9657 224.928 87.5654V77.8882C224.928 73.0496 222.441 72.7136 220.358 71.7727L200.332 64.582V70.0927L216.527 76.2081C218.745 77.2833 219.888 78.9634 219.888 80.8451V89.0438C219.888 95.4953 218.207 101.88 214.713 107.525C211.756 112.296 207.455 117.135 200.466 120.293V127.148H200.6Z" fill="black"/>
</g>
<path opacity="0.5" d="M205.708 88.5062V86.8934C205.708 84.0036 203.356 81.7188 200.533 81.7188C197.643 81.7188 195.359 84.0708 195.359 86.8934V88.5062C193.947 88.7078 192.872 89.9175 192.872 91.3959V100.737C192.872 102.35 194.149 103.627 195.762 103.627H205.439C207.052 103.627 208.329 102.35 208.329 100.737V91.3959C208.396 89.8503 207.186 88.6406 205.708 88.5062ZM201.944 98.385H199.391L199.794 96.5706C199.324 96.3017 199.055 95.8313 199.055 95.2265C199.055 94.3529 199.727 93.6808 200.6 93.6808C201.474 93.6808 202.146 94.3529 202.146 95.2265C202.146 95.7641 201.877 96.2345 201.474 96.5033C201.676 97.2426 201.944 98.385 201.944 98.385ZM204.633 88.5062H196.434V86.9606C196.434 84.7429 198.248 82.8612 200.533 82.8612C202.751 82.8612 204.633 84.6757 204.633 86.9606V88.5062Z" fill="white"/>
<path d="M184.27 88.3711C184.203 88.3711 184.068 87.7663 184.001 86.7583C183.867 85.7502 183.799 84.339 183.867 82.7933C183.867 81.9869 183.934 81.2476 184.001 80.5756C184.068 79.9036 184.203 79.2988 184.472 78.8284C184.74 78.3579 185.076 78.0891 185.345 77.9547C185.614 77.8203 185.816 77.8203 185.816 77.8203C185.883 77.8875 185.144 78.0219 184.74 78.8956C184.539 79.366 184.472 79.9036 184.404 80.5756C184.337 81.2476 184.337 81.9869 184.27 82.7261C184.203 84.2718 184.27 85.683 184.337 86.6911C184.27 87.7663 184.337 88.3711 184.27 88.3711Z" fill="white"/>
<path d="M184.539 93.4786C184.472 93.4786 184.337 93.0082 184.337 92.4034C184.337 91.7985 184.405 91.3281 184.472 91.3281C184.539 91.3281 184.673 91.7985 184.673 92.4034C184.741 93.0082 184.673 93.4786 184.539 93.4786Z" fill="white"/>
<path d="M163.437 141.865L141.126 197.039H100.938V199.525H220.761L245.223 141.865H163.437Z" fill="#263238"/>
<path d="M197.576 174.46C196.77 177.215 194.418 178.962 192.334 178.357C190.251 177.753 189.176 174.997 189.982 172.242C190.789 169.487 193.141 167.739 195.224 168.344C197.307 168.882 198.383 171.637 197.576 174.46Z" fill="#FAFAFA"/>
</svg>
