<svg width="188" height="138" viewBox="0 0 188 138" fill="none" xmlns="http://www.w3.org/2000/svg">
<path d="M12.18 126L7.946 118.315H6.757V126H1.798V105.642H10.121C11.7257 105.642 13.0887 105.922 14.21 106.483C15.3507 107.044 16.2013 107.817 16.762 108.803C17.3227 109.77 17.603 110.852 17.603 112.051C17.603 113.404 17.2163 114.613 16.443 115.676C15.689 116.739 14.5677 117.493 13.079 117.938L17.777 126H12.18ZM6.757 114.806H9.831C10.7397 114.806 11.4163 114.584 11.861 114.139C12.325 113.694 12.557 113.066 12.557 112.254C12.557 111.481 12.325 110.872 11.861 110.427C11.4163 109.982 10.7397 109.76 9.831 109.76H6.757V114.806ZM25.675 109.615V113.733H32.316V117.561H25.675V122.027H33.186V126H20.716V105.642H33.186V109.615H25.675ZM54.6174 126H49.6584L41.3644 113.443V126H36.4054V105.642H41.3644L49.6584 118.257V105.642H54.6174V126ZM72.8571 105.642V109.615H67.4631V126H62.5041V109.615H57.1101V105.642H72.8571ZM94.1644 122.404H86.5664L85.3484 126H80.1574L87.5234 105.642H93.2654L100.631 126H95.3824L94.1644 122.404ZM92.8884 118.576L90.3654 111.123L87.8714 118.576H92.8884Z" fill="#2E4489"/>
<path d="M119.401 126L115.167 118.315H113.978V126H109.019V105.642H117.342C118.946 105.642 120.309 105.922 121.431 106.483C122.571 107.044 123.422 107.817 123.983 108.803C124.543 109.77 124.824 110.852 124.824 112.051C124.824 113.404 124.437 114.613 123.664 115.676C122.91 116.739 121.788 117.493 120.3 117.938L124.998 126H119.401ZM113.978 114.806H117.052C117.96 114.806 118.637 114.584 119.082 114.139C119.546 113.694 119.778 113.066 119.778 112.254C119.778 111.481 119.546 110.872 119.082 110.427C118.637 109.982 117.96 109.76 117.052 109.76H113.978V114.806ZM137.565 126.203C135.651 126.203 133.891 125.758 132.287 124.869C130.701 123.98 129.435 122.742 128.488 121.157C127.56 119.552 127.096 117.754 127.096 115.763C127.096 113.772 127.56 111.983 128.488 110.398C129.435 108.813 130.701 107.575 132.287 106.686C133.891 105.797 135.651 105.352 137.565 105.352C139.479 105.352 141.228 105.797 142.814 106.686C144.418 107.575 145.675 108.813 146.584 110.398C147.512 111.983 147.976 113.772 147.976 115.763C147.976 117.754 147.512 119.552 146.584 121.157C145.656 122.742 144.399 123.98 142.814 124.869C141.228 125.758 139.479 126.203 137.565 126.203ZM137.565 121.679C139.189 121.679 140.484 121.138 141.451 120.055C142.437 118.972 142.93 117.542 142.93 115.763C142.93 113.965 142.437 112.534 141.451 111.471C140.484 110.388 139.189 109.847 137.565 109.847C135.921 109.847 134.607 110.379 133.621 111.442C132.654 112.505 132.171 113.946 132.171 115.763C132.171 117.561 132.654 119.001 133.621 120.084C134.607 121.147 135.921 121.679 137.565 121.679ZM160.363 126.203C158.449 126.203 156.689 125.758 155.085 124.869C153.499 123.98 152.233 122.742 151.286 121.157C150.358 119.552 149.894 117.754 149.894 115.763C149.894 113.772 150.358 111.983 151.286 110.398C152.233 108.813 153.499 107.575 155.085 106.686C156.689 105.797 158.449 105.352 160.363 105.352C162.277 105.352 164.026 105.797 165.612 106.686C167.216 107.575 168.473 108.813 169.382 110.398C170.31 111.983 170.774 113.772 170.774 115.763C170.774 117.754 170.31 119.552 169.382 121.157C168.454 122.742 167.197 123.98 165.612 124.869C164.026 125.758 162.277 126.203 160.363 126.203ZM160.363 121.679C161.987 121.679 163.282 121.138 164.249 120.055C165.235 118.972 165.728 117.542 165.728 115.763C165.728 113.965 165.235 112.534 164.249 111.471C163.282 110.388 161.987 109.847 160.363 109.847C158.719 109.847 157.405 110.379 156.419 111.442C155.452 112.505 154.969 113.946 154.969 115.763C154.969 117.561 155.452 119.001 156.419 120.084C157.405 121.147 158.719 121.679 160.363 121.679ZM186.785 105.642V109.615H178.491V113.907H184.697V117.764H178.491V126H173.532V105.642H186.785Z" fill="#FAB21E"/>
<g clip-path="url(#clip0_171_206)">
<path d="M95.9962 63.9678C93.5519 62.3318 91.1892 60.6958 88.745 59.1417C88.1746 58.8145 86.8711 58.9781 86.4637 59.387C85.8119 60.1232 86.7081 60.8594 87.2784 61.3502C91.1892 64.2132 94.8555 67.158 99.8255 68.3032C106.588 69.9392 112.21 68.4668 117.342 64.1314C119.624 62.25 121.905 60.5322 124.431 58.9781C125.897 58.4873 126.468 59.2234 126.386 60.5322C126.223 64.9494 126.793 69.3666 126.06 73.7838C124.594 76.974 122.068 78.8554 118.646 79.5915C114.409 80.2459 110.091 79.8369 105.773 79.9187C93.7964 80.0005 81.8196 79.9187 69.8429 79.9187C68.5393 79.9187 67.1543 80.2459 65.8507 79.5915C63.325 78.9371 62.0214 77.4648 62.0214 74.7654C62.0214 71.0844 62.0214 67.4852 61.9399 63.8042C61.9399 62.7408 62.1029 61.9228 63.2435 61.6774C64.9545 62.25 66.6654 62.25 68.4579 61.6774C72.2872 61.6774 74.4055 57.9965 77.9089 57.1785C79.2939 56.8513 80.679 56.2787 82.0641 55.7879C84.9971 55.0517 88.1746 55.7879 91.0262 54.2337C91.5966 53.7429 92.1669 53.7429 92.7372 54.2337C94.6926 55.6243 96.648 57.0967 98.6848 58.4055C99.4996 58.8963 100.559 59.2234 101.211 58.2419C101.862 57.3421 100.885 56.7695 100.314 56.2787C97.2183 53.3339 94.3667 50.0619 90.2115 48.2623C82.8788 45.1539 76.035 45.3993 69.517 49.9801C68.7838 50.5527 67.969 51.0435 67.1543 51.5343C62.5917 54.3973 62.2658 54.3155 61.9399 48.8349C61.777 44.9085 59.4957 43.4361 55.9108 43.3543C54.6072 43.3543 52.9777 43.5997 52.2445 42.1273C51.4297 40.4095 52.9777 39.428 53.9554 38.3646C65.7692 26.4218 77.5015 14.4791 89.3153 2.53634C92.6557 -0.899244 95.3444 -0.817444 98.6848 2.53634C100.803 4.66313 102.84 6.78992 104.877 8.91671C105.284 8.83491 105.61 8.83491 106.018 8.91671C108.625 11.1253 111.558 13.0885 112.78 16.6059C112.617 18.3237 111.313 19.3053 110.336 20.5322C108.38 22.4136 106.343 24.2132 103.41 24.5404C100.314 23.6406 100.722 19.7961 98.2775 18.4055C97.9516 18.2419 97.6257 17.9965 97.3812 17.7511C92.2484 15.2971 87.5229 19.3053 87.4414 23.5588C87.2784 28.8758 92.3298 32.3114 97.0553 30.021C98.8478 29.1212 100.314 27.6488 102.025 26.5854C105.203 25.113 108.299 23.5588 111.069 21.5138C113.35 20.8594 115.713 17.0967 117.913 21.6774C123.453 27.4034 128.912 33.1294 134.452 38.7736C136.57 40.9821 136.815 42.6999 133.393 43.5179C131.926 44.6631 129.971 43.2725 128.504 44.4177C127.282 44.7449 126.712 45.4811 126.712 46.7081H126.793C126.956 50.5527 125.164 52.0251 121.416 51.3707C120.601 51.2071 119.542 51.1253 118.728 51.7797C116.446 51.8615 114.735 53.0885 113.106 54.5609C109.358 57.8329 105.366 60.3686 100.151 60.7776C98.6848 60.9412 96.1591 61.1866 96.5665 64.0496C96.4035 64.295 96.2406 64.295 95.9962 63.9678Z" fill="#2E4489"/>
<path d="M111.395 22.3323C108.95 24.8681 105.691 26.0133 102.514 27.3221C99.8253 28.4673 97.2996 28.7126 95.2627 26.0133C93.6332 23.8047 93.7962 21.4325 94.9368 19.1421C95.5886 17.7515 96.5663 16.5245 98.4402 17.5061V17.4243C99.4994 19.8783 98.2773 23.5593 102.432 24.1319C102.84 24.2137 103.166 24.2137 103.492 23.9683C105.61 22.7413 107.81 21.6779 109.602 19.9601C111.558 19.1421 112.698 17.6697 113.35 15.7065C114.409 13.3343 117.179 10.9621 115.305 8.26275C113.513 5.72697 110.824 8.09915 108.543 8.26275C108.136 8.26275 107.728 8.26275 107.321 8.09915C106.751 7.77196 106.343 7.44476 106.588 6.70856C108.787 4.90897 111.313 3.68198 114.165 3.19118C118.972 2.37318 121.416 4.99077 120.194 9.81694C119.461 12.5981 117.505 14.7249 116.283 17.2607C115.305 19.6329 113.269 20.8599 111.395 22.3323Z" fill="#FAB21E"/>
</g>
<defs>
<clipPath id="clip0_171_206">
<rect width="84" height="80" fill="white" transform="translate(52)"/>
</clipPath>
</defs>
</svg>
