<svg width="40" height="40" viewBox="0 0 40 40" fill="none" xmlns="http://www.w3.org/2000/svg">
<rect x="0.5" y="0.5" width="39" height="39" rx="14.5" stroke="#E2E2E2"/>
<path d="M20.1477 15.71C17.5988 15.71 15.0498 15.71 12.5009 15.71C11.9685 15.71 11.662 15.4573 11.5867 14.9733C11.5114 14.4517 11.8664 14.0215 12.388 14C12.4525 14 12.5224 14 12.5869 14C17.631 14 22.6752 14 27.7193 14C27.8537 14 27.9881 14 28.1172 14.0269C28.5044 14.1237 28.7625 14.5162 28.7141 14.9357C28.6657 15.382 28.3753 15.6778 27.9505 15.7047C27.8644 15.71 27.7784 15.71 27.687 15.71C25.1757 15.71 22.659 15.71 20.1477 15.71Z" fill="#2E4489"/>
<path d="M18.8568 20.8678C16.7327 20.8678 14.6032 20.857 12.4791 20.8731C11.7101 20.8785 11.4358 20.1633 11.6509 19.6525C11.78 19.3567 12.0005 19.1846 12.3285 19.1577C12.393 19.1523 12.4629 19.1523 12.5275 19.1523C16.7488 19.1523 20.9648 19.1523 25.1861 19.1523C25.3044 19.1523 25.4281 19.1523 25.5464 19.1792C25.9336 19.276 26.1863 19.674 26.1433 20.088C26.0949 20.5344 25.8045 20.8409 25.3797 20.8516C24.9119 20.8678 24.4387 20.857 23.9708 20.857C22.2608 20.8678 20.5615 20.8678 18.8568 20.8678Z" fill="#2E4489"/>
<path d="M16.2814 26.0186C15.0069 26.0186 13.7324 26.024 12.458 26.0186C11.8234 26.0186 11.447 25.5132 11.6137 24.9055C11.7051 24.5613 11.9794 24.3355 12.3397 24.314C12.3719 24.314 12.4042 24.3086 12.4418 24.3086C15.0015 24.3086 17.5666 24.3086 20.1263 24.3086C20.6479 24.3086 20.9867 24.6528 20.9867 25.1636C20.9867 25.6745 20.6479 26.0133 20.1209 26.0133C18.8411 26.0186 17.5612 26.0186 16.2814 26.0186Z" fill="#2E4489"/>
</svg>
