<svg width="40" height="40" viewBox="0 0 40 40" fill="none" xmlns="http://www.w3.org/2000/svg">
<rect x="0.5" y="0.5" width="39" height="39" rx="14.5" stroke="#E2E2E2"/>
<path d="M19.9483 28C19.8497 27.9752 19.7511 27.9545 19.6565 27.9255C18.8141 27.6689 18.288 27.1142 18.0826 26.2492C18.0743 26.2119 18.062 26.1747 18.0497 26.125C17.9963 26.125 17.9469 26.125 17.8935 26.125C16.9031 26.125 15.9168 26.1291 14.9264 26.1209C14.5524 26.1167 14.2647 25.9346 14.1003 25.5952C13.9401 25.2599 13.9729 24.9329 14.1908 24.6267C14.2442 24.5522 14.314 24.4901 14.3798 24.428C15.3661 23.5381 15.8551 22.4205 15.8634 21.0877C15.8675 20.4296 15.8551 19.7715 15.8675 19.1093C15.9004 17.3253 17.0963 15.6863 18.7771 15.1233C18.925 15.0737 18.9661 15.0075 18.962 14.8584C18.9538 14.606 18.9497 14.3493 18.9785 14.0969C19.0442 13.4677 19.5826 13 20.2113 13C20.8319 13.0041 21.362 13.4719 21.4278 14.0969C21.4566 14.3742 21.4442 14.6515 21.4442 14.9288C21.4442 15.0199 21.4689 15.0613 21.5593 15.0944C23.1949 15.6945 24.1771 16.8576 24.4936 18.5836C24.5388 18.832 24.5388 19.0886 24.5429 19.3411C24.5552 20.0571 24.5264 20.7773 24.5717 21.4934C24.6415 22.6192 25.1223 23.5629 25.9319 24.3328C25.9854 24.3825 26.0429 24.428 26.0922 24.4818C26.3881 24.7674 26.4826 25.1565 26.3388 25.5248C26.195 25.8891 25.8621 26.1167 25.4511 26.1167C24.473 26.1167 23.4949 26.1167 22.5127 26.1167C22.4634 26.1167 22.4182 26.1167 22.3566 26.1167C22.3401 26.1912 22.3237 26.2574 22.3073 26.3278C22.0483 27.2343 21.4607 27.7806 20.5401 27.9627C20.5113 27.9669 20.4867 27.9793 20.462 27.9917C20.2976 28 20.125 28 19.9483 28ZM20.2113 25.5041C20.2113 25.5 20.2113 25.5 20.2113 25.4959C20.8319 25.4959 21.4525 25.4959 22.073 25.4959C23.1662 25.4959 24.2634 25.5 25.3566 25.5041C25.4182 25.5041 25.484 25.5041 25.5456 25.4917C25.7799 25.4421 25.8744 25.1772 25.7223 24.9909C25.6936 24.9536 25.6525 24.9205 25.6196 24.8916C24.51 23.8816 23.947 22.6192 23.9388 21.1126C23.9347 20.5083 23.9429 19.904 23.9347 19.2955C23.9347 19.101 23.9264 18.9023 23.8977 18.7119C23.5484 16.481 21.4525 15.082 19.2744 15.6283C17.6963 16.0257 16.5209 17.5116 16.4962 19.1507C16.488 19.8129 16.4962 20.4793 16.4921 21.1416C16.4839 22.4123 16.0647 23.5298 15.2223 24.4776C15.0743 24.6432 14.9058 24.7922 14.7456 24.9495C14.6469 25.0447 14.6058 25.1565 14.651 25.293C14.7003 25.4296 14.8031 25.4917 14.9387 25.5041C14.988 25.5083 15.0373 25.5083 15.0825 25.5083C16.7921 25.5041 18.5017 25.5041 20.2113 25.5041ZM21.7155 26.1374C20.7045 26.1374 19.7059 26.1374 18.7031 26.1374C18.8017 26.8204 19.4839 27.3791 20.2072 27.3791C20.9387 27.3791 21.6168 26.8204 21.7155 26.1374ZM20.8196 14.8998C20.8237 14.8833 20.8278 14.8667 20.8278 14.846C20.8278 14.6349 20.8319 14.428 20.8237 14.2169C20.8113 13.9106 20.5853 13.6747 20.273 13.6333C19.9935 13.596 19.6853 13.774 19.6278 14.0596C19.5744 14.3369 19.5908 14.6225 19.5785 14.8957C20.0141 14.8998 20.4086 14.8998 20.8196 14.8998Z" fill="#2E4489"/>
</svg>
