<svg width="71" height="70" viewBox="0 0 71 70" fill="none" xmlns="http://www.w3.org/2000/svg">
<g filter="url(#filter0_d_69_1453)">
<path d="M10 30C10 18.9543 18.9543 10 30 10H31C42.0457 10 51 18.9543 51 30C51 41.0457 42.0457 50 31 50H30C18.9543 50 10 41.0457 10 30Z" fill="#2E4489"/>
</g>
<path d="M23 28.1304C23 27.8384 23.1541 27.6587 23.4334 27.5689C24.44 27.2365 25.4466 26.9041 26.4531 26.5718C30.017 25.3995 33.5761 24.2271 37.1352 23.0548C37.3952 22.9695 37.6312 22.9695 37.8335 23.1581C38.0358 23.3468 38.031 23.5669 37.9395 23.8094C36.3309 28.0495 34.732 32.2896 33.1282 36.5297C32.9693 36.9519 32.6033 37.1181 32.2565 36.9115C32.1505 36.8486 32.0542 36.7453 32.0012 36.6375C31.1873 35.025 30.3782 33.4035 29.5643 31.791C29.5065 31.6787 29.5595 31.6293 29.6317 31.5664C30.4553 30.7984 31.2788 30.0303 32.1024 29.2622C32.2613 29.114 32.3528 28.9478 32.2758 28.7322C32.1987 28.5166 32.0446 28.3819 31.8086 28.328C31.5919 28.2786 31.4281 28.3684 31.2788 28.5077C30.4649 29.2712 29.6462 30.0258 28.8371 30.7939C28.7311 30.8972 28.6493 30.9017 28.5144 30.8433C26.8191 30.0932 25.1191 29.3521 23.4142 28.6155C23.1637 28.5077 23.0096 28.346 23 28.1304Z" fill="white"/>
<defs>
<filter id="filter0_d_69_1453" x="0" y="0" width="71" height="70" filterUnits="userSpaceOnUse" color-interpolation-filters="sRGB">
<feFlood flood-opacity="0" result="BackgroundImageFix"/>
<feColorMatrix in="SourceAlpha" type="matrix" values="0 0 0 0 0 0 0 0 0 0 0 0 0 0 0 0 0 0 127 0" result="hardAlpha"/>
<feOffset dx="5" dy="5"/>
<feGaussianBlur stdDeviation="7.5"/>
<feComposite in2="hardAlpha" operator="out"/>
<feColorMatrix type="matrix" values="0 0 0 0 0 0 0 0 0 0 0 0 0 0 0 0 0 0 0.05 0"/>
<feBlend mode="normal" in2="BackgroundImageFix" result="effect1_dropShadow_69_1453"/>
<feBlend mode="normal" in="SourceGraphic" in2="effect1_dropShadow_69_1453" result="shape"/>
</filter>
</defs>
</svg>
