<svg width="70" height="70" viewBox="0 0 70 70" fill="none" xmlns="http://www.w3.org/2000/svg">
<g opacity="0.1">
<g filter="url(#filter0_d_171_258)">
<path d="M10 30C10 18.9543 18.9543 10 30 10C41.0457 10 50 18.9543 50 30C50 41.0457 41.0457 50 30 50C18.9543 50 10 41.0457 10 30Z" fill="#2E4489"/>
</g>
</g>
<path d="M33.8064 22.0037C34.0845 22.0954 34.3762 22.1541 34.6408 22.2862C35.5295 22.7303 36.0789 23.8019 35.9908 24.8588C35.8992 25.9634 35.1835 26.9065 34.2134 27.178C33.2875 27.4386 32.4836 27.1817 31.812 26.4514C31.7815 26.4184 31.7577 26.3744 31.7272 26.334C31.5983 26.4184 31.4864 26.4918 31.3745 26.5615C30.1907 27.3322 29.0104 28.1028 27.8266 28.8698C27.7316 28.9322 27.6977 28.9836 27.7384 29.1083C27.9114 29.6184 27.9182 30.1396 27.7622 30.6753C29.0443 31.3836 30.3196 32.0919 31.5882 32.7965C31.7543 32.624 31.9002 32.4405 32.0766 32.2974C32.9008 31.6295 33.7962 31.5267 34.7052 32.0478C35.6007 32.5653 36.0315 33.4167 35.9908 34.5176C35.9399 35.8607 34.902 36.9507 33.647 36.9984C32.3988 37.0461 31.3066 36.0479 31.1472 34.7158C31.1065 34.3708 31.1269 34.0332 31.2184 33.7029C31.2388 33.6258 31.2354 33.5818 31.1608 33.5414C29.9228 32.8589 28.6881 32.1763 27.4535 31.49C27.4467 31.4864 27.4365 31.4827 27.4162 31.479C26.8735 32.235 26.1612 32.6277 25.2624 32.5653C24.6451 32.5249 24.1092 32.2533 23.6852 31.7616C22.766 30.701 22.7728 29.1414 23.6987 28.0992C24.5806 27.1047 26.2087 26.9358 27.2737 28.2056C28.6101 27.3358 29.9499 26.4624 31.2965 25.5854C31.1811 25.2367 31.1167 24.8844 31.1303 24.5175C31.1811 23.2624 32.0664 22.2018 33.2162 22.0294C33.2501 22.0257 33.2841 22.011 33.318 22C33.4808 22.0037 33.6436 22.0037 33.8064 22.0037Z" fill="#2E4489"/>
<defs>
<filter id="filter0_d_171_258" x="0" y="0" width="70" height="70" filterUnits="userSpaceOnUse" color-interpolation-filters="sRGB">
<feFlood flood-opacity="0" result="BackgroundImageFix"/>
<feColorMatrix in="SourceAlpha" type="matrix" values="0 0 0 0 0 0 0 0 0 0 0 0 0 0 0 0 0 0 127 0" result="hardAlpha"/>
<feOffset dx="5" dy="5"/>
<feGaussianBlur stdDeviation="7.5"/>
<feComposite in2="hardAlpha" operator="out"/>
<feColorMatrix type="matrix" values="0 0 0 0 0 0 0 0 0 0 0 0 0 0 0 0 0 0 0.05 0"/>
<feBlend mode="normal" in2="BackgroundImageFix" result="effect1_dropShadow_171_258"/>
<feBlend mode="normal" in="SourceGraphic" in2="effect1_dropShadow_171_258" result="shape"/>
</filter>
</defs>
</svg>
