<svg width="44" height="44" viewBox="0 0 44 44" fill="none" xmlns="http://www.w3.org/2000/svg">
<circle cx="22" cy="22" r="22" fill="#FAB21E"/>
<path d="M17.0139 30.9674C17.0143 29.9335 17.0162 28.8992 17.0235 27.8678H17.0235V27.8643C17.0235 27.7317 17.0031 27.5875 16.9326 27.4439C16.8635 27.3028 16.7651 27.2015 16.6732 27.1245L16.6733 27.1244L16.6642 27.1171C14.7063 25.5532 13.6418 23.536 13.5123 21.0415L13.5123 21.0408C13.4108 19.1364 13.9387 17.3951 15.075 15.8566C16.3563 14.1221 18.0574 13.049 20.1804 12.6427C20.4065 12.6009 20.63 12.5713 20.8657 12.54C20.9618 12.5272 21.0599 12.5142 21.1611 12.5H21.1624H21.1646H21.1667H21.1689H21.171H21.1732H21.1753H21.1775H21.1796H21.1818H21.1839H21.1861H21.1882H21.1904H21.1925H21.1947H21.1968H21.1989H21.2011H21.2032H21.2054H21.2075H21.2097H21.2118H21.214H21.2161H21.2183H21.2204H21.2226H21.2247H21.2269H21.229H21.2312H21.2333H21.2354H21.2376H21.2397H21.2419H21.244H21.2462H21.2483H21.2505H21.2526H21.2548H21.2569H21.2591H21.2612H21.2633H21.2655H21.2676H21.2698H21.2719H21.2741H21.2762H21.2784H21.2805H21.2827H21.2848H21.2869H21.2891H21.2912H21.2934H21.2955H21.2977H21.2998H21.3019H21.3041H21.3062H21.3084H21.3105H21.3127H21.3148H21.317H21.3191H21.3212H21.3234H21.3255H21.3277H21.3298H21.332H21.3341H21.3362H21.3384H21.3405H21.3427H21.3448H21.347H21.3491H21.3512H21.3534H21.3555H21.3577H21.3598H21.3619H21.3641H21.3662H21.3684H21.3705H21.3727H21.3748H21.3769H21.3791H21.3812H21.3834H21.3855H21.3876H21.3898H21.3919H21.3941H21.3962H21.3984H21.4005H21.4026H21.4048H21.4069H21.4091H21.4112H21.4133H21.4155H21.4176H21.4198H21.4219H21.424H21.4262H21.4283H21.4305H21.4326H21.4347H21.4369H21.439H21.4412H21.4433H21.4454H21.4476H21.4497H21.4519H21.454H21.4561H21.4583H21.4604H21.4626H21.4647H21.4668H21.469H21.4711H21.4733H21.4754H21.4775H21.4797H21.4818H21.484H21.4861H21.4882H21.4904H21.4925H21.4946H21.4968H21.4989H21.5011H21.5032H21.5053H21.5075H21.5096H21.5118H21.5139H21.516H21.5182H21.5203H21.5224H21.5246H21.5267H21.5289H21.531H21.5331H21.5353H21.5374H21.5396H21.5417H21.5438H21.546H21.5481H21.5502H21.5524H21.5545H21.5567H21.5588H21.5609H21.5631H21.5652H21.5673H21.5695H21.5716H21.5738H21.5759H21.578H21.5802H21.5823H21.5844H21.5866H21.5887H21.5909H21.593H21.5951H21.5973H21.5994H21.6015H21.6037H21.6058H21.608H21.6101H21.6122H21.6144H21.6165H21.6186H21.6208H21.6229H21.6251H21.6272H21.6293H21.6315H21.6336H21.6357H21.6379H21.64H21.6422H21.6443H21.6464H21.6486H21.6507H21.6528H21.655H21.6571H21.6593H21.6614H21.6635H21.6657H21.6678H21.6699H21.6721H21.6742H21.6764H21.6785H21.6806H21.6828H21.6849H21.687H21.6892H21.6913H21.6935H21.6956H21.6977H21.6999H21.702H21.7041H21.7063H21.7084H21.7106H21.7127H21.7148H21.717H21.7191H21.7212H21.7234H21.7255H21.7277H21.7298H21.7319H21.7341H21.7362H21.7383H21.7405H21.7426H21.7448H21.7469H21.749H21.7512H21.7533H21.7554H21.7576H21.7597H21.7619H21.764H21.7661H21.7683H21.7704H21.7725H21.7747H21.7768H21.779H21.7811H21.7832H21.7854H21.7875H21.7896H21.7918H21.7939H21.7961H21.7982H21.8003H21.8025H21.8046H21.8067H21.8089H21.811H21.8132H21.8153H21.8174H21.8196H21.8217H21.8239H21.826H21.8281H21.8303H21.8324H21.8345H21.8367H21.8388H21.841H21.8431H21.8452H21.8474H21.8495H21.8517H21.8538H21.8559H21.8581H21.8602H21.8623H21.8645H21.8666H21.8688H21.8709H21.873H21.8752H21.8773H21.8795H21.8816H21.8837H21.8859H21.888H21.8902H21.8923H21.8944H21.8966H21.8987H21.9009H21.903H21.9051H21.9073H21.9094H21.9116H21.9137H21.9158H21.918H21.9201H21.9223H21.9244H21.9265H21.9287H21.9308H21.933H21.9351H21.9372H21.9394H21.9415H21.9437H21.9458H21.9479H21.9501H21.9522H21.9544H21.9565H21.9586H21.9608H21.9629H21.9651H21.9672H21.9694H21.9715H21.9736H21.9758H21.9779H21.9801H21.9822H21.9843H21.9865H21.9886H21.9908H21.9929H21.9951H21.9972H21.9993H22.0015H22.0036H22.0058H22.0079H22.0101H22.0122H22.0143H22.0165H22.0186H22.0208H22.0229H22.0251H22.0272H22.0293H22.0315H22.0336H22.0358H22.0379H22.0401H22.0422H22.0443H22.0465H22.0486H22.0508H22.0529H22.0551H22.0572H22.0594H22.0615H22.0636H22.0658H22.0679H22.0701H22.0722H22.0744H22.0765H22.0787H22.0808H22.0829H22.0851H22.0872H22.0894H22.0915H22.0937H22.0958H22.098H22.1001H22.1023H22.1044H22.1065H22.1087H22.1108H22.113H22.1151H22.1173H22.1194H22.1216H22.1237H22.1259H22.128H22.1302H22.1323H22.1345H22.1366H22.1388H22.1409H22.143H22.1452H22.1473H22.1495H22.1516H22.1538H22.1559H22.1581H22.1602H22.1624H22.1645H22.1667H22.1688H22.171H22.1731H22.1753H22.1774H22.1796H22.1817H22.1839H22.186H22.1882H22.1903H22.1925H22.1928C22.4267 12.528 22.6557 12.5556 22.8839 12.5874C24.6352 12.8608 26.1505 13.5964 27.3917 14.8387L27.3923 14.8394C29.2494 16.6914 30.0487 18.9266 29.7986 21.5323L29.7985 21.5332C29.637 23.2496 28.9801 24.768 27.8216 26.038L27.8207 26.039C25.7868 28.2799 23.2768 29.1523 20.2755 28.7224C20.1521 28.7031 20.0324 28.7159 19.9354 28.7395C19.8378 28.7633 19.7187 28.8088 19.6131 28.8915C18.7434 29.5727 17.8842 30.2631 17.0266 30.957L17.0258 30.9577C17.0218 30.9609 17.0179 30.9642 17.0139 30.9674Z" fill="white" stroke="white"/>
</svg>
