<svg width="44" height="44" viewBox="0 0 44 44" fill="none" xmlns="http://www.w3.org/2000/svg">
<circle cx="22" cy="22" r="22" fill="#FAB21E"/>
<path d="M31 21.14C31 21.2343 31 21.3354 31 21.4298C30.8235 21.8408 30.5146 22.1441 30.0955 22.3463C29.8896 22.4473 29.6763 22.4406 29.4998 22.2721C29.4189 22.198 29.3307 22.1373 29.213 22.043C29.213 22.1441 29.213 22.2047 29.213 22.2721C29.213 24.5566 29.213 26.8411 29.213 29.1189C29.213 29.6378 28.86 29.9882 28.3085 29.9949C27.2127 30.0017 26.117 30.0017 25.0213 29.9949C24.6315 29.9949 24.3374 29.7995 24.2271 29.4828C24.1829 29.3547 24.1756 29.22 24.1756 29.0852C24.1756 27.4948 24.1756 25.9044 24.1756 24.314C24.1756 24.2534 24.1756 24.1927 24.1756 24.1253C22.8225 24.1253 21.4988 24.1253 20.1604 24.1253C20.1604 24.1995 20.1604 24.2534 20.1604 24.314C20.1604 25.0351 20.1604 25.7562 20.1604 26.4705C20.1604 27.3465 20.1604 28.2226 20.1604 29.0987C20.1604 29.6378 19.8074 29.9882 19.2338 29.9882C18.2116 29.9949 17.1967 29.9949 16.1746 29.9882C15.7921 29.9882 15.4906 29.8332 15.3362 29.5097C15.27 29.375 15.2553 29.2065 15.2553 29.0515C15.248 26.7535 15.2553 24.4555 15.2553 22.1508C15.2553 22.0902 15.2553 22.0295 15.2553 21.9284C15.0494 22.0969 14.8876 22.2452 14.7038 22.3732C14.5935 22.4541 14.4611 22.5349 14.3287 22.5686C13.9169 22.6765 13.608 22.5012 13.3359 22.2317C12.8727 21.7802 12.8874 21.3421 13.3874 20.9243C16.0054 18.7274 18.616 16.5305 21.234 14.3337C21.7562 13.8956 22.2562 13.8889 22.7931 14.3134C25.3669 16.3823 27.9481 18.4444 30.522 20.5065C30.7279 20.702 30.9191 20.8772 31 21.14Z" fill="white"/>
</svg>
