<svg width="44" height="44" viewBox="0 0 44 44" fill="none" xmlns="http://www.w3.org/2000/svg">
<circle cx="22" cy="22" r="22" fill="#FAB21E"/>
<path d="M23.6857 12.8373L23.6863 12.8376C25.3288 13.5126 26.3086 14.7149 26.6165 16.4625C26.9501 18.3812 26.0067 20.3432 24.2565 21.2796L24.2562 21.2798C22.535 22.2026 20.8612 22.1101 19.2555 20.9946L19.255 20.9942C17.9767 20.1082 17.3138 18.8558 17.2841 17.3019L17.2841 17.3015C17.2496 15.5784 17.9865 14.2336 19.435 13.2573L19.4361 13.2565C20.0565 12.836 20.7548 12.6042 21.5239 12.5245L21.5334 12.5235L21.5429 12.5222C21.5831 12.5165 21.6215 12.508 21.6537 12.5H21.6545H21.656H21.6575H21.659H21.6606H21.6621H21.6636H21.6651H21.6666H21.6681H21.6696H21.6711H21.6726H21.6741H21.6756H21.6771H21.6786H21.6802H21.6817H21.6832H21.6847H21.6862H21.6877H21.6892H21.6907H21.6922H21.6937H21.6952H21.6968H21.6983H21.6998H21.7013H21.7028H21.7043H21.7058H21.7073H21.7088H21.7103H21.7119H21.7134H21.7149H21.7164H21.7179H21.7194H21.7209H21.7224H21.7239H21.7255H21.727H21.7285H21.73H21.7315H21.733H21.7345H21.736H21.7376H21.7391H21.7406H21.7421H21.7436H21.7451H21.7466H21.7481H21.7497H21.7512H21.7527H21.7542H21.7557H21.7572H21.7587H21.7603H21.7618H21.7633H21.7648H21.7663H21.7678H21.7693H21.7709H21.7724H21.7739H21.7754H21.7769H21.7784H21.7799H21.7815H21.783H21.7845H21.786H21.7875H21.789H21.7906H21.7921H21.7936H21.7951H21.7966H21.7981H21.7996H21.8012H21.8027H21.8042H21.8057H21.8072H21.8087H21.8103H21.8118H21.8133H21.8148H21.8163H21.8179H21.8194H21.8209H21.8224H21.8239H21.8254H21.827H21.8285H21.83H21.8315H21.833H21.8345H21.8361H21.8376H21.8391H21.8406H21.8421H21.8437H21.8452H21.8467H21.8482H21.8497H21.8513H21.8528H21.8543H21.8558H21.8573H21.8589H21.8604H21.8619H21.8634H21.8649H21.8665H21.868H21.8695H21.871H21.8725H21.8741H21.8756H21.8771H21.8786H21.8801H21.8817H21.8832H21.8847H21.8862H21.8877H21.8893H21.8908H21.8923H21.8938H21.8954H21.8969H21.8984H21.8999H21.9014H21.903H21.9045H21.906H21.9075H21.9091H21.9106H21.9121H21.9136H21.9151H21.9167H21.9182H21.9197H21.9212H21.9228H21.9243H21.9258H21.9273H21.9288H21.9304H21.9319H21.9334H21.9349H21.9365H21.938H21.9395H21.941H21.9426H21.9441H21.9456H21.9471H21.9487H21.9502H21.9517H21.9532H21.9548H21.9563H21.9578H21.9593H21.9608H21.9624H21.9639H21.9654H21.9669H21.9685H21.97H21.9715H21.973H21.9746H21.9761H21.9776H21.9791H21.9807H21.9822H21.9837H21.9853H21.9868H21.9883H21.9898H21.9914H21.9929H21.9944H21.9959H21.9975H21.999H22.0005H22.002H22.0036H22.0051H22.0066H22.0081H22.0097H22.0112H22.0127H22.0142H22.0158H22.0173H22.0188H22.0204H22.0219H22.0234H22.0249H22.0265H22.028H22.0295H22.031H22.0326H22.0341H22.0356H22.0372H22.0387H22.0402H22.0417H22.0433H22.0448H22.0463H22.0479H22.0494H22.0509H22.0524H22.054H22.0555H22.057H22.0585H22.0601H22.0616H22.0631H22.0647H22.0662H22.0677H22.0692H22.0708H22.0723H22.0738H22.0754H22.0769H22.0784H22.0799H22.0815H22.083H22.0845H22.0861H22.0876H22.0891H22.0907H22.0922H22.0937H22.0952H22.0968H22.0983H22.0998H22.1014H22.1029H22.1044H22.1059H22.1075H22.109H22.1105H22.1121H22.1136H22.1151H22.1167H22.1182H22.1197H22.1212H22.1228H22.1243H22.1258H22.1274H22.1289H22.1304H22.132H22.1335H22.135H22.1365H22.1381H22.1396H22.1411H22.1427H22.1442H22.1457H22.1473H22.1488H22.1503H22.1519H22.1534H22.1549H22.1564H22.158H22.1595H22.161H22.1626H22.1641H22.1656H22.1672H22.1687H22.1702H22.1718H22.1733H22.1748H22.1764H22.1779H22.1794H22.1809H22.1825H22.184H22.1855H22.1871H22.1886H22.1901H22.1917H22.1932H22.1947H22.1963H22.1978H22.1993H22.2009H22.2024H22.2039H22.2055H22.207H22.2085H22.21H22.2116H22.2131H22.2146H22.2162H22.2177H22.2192H22.2208H22.2223H22.2238H22.2254H22.2269H22.2284H22.23H22.2315H22.233H22.2346H22.2361H22.2376H22.2392H22.2407H22.2422H22.2438H22.2453H22.2468H22.2484H22.2499H22.2514H22.253H22.2545H22.256H22.2575H22.2591H22.2606H22.2621H22.2637H22.2652H22.2667H22.2683H22.2698H22.2713H22.2729H22.2744H22.2759H22.2775H22.279H22.2805H22.2821H22.2836H22.2851H22.2867H22.2882H22.2897H22.2913H22.2928H22.2943H22.2959H22.2974H22.2989H22.3005H22.302H22.3035H22.3051H22.3066H22.3081H22.3094C22.4533 12.5326 22.6083 12.5633 22.7538 12.5922C22.8521 12.6116 22.946 12.6302 23.0294 12.648C23.2742 12.7002 23.4903 12.7567 23.6857 12.8373ZM16.7842 17.3115L16.7845 17.3115L16.7842 17.3115Z" fill="white" stroke="white"/>
<path d="M22.2443 24.4857L22.2446 24.4857C23.2746 24.4451 24.3083 24.1938 25.1868 23.5462C25.5895 23.2509 25.9633 23.2488 26.5045 23.4017L26.5068 23.4023C28.1218 23.8503 29.3334 24.8048 30.2032 26.2404L30.2043 26.2423C30.3097 26.417 30.3716 26.5195 30.4109 26.5997C30.4231 26.6246 30.4302 26.6418 30.4342 26.6527C30.4306 26.6617 30.4247 26.6748 30.4154 26.6928C30.378 26.7655 30.3153 26.863 30.2037 27.0307L30.2036 27.0309C29.2076 28.5287 27.9219 29.6995 26.3086 30.4782L26.3079 30.4785C24.8312 31.194 23.4288 31.4991 22.2651 31.4995C19.7649 31.4782 17.8053 30.8426 16.074 29.5594C15.0497 28.7971 14.1903 27.8721 13.5281 26.7788C13.5154 26.7573 13.5082 26.7415 13.5043 26.7309C13.5024 26.7257 13.5013 26.7219 13.5007 26.7195C13.5005 26.7188 13.5004 26.7182 13.5003 26.7176C13.5008 26.716 13.5017 26.7131 13.5035 26.7088C14.3507 24.952 15.6965 23.8367 17.5903 23.3626C17.6531 23.3476 17.7203 23.335 17.7985 23.3211C17.8119 23.3187 17.8258 23.3163 17.84 23.3137C17.9057 23.3022 17.9798 23.2892 18.052 23.2743C18.1927 23.2453 18.3217 23.2727 18.5112 23.4022C19.6341 24.1894 20.8867 24.5387 22.2443 24.4857ZM13.4998 26.7195C13.4998 26.7195 13.4998 26.7194 13.4998 26.7193L13.4998 26.7193C13.4998 26.7194 13.4998 26.7195 13.4998 26.7195Z" fill="white" stroke="white"/>
</svg>
