<svg width="44" height="44" viewBox="0 0 44 44" fill="none" xmlns="http://www.w3.org/2000/svg">
<circle cx="22" cy="22" r="22" fill="#FAB21E"/>
<path d="M22.9837 27.8568L22.9837 27.8567L22.9796 27.8537C22.6923 27.6418 22.3707 27.5025 22.0148 27.5025C21.6582 27.5025 21.3374 27.6423 21.052 27.8557L21.0515 27.8561C19.4827 29.0327 17.9074 30.2031 16.331 31.3743C15.9993 31.6206 15.616 31.4638 15.5227 31.1487C15.509 31.094 15.5028 31.0218 15.5028 30.9114C15.5028 29.0404 15.5021 27.1702 15.5014 25.3004C15.5 21.5619 15.4986 17.8247 15.5028 14.0844V14.0839C15.5028 13.5834 15.6713 13.196 15.932 12.9349C16.1925 12.674 16.5796 12.5047 17.0814 12.5047L17.0823 12.5047C20.3722 12.4984 23.6621 12.4984 26.952 12.5047H26.9529C27.4557 12.5047 27.8427 12.6731 28.1027 12.9329C28.3626 13.1927 28.5315 13.5798 28.5315 14.0839V14.1002V14.1166V14.133V14.1493V14.1657V14.1821V14.1984V14.2148V14.2312V14.2475V14.2639V14.2803V14.2966V14.313V14.3293V14.3457V14.3621V14.3784V14.3948V14.4112V14.4275V14.4439V14.4603V14.4766V14.493V14.5093V14.5257V14.5421V14.5584V14.5748V14.5911V14.6075V14.6239V14.6402V14.6566V14.673V14.6893V14.7057V14.722V14.7384V14.7548V14.7711V14.7875V14.8038V14.8202V14.8366V14.8529V14.8693V14.8856V14.902V14.9184V14.9347V14.9511V14.9674V14.9838V15.0001V15.0165V15.0329V15.0492V15.0656V15.0819V15.0983V15.1147V15.131V15.1474V15.1637V15.1801V15.1964V15.2128V15.2292V15.2455V15.2619V15.2782V15.2946V15.3109V15.3273V15.3436V15.36V15.3764V15.3927V15.4091V15.4254V15.4418V15.4581V15.4745V15.4908V15.5072V15.5235V15.5399V15.5563V15.5726V15.589V15.6053V15.6217V15.638V15.6544V15.6707V15.6871V15.7034V15.7198V15.7361V15.7525V15.7689V15.7852V15.8016V15.8179V15.8343V15.8506V15.867V15.8833V15.8997V15.916V15.9324V15.9487V15.9651V15.9814V15.9978V16.0141V16.0305V16.0468V16.0632V16.0795V16.0959V16.1122V16.1286V16.1449V16.1613V16.1776V16.194V16.2103V16.2267V16.243V16.2594V16.2757V16.2921V16.3084V16.3248V16.3411V16.3575V16.3738V16.3902V16.4065V16.4229V16.4392V16.4556V16.4719V16.4883V16.5046V16.521V16.5373V16.5536V16.57V16.5863V16.6027V16.619V16.6354V16.6517V16.6681V16.6844V16.7008V16.7171V16.7335V16.7498V16.7662V16.7825V16.7988V16.8152V16.8315V16.8479V16.8642V16.8806V16.8969V16.9133V16.9296V16.946V16.9623V16.9786V16.995V17.0113V17.0277V17.044V17.0604V17.0767V17.0931V17.1094V17.1257V17.1421V17.1584V17.1748V17.1911V17.2075V17.2238V17.2402V17.2565V17.2728V17.2892V17.3055V17.3219V17.3382V17.3546V17.3709V17.3872V17.4036V17.4199V17.4363V17.4526V17.469V17.4853V17.5016V17.518V17.5343V17.5507V17.567V17.5833V17.5997V17.616V17.6324V17.6487V17.6651V17.6814V17.6977V17.7141V17.7304V17.7468V17.7631V17.7794V17.7958V17.8121V17.8285V17.8448V17.8611V17.8775V17.8938V17.9102V17.9265V17.9428V17.9592V17.9755V17.9919V18.0082V18.0245V18.0409V18.0572V18.0736V18.0899V18.1062V18.1226V18.1389V18.1553V18.1716V18.1879V18.2043V18.2206V18.2369V18.2533V18.2696V18.286V18.3023V18.3186V18.335V18.3513V18.3677V18.384V18.4003V18.4167V18.433V18.4493V18.4657V18.482V18.4984V18.5147V18.531V18.5474V18.5637V18.58V18.5964V18.6127V18.6291V18.6454V18.6617V18.6781V18.6944V18.7107V18.7271V18.7434V18.7597V18.7761V18.7924V18.8088V18.8251V18.8414V18.8578V18.8741V18.8904V18.9068V18.9231V18.9394V18.9558V18.9721V18.9884V19.0048V19.0211V19.0375V19.0538V19.0701V19.0865V19.1028V19.1191V19.1355V19.1518V19.1681V19.1845V19.2008V19.2171V19.2335V19.2498V19.2661V19.2825V19.2988V19.3151V19.3315V19.3478V19.3641V19.3805V19.3968V19.4132V19.4295V19.4458V19.4622V19.4785V19.4948V19.5112V19.5275V19.5438V19.5602V19.5765V19.5928V19.6092V19.6255V19.6418V19.6582V19.6745V19.6908V19.7072V19.7235V19.7398V19.7562V19.7725V19.7888V19.8052V19.8215V19.8378V19.8542V19.8705V19.8868V19.9031V19.9195V19.9358V19.9521V19.9685V19.9848V20.0011V20.0175V20.0338V20.0501V20.0665V20.0828V20.0991V20.1155V20.1318V20.1481V20.1645V20.1808V20.1971V20.2135V20.2298V20.2461V20.2625V20.2788V20.2951V20.3115V20.3278V20.3441V20.3604V20.3768V20.3931V20.4094V20.4258V20.4421V20.4584V20.4748V20.4911V20.5074V20.5238V20.5401V20.5564V20.5728V20.5891V20.6054V20.6217V20.6381V20.6544V20.6707V20.6871V20.7034V20.7197V20.7361V20.7524V20.7687V20.7851V20.8014V20.8177V20.834V20.8504V20.8667V20.883V20.8994V20.9157V20.932V20.9484V20.9647V20.981V20.9973V21.0137V21.03V21.0463V21.0627V21.079V21.0953V21.1117V21.128V21.1443V21.1607V21.177V21.1933V21.2096V21.226V21.2423V21.2586V21.275V21.2913V21.3076V21.3239V21.3403V21.3566V21.3729V21.3893V21.4056V21.4219V21.4383V21.4546V21.4709V21.4872V21.5036V21.5199V21.5362V21.5526V21.5689V21.5852V21.6016V21.6179V21.6342V21.6505V21.6669V21.6832V21.6995V21.7159V21.7322V21.7485V21.7648V21.7812V21.7975V21.8138V21.8302V21.8465V21.8628V21.8792V21.8955V21.9118V21.9281V21.9445V21.9608V21.9771V21.9935V22.0098V22.0261V22.0424V22.0588V22.0751V22.0914V22.1078V22.1241V22.1404V22.1568V22.1731V22.1894V22.2057V22.2221V22.2384V22.2547V22.2711V22.2874V22.3037V22.32V22.3364V22.3527V22.369V22.3854V22.4017V22.418V22.4343V22.4507V22.4671V22.4835V22.4999V22.5163V22.5327V22.5491V22.5655V22.5819V22.5983V22.6147V22.6311V22.6475V22.6639V22.6803V22.6967V22.7131V22.7295V22.7459V22.7623V22.7787V22.7951V22.8115V22.8279V22.8443V22.8607V22.8771V22.8935V22.9099V22.9263V22.9427V22.9591V22.9755V22.9919V23.0083V23.0247V23.0411V23.0575V23.0739V23.0903V23.1067V23.1231V23.1395V23.1559V23.1723V23.1887V23.2051V23.2215V23.2378V23.2542V23.2706V23.287V23.3034V23.3198V23.3362V23.3526V23.369V23.3854V23.4018V23.4182V23.4346V23.451V23.4674V23.4838V23.5002V23.5166V23.533V23.5494V23.5658V23.5821V23.5985V23.6149V23.6313V23.6477V23.6641V23.6805V23.6969V23.7133V23.7297V23.7461V23.7625V23.7789V23.7953V23.8117V23.828V23.8444V23.8608V23.8772V23.8936V23.91V23.9264V23.9428V23.9592V23.9756V23.992V24.0084V24.0247V24.0411V24.0575V24.0739V24.0903V24.1067V24.1231V24.1395V24.1559V24.1723V24.1887V24.205V24.2214V24.2378V24.2542V24.2706V24.287V24.3034V24.3198V24.3362V24.3526V24.3689V24.3853V24.4017V24.4181V24.4345V24.4509V24.4673V24.4837V24.5001V24.5165V24.5328V24.5492V24.5656V24.582V24.5984V24.6148V24.6312V24.6476V24.6639V24.6803V24.6967V24.7131V24.7295V24.7459V24.7623V24.7787V24.7951V24.8114V24.8278V24.8442V24.8606V24.877V24.8934V24.9098V24.9262V24.9425V24.9589V24.9753V24.9917V25.0081V25.0245V25.0409V25.0573V25.0736V25.09V25.1064V25.1228V25.1392V25.1556V25.172V25.1883V25.2047V25.2211V25.2375V25.2539V25.2703V25.2867V25.303V25.3194V25.3358V25.3522V25.3686V25.385V25.4014V25.4178V25.4341V25.4505V25.4669V25.4833V25.4997V25.5161V25.5325V25.5488V25.5652V25.5816V25.598V25.6144V25.6308V25.6471V25.6635V25.6799V25.6963V25.7127V25.7291V25.7455V25.7618V25.7782V25.7946V25.811V25.8274V25.8438V25.8602V25.8765V25.8929V25.9093V25.9257V25.9421V25.9585V25.9748V25.9912V26.0076V26.024V26.0404V26.0568V26.0732V26.0895V26.1059V26.1223V26.1387V26.1551V26.1715V26.1878V26.2042V26.2206V26.237V26.2534V26.2698V26.2862V26.3025V26.3189V26.3353V26.3517V26.3681V26.3845V26.4008V26.4172V26.4336V26.45V26.4664V26.4828V26.4991V26.5155V26.5319V26.5483V26.5647V26.5811V26.5975V26.6138V26.6302V26.6466V26.663V26.6794V26.6958V26.7121V26.7285V26.7449V26.7613V26.7777V26.7941V26.8104V26.8268V26.8432V26.8596V26.876V26.8924V26.9088V26.9251V26.9415V26.9579V26.9743V26.9907V27.0071V27.0234V27.0398V27.0562V27.0726V27.089V27.1054V27.1218V27.1381V27.1545V27.1709V27.1873V27.2037V27.2201V27.2364V27.2528V27.2692V27.2856V27.302V27.3184V27.3348V27.3511V27.3675V27.3839V27.4003V27.4167V27.4331V27.4494V27.4658V27.4822V27.4986V27.515V27.5314V27.5478V27.5641V27.5805V27.5969V27.6133V27.6297V27.6461V27.6625V27.6788V27.6952V27.7116V27.728V27.7444V27.7608V27.7772V27.7935V27.8099V27.8263V27.8427V27.8591V27.8755V27.8919V27.9082V27.9246V27.941V27.9574V27.9738V27.9902V28.0066V28.0229V28.0393V28.0557V28.0721V28.0885V28.1049V28.1213V28.1376V28.154V28.1704V28.1868V28.2032V28.2196V28.236V28.2523V28.2687V28.2851V28.3015V28.3179V28.3343V28.3507V28.3671V28.3834V28.3998V28.4162V28.4326V28.449V28.4654V28.4818V28.4982V28.5145V28.5309V28.5473V28.5637V28.5801V28.5965V28.6129V28.6293V28.6457V28.662V28.6784V28.6948V28.7112V28.7276V28.744V28.7604V28.7768V28.7932V28.8095V28.8259V28.8423V28.8587V28.8751V28.8915V28.9079V28.9243V28.9407V28.957V28.9734V28.9898V29.0062V29.0226V29.039V29.0554V29.0718V29.0882V29.1046V29.1209V29.1373V29.1537V29.1701V29.1865V29.2029V29.2193V29.2357V29.2521V29.2685V29.2849V29.3013V29.3176V29.334V29.3504V29.3668V29.3832V29.3996V29.416V29.4324V29.4488V29.4652V29.4816V29.498V29.5143V29.5307V29.5471V29.5635V29.5799V29.5963V29.6127V29.6291V29.6455V29.6619V29.6783V29.6947V29.7111V29.7275V29.7439V29.7603V29.7766V29.793V29.8094V29.8258V29.8422V29.8586V29.875V29.8914V29.9078V29.9242V29.9406V29.957V29.9734V29.9898V30.0062V30.0226V30.039V30.0554V30.0718V30.0882V30.1046V30.121V30.1374V30.1537V30.1701V30.1865V30.2029V30.2193V30.2357V30.2521V30.2685V30.2849V30.3013V30.3177V30.3341V30.3505V30.3669V30.3833V30.3997V30.4161V30.4325V30.4489V30.4653V30.4817V30.4981V30.5145V30.5309V30.5473V30.5637V30.5801V30.5965V30.6129V30.6293V30.6457V30.6621V30.6785V30.6949V30.7113V30.7277V30.7441V30.7605V30.7769V30.7933V30.8097V30.8261V30.8425C28.5315 31.0109 28.5179 31.1349 28.4887 31.2161C28.3836 31.4793 28.0249 31.6167 27.7026 31.3801C27.0567 30.8985 26.4122 30.4169 25.7675 29.9351L25.7671 29.9348C25.1223 29.4529 24.4772 28.9708 23.8306 28.4886C23.6882 28.3813 23.546 28.2758 23.4054 28.1714L23.4047 28.1709C23.2632 28.0658 23.1233 27.962 22.9837 27.8568Z" fill="white" stroke="white"/>
</svg>
